<?xml version="1.0" encoding="utf-8"?>
<!-- Generator: Adobe Illustrator 15.0.0, SVG Export Plug-In  -->
<!DOCTYPE svg PUBLIC "-//W3C//DTD SVG 1.1//EN" "http://www.w3.org/Graphics/SVG/1.1/DTD/svg11.dtd" [
	<!ENTITY ns_flows "http://ns.adobe.com/Flows/1.0/">
]>
<svg version="1.1"
	 xmlns="http://www.w3.org/2000/svg" xmlns:xlink="http://www.w3.org/1999/xlink" xmlns:a="http://ns.adobe.com/AdobeSVGViewerExtensions/3.0/"
	 x="0px" y="0px" width="595px" height="842px" viewBox="-26.7 -18 595 842" enable-background="new -26.7 -18 595 842"
	 xml:space="preserve">
<font horiz-adv-x="1000">
<!-- Copyright 2015 The Amatic SC Project Authors (https://github.com/googlefonts/AmaticSC) -->
<!-- Copyright: Copyright 2019 Adobe System Incorporated. All rights reserved. -->
<font-face font-family="AmaticSC-Bold" units-per-em="1000" underline-position="-75" underline-thickness="50"/>
<missing-glyph horiz-adv-x="365" d="M33,667l266,0l0,-667l-266,0M266,33l0,600l-200,0l0,-600z"/>
<glyph unicode="" horiz-adv-x="183"/>
<glyph unicode=" " horiz-adv-x="183"/>
<glyph unicode="A" horiz-adv-x="350" d="M227,26l0,131C218,163 202,168 178,173C154,178 131,181 110,182C103,168 97,151 94,131l-4,-20C89,106 87,96 84,80C81,64 77,50 73,39C69,27 65,18 61,11C36,11 21,18 17,31C24,42 33,73 42,125l33,183C90,395 103,469 116,530C128,591 141,643 155,684C170,730 185,753 199,753C213,753 224,750 231,745C231,718 237,654 250,552C263,452 270,384 270,347C270,312 274,261 281,195C288,128 291,74 291,34C291,11 280,0 258,0C247,0 240,2 235,6C230,10 227,17 227,26M226,218C224,247 221,284 216,327C201,478 193,570 193,604l0,8C186,605 177,575 166,522C154,468 143,410 133,349C123,288 118,247 117,227C145,219 175,215 206,215C211,215 218,216 226,218z"/>
<glyph unicode="&#xC1;" horiz-adv-x="350" d="M227,26l0,131C218,163 202,168 178,173C154,178 131,181 110,182C103,168 97,151 94,131l-4,-20C89,106 87,96 84,80C81,64 77,50 73,39C69,27 65,18 61,11C36,11 21,18 17,31C24,42 33,73 42,125l33,183C90,395 103,469 116,530C128,591 141,643 155,684C170,730 185,753 199,753C213,753 224,750 231,745C231,718 237,654 250,552C263,452 270,384 270,347C270,312 274,261 281,195C288,128 291,74 291,34C291,11 280,0 258,0C247,0 240,2 235,6C230,10 227,17 227,26M226,218C224,247 221,284 216,327C201,478 193,570 193,604l0,8C186,605 177,575 166,522C154,468 143,410 133,349C123,288 118,247 117,227C145,219 175,215 206,215C211,215 218,216 226,218M165,788C165,791 167,795 170,798l16,14C189,815 208,832 242,861l59,51C304,913 307,914 310,914C318,914 325,910 332,902C339,894 342,886 342,877C342,869 340,864 335,861C311,842 262,814 189,777C188,776 185,775 181,775C177,775 173,776 170,779C167,781 165,784 165,788z"/>
<glyph unicode="&#x102;" horiz-adv-x="350" d="M227,26l0,131C218,163 202,168 178,173C154,178 131,181 110,182C103,168 97,151 94,131l-4,-20C89,106 87,96 84,80C81,64 77,50 73,39C69,27 65,18 61,11C36,11 21,18 17,31C24,42 33,73 42,125l33,183C90,395 103,469 116,530C128,591 141,643 155,684C170,730 185,753 199,753C213,753 224,750 231,745C231,718 237,654 250,552C263,452 270,384 270,347C270,312 274,261 281,195C288,128 291,74 291,34C291,11 280,0 258,0C247,0 240,2 235,6C230,10 227,17 227,26M226,218C224,247 221,284 216,327C201,478 193,570 193,604l0,8C186,605 177,575 166,522C154,468 143,410 133,349C123,288 118,247 117,227C145,219 175,215 206,215C211,215 218,216 226,218M151,831C139,854 133,881 133,910C133,914 135,918 139,921C142,924 147,925 152,925C159,925 166,921 172,912C178,903 183,893 186,881C189,869 194,859 199,850C204,841 210,837 215,837C226,837 234,842 240,852C246,862 249,872 249,883C249,896 251,906 255,912C259,918 266,921 277,921C284,921 291,919 296,914C301,909 304,903 304,896C304,887 303,879 302,871C297,847 287,828 273,813C259,798 241,791 218,791C203,791 189,795 178,802C166,809 157,818 151,831z"/>
<glyph unicode="&#x1EAE;" horiz-adv-x="350" d="M227,26l0,131C218,163 202,168 178,173C154,178 131,181 110,182C103,168 97,151 94,131l-4,-20C89,106 87,96 84,80C81,64 77,50 73,39C69,27 65,18 61,11C36,11 21,18 17,31C24,42 33,73 42,125l33,183C90,395 103,469 116,530C128,591 141,643 155,684C170,730 185,753 199,753C213,753 224,750 231,745C231,718 237,654 250,552C263,452 270,384 270,347C270,312 274,261 281,195C288,128 291,74 291,34C291,11 280,0 258,0C247,0 240,2 235,6C230,10 227,17 227,26M226,218C224,247 221,284 216,327C201,478 193,570 193,604l0,8C186,605 177,575 166,522C154,468 143,410 133,349C123,288 118,247 117,227C145,219 175,215 206,215C211,215 218,216 226,218M151,831C139,854 133,881 133,910C133,914 135,918 139,921C142,924 147,925 152,925C159,925 166,921 172,912C178,903 183,893 186,881C189,869 194,859 199,850C204,841 210,837 215,837C226,837 234,842 240,852C246,862 249,872 249,883C249,896 251,906 255,912C259,918 266,921 277,921C284,921 291,919 296,914C301,909 304,903 304,896C304,887 303,879 302,871C297,847 287,828 273,813C259,798 241,791 218,791C203,791 189,795 178,802C166,809 157,818 151,831M190,975C190,978 192,982 195,985l16,14C214,1002 233,1019 267,1048l59,51C329,1100 332,1101 335,1101C343,1101 350,1097 357,1089C364,1081 367,1073 367,1064C367,1056 365,1051 360,1048C336,1029 287,1001 214,964C213,963 210,962 206,962C202,962 198,963 195,966C192,968 190,971 190,975z"/>
<glyph unicode="&#x1EB6;" horiz-adv-x="350" d="M227,26l0,131C218,163 202,168 178,173C154,178 131,181 110,182C103,168 97,151 94,131l-4,-20C89,106 87,96 84,80C81,64 77,50 73,39C69,27 65,18 61,11C36,11 21,18 17,31C24,42 33,73 42,125l33,183C90,395 103,469 116,530C128,591 141,643 155,684C170,730 185,753 199,753C213,753 224,750 231,745C231,718 237,654 250,552C263,452 270,384 270,347C270,312 274,261 281,195C288,128 291,74 291,34C291,11 280,0 258,0C247,0 240,2 235,6C230,10 227,17 227,26M226,218C224,247 221,284 216,327C201,478 193,570 193,604l0,8C186,605 177,575 166,522C154,468 143,410 133,349C123,288 118,247 117,227C145,219 175,215 206,215C211,215 218,216 226,218M151,831C139,854 133,881 133,910C133,914 135,918 139,921C142,924 147,925 152,925C159,925 166,921 172,912C178,903 183,893 186,881C189,869 194,859 199,850C204,841 210,837 215,837C226,837 234,842 240,852C246,862 249,872 249,883C249,896 251,906 255,912C259,918 266,921 277,921C284,921 291,919 296,914C301,909 304,903 304,896C304,887 303,879 302,871C297,847 287,828 273,813C259,798 241,791 218,791C203,791 189,795 178,802C166,809 157,818 151,831M138,-132C138,-122 142,-113 150,-105C157,-98 166,-94 176,-94C185,-94 194,-98 201,-105C208,-113 211,-122 211,-132C211,-143 207,-151 200,-158C193,-165 183,-168 172,-168C163,-168 156,-164 149,-157C142,-150 138,-141 138,-132z"/>
<glyph unicode="&#x1EB0;" horiz-adv-x="350" d="M227,26l0,131C218,163 202,168 178,173C154,178 131,181 110,182C103,168 97,151 94,131l-4,-20C89,106 87,96 84,80C81,64 77,50 73,39C69,27 65,18 61,11C36,11 21,18 17,31C24,42 33,73 42,125l33,183C90,395 103,469 116,530C128,591 141,643 155,684C170,730 185,753 199,753C213,753 224,750 231,745C231,718 237,654 250,552C263,452 270,384 270,347C270,312 274,261 281,195C288,128 291,74 291,34C291,11 280,0 258,0C247,0 240,2 235,6C230,10 227,17 227,26M226,218C224,247 221,284 216,327C201,478 193,570 193,604l0,8C186,605 177,575 166,522C154,468 143,410 133,349C123,288 118,247 117,227C145,219 175,215 206,215C211,215 218,216 226,218M151,831C139,854 133,881 133,910C133,914 135,918 139,921C142,924 147,925 152,925C159,925 166,921 172,912C178,903 183,893 186,881C189,869 194,859 199,850C204,841 210,837 215,837C226,837 234,842 240,852C246,862 249,872 249,883C249,896 251,906 255,912C259,918 266,921 277,921C284,921 291,919 296,914C301,909 304,903 304,896C304,887 303,879 302,871C297,847 287,828 273,813C259,798 241,791 218,791C203,791 189,795 178,802C166,809 157,818 151,831M79,1029C79,1037 83,1046 90,1055C97,1064 105,1068 112,1068C116,1068 132,1061 159,1047C186,1033 212,1019 235,1004C258,989 270,978 270,973C270,968 268,966 263,966C256,966 237,971 206,980C175,989 146,998 119,1008C92,1018 79,1025 79,1029z"/>
<glyph unicode="&#x1EB2;" horiz-adv-x="350" d="M227,26l0,131C218,163 202,168 178,173C154,178 131,181 110,182C103,168 97,151 94,131l-4,-20C89,106 87,96 84,80C81,64 77,50 73,39C69,27 65,18 61,11C36,11 21,18 17,31C24,42 33,73 42,125l33,183C90,395 103,469 116,530C128,591 141,643 155,684C170,730 185,753 199,753C213,753 224,750 231,745C231,718 237,654 250,552C263,452 270,384 270,347C270,312 274,261 281,195C288,128 291,74 291,34C291,11 280,0 258,0C247,0 240,2 235,6C230,10 227,17 227,26M226,218C224,247 221,284 216,327C201,478 193,570 193,604l0,8C186,605 177,575 166,522C154,468 143,410 133,349C123,288 118,247 117,227C145,219 175,215 206,215C211,215 218,216 226,218M151,831C139,854 133,881 133,910C133,914 135,918 139,921C142,924 147,925 152,925C159,925 166,921 172,912C178,903 183,893 186,881C189,869 194,859 199,850C204,841 210,837 215,837C226,837 234,842 240,852C246,862 249,872 249,883C249,896 251,906 255,912C259,918 266,921 277,921C284,921 291,919 296,914C301,909 304,903 304,896C304,887 303,879 302,871C297,847 287,828 273,813C259,798 241,791 218,791C203,791 189,795 178,802C166,809 157,818 151,831M198,983C198,1004 203,1019 213,1027C223,1034 237,1040 254,1043C264,1045 271,1047 276,1050C281,1052 283,1056 283,1061C283,1071 278,1079 269,1086C260,1093 246,1096 229,1096C214,1096 202,1093 193,1088C184,1083 180,1076 180,1067C180,1066 182,1063 186,1057C186,1056 183,1052 176,1046C169,1040 164,1037 159,1037C150,1037 144,1039 139,1044C134,1049 131,1054 131,1059l0,9C131,1091 139,1108 156,1121C172,1133 196,1139 227,1139C269,1139 298,1131 313,1116C328,1100 335,1082 335,1061C335,1043 330,1031 321,1025C311,1018 297,1013 279,1008C268,1006 259,1004 254,1001C249,998 246,994 246,988l0,-18C233,970 227,970 226,969C223,968 222,967 221,967C210,967 202,972 198,983z"/>
<glyph unicode="&#x1EB4;" horiz-adv-x="350" d="M227,26l0,131C218,163 202,168 178,173C154,178 131,181 110,182C103,168 97,151 94,131l-4,-20C89,106 87,96 84,80C81,64 77,50 73,39C69,27 65,18 61,11C36,11 21,18 17,31C24,42 33,73 42,125l33,183C90,395 103,469 116,530C128,591 141,643 155,684C170,730 185,753 199,753C213,753 224,750 231,745C231,718 237,654 250,552C263,452 270,384 270,347C270,312 274,261 281,195C288,128 291,74 291,34C291,11 280,0 258,0C247,0 240,2 235,6C230,10 227,17 227,26M226,218C224,247 221,284 216,327C201,478 193,570 193,604l0,8C186,605 177,575 166,522C154,468 143,410 133,349C123,288 118,247 117,227C145,219 175,215 206,215C211,215 218,216 226,218M151,831C139,854 133,881 133,910C133,914 135,918 139,921C142,924 147,925 152,925C159,925 166,921 172,912C178,903 183,893 186,881C189,869 194,859 199,850C204,841 210,837 215,837C226,837 234,842 240,852C246,862 249,872 249,883C249,896 251,906 255,912C259,918 266,921 277,921C284,921 291,919 296,914C301,909 304,903 304,896C304,887 303,879 302,871C297,847 287,828 273,813C259,798 241,791 218,791C203,791 189,795 178,802C166,809 157,818 151,831M203,987C198,993 193,998 186,1002C179,1006 172,1008 164,1008C159,1006 156,1003 154,1000C152,997 152,993 153,989l0,-2C153,978 148,972 138,969C127,969 119,972 112,977C105,982 102,989 102,998C102,1015 109,1029 122,1040C135,1051 153,1056 175,1056C182,1056 197,1049 218,1036C239,1023 253,1016 259,1016C265,1016 270,1018 274,1022C277,1026 279,1031 280,1036C281,1041 284,1046 288,1050C291,1054 296,1056 302,1056C313,1056 321,1054 327,1049C332,1044 335,1037 335,1030C335,1013 329,998 316,985C303,972 288,965 271,965C254,965 240,967 228,972C216,976 208,981 203,987z"/>
<glyph unicode="&#x1CD;" horiz-adv-x="350" d="M227,26l0,131C218,163 202,168 178,173C154,178 131,181 110,182C103,168 97,151 94,131l-4,-20C89,106 87,96 84,80C81,64 77,50 73,39C69,27 65,18 61,11C36,11 21,18 17,31C24,42 33,73 42,125l33,183C90,395 103,469 116,530C128,591 141,643 155,684C170,730 185,753 199,753C213,753 224,750 231,745C231,718 237,654 250,552C263,452 270,384 270,347C270,312 274,261 281,195C288,128 291,74 291,34C291,11 280,0 258,0C247,0 240,2 235,6C230,10 227,17 227,26M226,218C224,247 221,284 216,327C201,478 193,570 193,604l0,8C186,605 177,575 166,522C154,468 143,410 133,349C123,288 118,247 117,227C145,219 175,215 206,215C211,215 218,216 226,218M118,972C118,977 121,982 126,986C131,990 136,992 142,992C149,992 158,982 167,963C174,948 182,923 192,889l13,-46C207,859 208,870 209,876C210,882 211,893 213,910C215,926 218,941 221,954C226,981 236,995 249,995C255,995 260,993 264,989C268,985 270,980 270,974C270,972 269,969 266,966l-4,-7l0,-18l-14,-55C239,847 234,824 234,815C234,794 226,783 209,783C201,783 190,796 175,822C160,847 147,876 136,907C124,938 118,960 118,972z"/>
<glyph unicode="&#xC2;" horiz-adv-x="350" d="M227,26l0,131C218,163 202,168 178,173C154,178 131,181 110,182C103,168 97,151 94,131l-4,-20C89,106 87,96 84,80C81,64 77,50 73,39C69,27 65,18 61,11C36,11 21,18 17,31C24,42 33,73 42,125l33,183C90,395 103,469 116,530C128,591 141,643 155,684C170,730 185,753 199,753C213,753 224,750 231,745C231,718 237,654 250,552C263,452 270,384 270,347C270,312 274,261 281,195C288,128 291,74 291,34C291,11 280,0 258,0C247,0 240,2 235,6C230,10 227,17 227,26M226,218C224,247 221,284 216,327C201,478 193,570 193,604l0,8C186,605 177,575 166,522C154,468 143,410 133,349C123,288 118,247 117,227C145,219 175,215 206,215C211,215 218,216 226,218M265,781l-39,135l-51,-128C173,783 168,781 161,781C154,781 149,783 144,787C139,790 136,795 136,801C136,805 137,808 138,810l35,88C176,903 180,912 185,925C190,938 194,946 197,951C204,963 212,971 220,975C225,976 230,977 234,977C239,977 244,974 248,968C257,953 266,931 273,900l13,-48C292,828 296,812 299,804C300,802 300,799 300,795C300,789 298,784 293,780C288,776 283,774 277,774C270,774 266,776 265,781z"/>
<glyph unicode="&#x1EA4;" horiz-adv-x="350" d="M227,26l0,131C218,163 202,168 178,173C154,178 131,181 110,182C103,168 97,151 94,131l-4,-20C89,106 87,96 84,80C81,64 77,50 73,39C69,27 65,18 61,11C36,11 21,18 17,31C24,42 33,73 42,125l33,183C90,395 103,469 116,530C128,591 141,643 155,684C170,730 185,753 199,753C213,753 224,750 231,745C231,718 237,654 250,552C263,452 270,384 270,347C270,312 274,261 281,195C288,128 291,74 291,34C291,11 280,0 258,0C247,0 240,2 235,6C230,10 227,17 227,26M226,218C224,247 221,284 216,327C201,478 193,570 193,604l0,8C186,605 177,575 166,522C154,468 143,410 133,349C123,288 118,247 117,227C145,219 175,215 206,215C211,215 218,216 226,218M240,776l-39,135l-51,-128C148,778 143,776 136,776C129,776 124,778 119,782C114,785 111,790 111,796C111,800 112,803 113,805l35,88C151,898 155,907 160,920C165,933 169,941 172,946C179,958 187,966 195,970C200,971 205,972 209,972C214,972 219,969 223,963C232,948 241,926 248,895l13,-48C267,823 271,807 274,799C275,797 275,794 275,790C275,784 273,779 268,775C263,771 258,769 252,769C245,769 241,771 240,776M264,890C264,893 266,897 269,900l16,14C288,917 307,934 341,963l59,51C403,1015 406,1016 409,1016C417,1016 424,1012 431,1004C438,996 441,988 441,979C441,971 439,966 434,963C410,944 361,916 288,879C287,878 284,877 280,877C276,877 272,878 269,881C266,883 264,886 264,890z"/>
<glyph unicode="&#x1EAC;" horiz-adv-x="350" d="M227,26l0,131C218,163 202,168 178,173C154,178 131,181 110,182C103,168 97,151 94,131l-4,-20C89,106 87,96 84,80C81,64 77,50 73,39C69,27 65,18 61,11C36,11 21,18 17,31C24,42 33,73 42,125l33,183C90,395 103,469 116,530C128,591 141,643 155,684C170,730 185,753 199,753C213,753 224,750 231,745C231,718 237,654 250,552C263,452 270,384 270,347C270,312 274,261 281,195C288,128 291,74 291,34C291,11 280,0 258,0C247,0 240,2 235,6C230,10 227,17 227,26M226,218C224,247 221,284 216,327C201,478 193,570 193,604l0,8C186,605 177,575 166,522C154,468 143,410 133,349C123,288 118,247 117,227C145,219 175,215 206,215C211,215 218,216 226,218M265,781l-39,135l-51,-128C173,783 168,781 161,781C154,781 149,783 144,787C139,790 136,795 136,801C136,805 137,808 138,810l35,88C176,903 180,912 185,925C190,938 194,946 197,951C204,963 212,971 220,975C225,976 230,977 234,977C239,977 244,974 248,968C257,953 266,931 273,900l13,-48C292,828 296,812 299,804C300,802 300,799 300,795C300,789 298,784 293,780C288,776 283,774 277,774C270,774 266,776 265,781M138,-132C138,-122 142,-113 150,-105C157,-98 166,-94 176,-94C185,-94 194,-98 201,-105C208,-113 211,-122 211,-132C211,-143 207,-151 200,-158C193,-165 183,-168 172,-168C163,-168 156,-164 149,-157C142,-150 138,-141 138,-132z"/>
<glyph unicode="&#x1EA6;" horiz-adv-x="350" d="M227,26l0,131C218,163 202,168 178,173C154,178 131,181 110,182C103,168 97,151 94,131l-4,-20C89,106 87,96 84,80C81,64 77,50 73,39C69,27 65,18 61,11C36,11 21,18 17,31C24,42 33,73 42,125l33,183C90,395 103,469 116,530C128,591 141,643 155,684C170,730 185,753 199,753C213,753 224,750 231,745C231,718 237,654 250,552C263,452 270,384 270,347C270,312 274,261 281,195C288,128 291,74 291,34C291,11 280,0 258,0C247,0 240,2 235,6C230,10 227,17 227,26M226,218C224,247 221,284 216,327C201,478 193,570 193,604l0,8C186,605 177,575 166,522C154,468 143,410 133,349C123,288 118,247 117,227C145,219 175,215 206,215C211,215 218,216 226,218M242,776l-39,135l-51,-128C150,778 145,776 138,776C131,776 126,778 121,782C116,785 113,790 113,796C113,800 114,803 115,805l35,88C153,898 157,907 162,920C167,933 171,941 174,946C181,958 189,966 197,970C202,971 207,972 211,972C216,972 221,969 225,963C234,948 243,926 250,895l13,-48C269,823 273,807 276,799C277,797 277,794 277,790C277,784 275,779 270,775C265,771 260,769 254,769C247,769 243,771 242,776M-36,981C-33,988 -27,995 -17,1001C-7,1007 1,1009 8,1006C11,1005 24,993 45,971C66,948 85,926 102,904C119,881 126,868 124,863C122,858 119,857 115,859C108,861 92,872 66,891C39,910 15,929 -6,948C-28,966 -38,977 -36,981z"/>
<glyph unicode="&#x1EA8;" horiz-adv-x="350" d="M227,26l0,131C218,163 202,168 178,173C154,178 131,181 110,182C103,168 97,151 94,131l-4,-20C89,106 87,96 84,80C81,64 77,50 73,39C69,27 65,18 61,11C36,11 21,18 17,31C24,42 33,73 42,125l33,183C90,395 103,469 116,530C128,591 141,643 155,684C170,730 185,753 199,753C213,753 224,750 231,745C231,718 237,654 250,552C263,452 270,384 270,347C270,312 274,261 281,195C288,128 291,74 291,34C291,11 280,0 258,0C247,0 240,2 235,6C230,10 227,17 227,26M226,218C224,247 221,284 216,327C201,478 193,570 193,604l0,8C186,605 177,575 166,522C154,468 143,410 133,349C123,288 118,247 117,227C145,219 175,215 206,215C211,215 218,216 226,218M250,776l-39,135l-51,-128C158,778 153,776 146,776C139,776 134,778 129,782C124,785 121,790 121,796C121,800 122,803 123,805l35,88C161,898 165,907 170,920C175,933 179,941 182,946C189,958 197,966 205,970C210,971 215,972 219,972C224,972 229,969 233,963C242,948 251,926 258,895l13,-48C277,823 281,807 284,799C285,797 285,794 285,790C285,784 283,779 278,775C273,771 268,769 262,769C255,769 251,771 250,776M328,885C328,906 333,921 343,929C353,936 367,942 384,945C394,947 401,949 406,952C411,954 413,958 413,963C413,973 408,981 399,988C390,995 376,998 359,998C344,998 332,995 323,990C314,985 310,978 310,969C310,968 312,965 316,959C316,958 313,954 306,948C299,942 294,939 289,939C280,939 274,941 269,946C264,951 261,956 261,961l0,9C261,993 269,1010 286,1023C302,1035 326,1041 357,1041C399,1041 428,1033 443,1018C458,1002 465,984 465,963C465,945 460,933 451,927C441,920 427,915 409,910C398,908 389,906 384,903C379,900 376,896 376,890l0,-18C363,872 357,872 356,871C353,870 352,869 351,869C340,869 332,874 328,885z"/>
<glyph unicode="&#x1EAA;" horiz-adv-x="350" d="M227,26l0,131C218,163 202,168 178,173C154,178 131,181 110,182C103,168 97,151 94,131l-4,-20C89,106 87,96 84,80C81,64 77,50 73,39C69,27 65,18 61,11C36,11 21,18 17,31C24,42 33,73 42,125l33,183C90,395 103,469 116,530C128,591 141,643 155,684C170,730 185,753 199,753C213,753 224,750 231,745C231,718 237,654 250,552C263,452 270,384 270,347C270,312 274,261 281,195C288,128 291,74 291,34C291,11 280,0 258,0C247,0 240,2 235,6C230,10 227,17 227,26M226,218C224,247 221,284 216,327C201,478 193,570 193,604l0,8C186,605 177,575 166,522C154,468 143,410 133,349C123,288 118,247 117,227C145,219 175,215 206,215C211,215 218,216 226,218M265,781l-39,135l-51,-128C173,783 168,781 161,781C154,781 149,783 144,787C139,790 136,795 136,801C136,805 137,808 138,810l35,88C176,903 180,912 185,925C190,938 194,946 197,951C204,963 212,971 220,975C225,976 230,977 234,977C239,977 244,974 248,968C257,953 266,931 273,900l13,-48C292,828 296,812 299,804C300,802 300,799 300,795C300,789 298,784 293,780C288,776 283,774 277,774C270,774 266,776 265,781M202,1019C197,1025 192,1030 185,1034C178,1038 171,1040 163,1040C158,1038 155,1035 153,1032C151,1029 151,1025 152,1021l0,-2C152,1010 147,1004 137,1001C126,1001 118,1004 111,1009C104,1014 101,1021 101,1030C101,1047 108,1061 121,1072C134,1083 152,1088 174,1088C181,1088 196,1081 217,1068C238,1055 252,1048 258,1048C264,1048 269,1050 273,1054C276,1058 278,1063 279,1068C280,1073 283,1078 287,1082C290,1086 295,1088 301,1088C312,1088 320,1086 326,1081C331,1076 334,1069 334,1062C334,1045 328,1030 315,1017C302,1004 287,997 270,997C253,997 239,999 227,1004C215,1008 207,1013 202,1019z"/>
<glyph unicode="&#x200;" horiz-adv-x="350" d="M227,26l0,131C218,163 202,168 178,173C154,178 131,181 110,182C103,168 97,151 94,131l-4,-20C89,106 87,96 84,80C81,64 77,50 73,39C69,27 65,18 61,11C36,11 21,18 17,31C24,42 33,73 42,125l33,183C90,395 103,469 116,530C128,591 141,643 155,684C170,730 185,753 199,753C213,753 224,750 231,745C231,718 237,654 250,552C263,452 270,384 270,347C270,312 274,261 281,195C288,128 291,74 291,34C291,11 280,0 258,0C247,0 240,2 235,6C230,10 227,17 227,26M226,218C224,247 221,284 216,327C201,478 193,570 193,604l0,8C186,605 177,575 166,522C154,468 143,410 133,349C123,288 118,247 117,227C145,219 175,215 206,215C211,215 218,216 226,218M59,929l-9,16C52,952 56,959 61,964C66,969 72,971 79,971C84,971 99,958 123,932C148,904 171,876 192,848C213,820 223,803 223,796C223,788 220,784 213,784C112,879 60,927 59,929M234,887C215,912 205,931 205,942C205,945 208,949 214,952C219,955 225,956 230,956C235,956 246,944 264,919C281,894 298,868 314,841C330,813 338,795 339,787l-7,-11C297,810 264,847 234,887z"/>
<glyph unicode="&#xC4;" horiz-adv-x="350" d="M227,26l0,131C218,163 202,168 178,173C154,178 131,181 110,182C103,168 97,151 94,131l-4,-20C89,106 87,96 84,80C81,64 77,50 73,39C69,27 65,18 61,11C36,11 21,18 17,31C24,42 33,73 42,125l33,183C90,395 103,469 116,530C128,591 141,643 155,684C170,730 185,753 199,753C213,753 224,750 231,745C231,718 237,654 250,552C263,452 270,384 270,347C270,312 274,261 281,195C288,128 291,74 291,34C291,11 280,0 258,0C247,0 240,2 235,6C230,10 227,17 227,26M226,218C224,247 221,284 216,327C201,478 193,570 193,604l0,8C186,605 177,575 166,522C154,468 143,410 133,349C123,288 118,247 117,227C145,219 175,215 206,215C211,215 218,216 226,218M101,820C101,830 105,839 113,847C120,854 129,858 139,858C148,858 157,854 164,847C171,839 174,830 174,821C174,810 170,802 163,795C156,788 146,784 135,784C126,784 119,788 112,795C105,802 101,811 101,820M262,815C262,825 266,834 274,842C281,849 290,853 300,853C309,853 318,849 325,842C332,834 336,825 336,816C336,805 332,797 325,790C317,783 307,779 296,779C287,779 280,783 273,790C266,797 262,806 262,815z"/>
<glyph unicode="&#x226;" horiz-adv-x="350" d="M227,26l0,131C218,163 202,168 178,173C154,178 131,181 110,182C103,168 97,151 94,131l-4,-20C89,106 87,96 84,80C81,64 77,50 73,39C69,27 65,18 61,11C36,11 21,18 17,31C24,42 33,73 42,125l33,183C90,395 103,469 116,530C128,591 141,643 155,684C170,730 185,753 199,753C213,753 224,750 231,745C231,718 237,654 250,552C263,452 270,384 270,347C270,312 274,261 281,195C288,128 291,74 291,34C291,11 280,0 258,0C247,0 240,2 235,6C230,10 227,17 227,26M226,218C224,247 221,284 216,327C201,478 193,570 193,604l0,8C186,605 177,575 166,522C154,468 143,410 133,349C123,288 118,247 117,227C145,219 175,215 206,215C211,215 218,216 226,218M158,835C158,845 162,854 169,862C176,869 185,873 195,873C204,873 213,869 220,862C227,854 231,845 231,836C231,825 227,817 220,810C212,803 202,799 191,799C182,799 175,803 168,810C161,817 158,826 158,835z"/>
<glyph unicode="&#x1EA0;" horiz-adv-x="350" d="M227,26l0,131C218,163 202,168 178,173C154,178 131,181 110,182C103,168 97,151 94,131l-4,-20C89,106 87,96 84,80C81,64 77,50 73,39C69,27 65,18 61,11C36,11 21,18 17,31C24,42 33,73 42,125l33,183C90,395 103,469 116,530C128,591 141,643 155,684C170,730 185,753 199,753C213,753 224,750 231,745C231,718 237,654 250,552C263,452 270,384 270,347C270,312 274,261 281,195C288,128 291,74 291,34C291,11 280,0 258,0C247,0 240,2 235,6C230,10 227,17 227,26M226,218C224,247 221,284 216,327C201,478 193,570 193,604l0,8C186,605 177,575 166,522C154,468 143,410 133,349C123,288 118,247 117,227C145,219 175,215 206,215C211,215 218,216 226,218M138,-132C138,-122 142,-113 150,-105C157,-98 166,-94 176,-94C185,-94 194,-98 201,-105C208,-113 211,-122 211,-132C211,-143 207,-151 200,-158C193,-165 183,-168 172,-168C163,-168 156,-164 149,-157C142,-150 138,-141 138,-132z"/>
<glyph unicode="&#xC0;" horiz-adv-x="350" d="M227,26l0,131C218,163 202,168 178,173C154,178 131,181 110,182C103,168 97,151 94,131l-4,-20C89,106 87,96 84,80C81,64 77,50 73,39C69,27 65,18 61,11C36,11 21,18 17,31C24,42 33,73 42,125l33,183C90,395 103,469 116,530C128,591 141,643 155,684C170,730 185,753 199,753C213,753 224,750 231,745C231,718 237,654 250,552C263,452 270,384 270,347C270,312 274,261 281,195C288,128 291,74 291,34C291,11 280,0 258,0C247,0 240,2 235,6C230,10 227,17 227,26M226,218C224,247 221,284 216,327C201,478 193,570 193,604l0,8C186,605 177,575 166,522C154,468 143,410 133,349C123,288 118,247 117,227C145,219 175,215 206,215C211,215 218,216 226,218M54,842C54,850 58,859 65,868C72,877 80,881 87,881C91,881 107,874 134,860C161,846 187,832 210,817C233,802 245,791 245,786C245,781 243,779 238,779C231,779 212,784 181,793C150,802 121,811 94,821C67,831 54,838 54,842z"/>
<glyph unicode="&#x1EA2;" horiz-adv-x="350" d="M227,26l0,131C218,163 202,168 178,173C154,178 131,181 110,182C103,168 97,151 94,131l-4,-20C89,106 87,96 84,80C81,64 77,50 73,39C69,27 65,18 61,11C36,11 21,18 17,31C24,42 33,73 42,125l33,183C90,395 103,469 116,530C128,591 141,643 155,684C170,730 185,753 199,753C213,753 224,750 231,745C231,718 237,654 250,552C263,452 270,384 270,347C270,312 274,261 281,195C288,128 291,74 291,34C291,11 280,0 258,0C247,0 240,2 235,6C230,10 227,17 227,26M226,218C224,247 221,284 216,327C201,478 193,570 193,604l0,8C186,605 177,575 166,522C154,468 143,410 133,349C123,288 118,247 117,227C145,219 175,215 206,215C211,215 218,216 226,218M173,796C173,817 178,832 188,840C198,847 212,853 229,856C239,858 246,860 251,863C256,865 258,869 258,874C258,884 253,892 244,899C235,906 221,909 204,909C189,909 177,906 168,901C159,896 155,889 155,880C155,879 157,876 161,870C161,869 158,865 151,859C144,853 139,850 134,850C125,850 119,852 114,857C109,862 106,867 106,872l0,9C106,904 114,921 131,934C147,946 171,952 202,952C244,952 273,944 288,929C303,913 310,895 310,874C310,856 305,844 296,838C286,831 272,826 254,821C243,819 234,817 229,814C224,811 221,807 221,801l0,-18C208,783 202,783 201,782C198,781 197,780 196,780C185,780 177,785 173,796z"/>
<glyph unicode="&#x202;" horiz-adv-x="350" d="M227,26l0,131C218,163 202,168 178,173C154,178 131,181 110,182C103,168 97,151 94,131l-4,-20C89,106 87,96 84,80C81,64 77,50 73,39C69,27 65,18 61,11C36,11 21,18 17,31C24,42 33,73 42,125l33,183C90,395 103,469 116,530C128,591 141,643 155,684C170,730 185,753 199,753C213,753 224,750 231,745C231,718 237,654 250,552C263,452 270,384 270,347C270,312 274,261 281,195C288,128 291,74 291,34C291,11 280,0 258,0C247,0 240,2 235,6C230,10 227,17 227,26M226,218C224,247 221,284 216,327C201,478 193,570 193,604l0,8C186,605 177,575 166,522C154,468 143,410 133,349C123,288 118,247 117,227C145,219 175,215 206,215C211,215 218,216 226,218M108,789C108,818 114,844 126,868C132,880 141,890 153,897C164,904 178,907 193,907C206,907 216,905 225,902C233,899 240,893 246,885C253,876 258,869 261,862C264,855 268,846 273,835l2,-4l2,-4l-2,-4C275,820 275,819 274,819l5,-16C279,796 276,790 271,785C266,780 259,777 252,777C241,777 234,780 230,786C226,792 224,802 224,815C224,823 222,833 217,844C212,855 206,861 201,861l-21,0C170,854 162,837 156,810C154,799 151,791 146,784C141,777 134,773 127,773z"/>
<glyph unicode="&#x100;" horiz-adv-x="350" d="M227,26l0,131C218,163 202,168 178,173C154,178 131,181 110,182C103,168 97,151 94,131l-4,-20C89,106 87,96 84,80C81,64 77,50 73,39C69,27 65,18 61,11C36,11 21,18 17,31C24,42 33,73 42,125l33,183C90,395 103,469 116,530C128,591 141,643 155,684C170,730 185,753 199,753C213,753 224,750 231,745C231,718 237,654 250,552C263,452 270,384 270,347C270,312 274,261 281,195C288,128 291,74 291,34C291,11 280,0 258,0C247,0 240,2 235,6C230,10 227,17 227,26M226,218C224,247 221,284 216,327C201,478 193,570 193,604l0,8C186,605 177,575 166,522C154,468 143,410 133,349C123,288 118,247 117,227C145,219 175,215 206,215C211,215 218,216 226,218M54,834C54,841 56,846 61,850C65,854 70,856 77,856l147,0l30,2C263,859 274,859 285,859C317,859 333,849 333,830C333,823 331,817 326,813C321,809 314,807 305,807C282,807 247,806 200,804l-106,-2C67,802 54,813 54,834z"/>
<glyph unicode="&#x104;" horiz-adv-x="350" d="M227,26l0,131C218,163 202,168 178,173C154,178 131,181 110,182C103,168 97,151 94,131l-4,-20C89,106 87,96 84,80C81,64 77,50 73,39C69,27 65,18 61,11C36,11 21,18 17,31C24,42 33,73 42,125l33,183C90,395 103,469 116,530C128,591 141,643 155,684C170,730 185,753 199,753C213,753 224,750 231,745C231,718 237,654 250,552C263,452 270,384 270,347C270,312 274,261 281,195C288,128 291,74 291,34C291,11 280,0 258,0C247,0 240,2 235,6C230,10 227,17 227,26M226,218C224,247 221,284 216,327C201,478 193,570 193,604l0,8C186,605 177,575 166,522C154,468 143,410 133,349C123,288 118,247 117,227C145,219 175,215 206,215C211,215 218,216 226,218M144,-119C144,-94 152,-71 169,-49C186,-28 207,-9 234,6l41,0C217,-39 188,-78 188,-112C188,-129 194,-137 206,-137C216,-137 228,-132 243,-121l11,-29C249,-157 241,-163 230,-169C218,-176 207,-179 198,-179C181,-179 167,-173 158,-160C149,-148 144,-134 144,-119z"/>
<glyph unicode="&#xC5;" horiz-adv-x="350" d="M227,26l0,131C218,163 202,168 178,173C154,178 131,181 110,182C103,168 97,151 94,131l-4,-20C89,106 87,96 84,80C81,64 77,50 73,39C69,27 65,18 61,11C36,11 21,18 17,31C24,42 33,73 42,125l33,183C90,395 103,469 116,530C128,591 141,643 155,684C170,730 185,753 199,753C213,753 224,750 231,745C231,718 237,654 250,552C263,452 270,384 270,347C270,312 274,261 281,195C288,128 291,74 291,34C291,11 280,0 258,0C247,0 240,2 235,6C230,10 227,17 227,26M226,218C224,247 221,284 216,327C201,478 193,570 193,604l0,8C186,605 177,575 166,522C154,468 143,410 133,349C123,288 118,247 117,227C145,219 175,215 206,215C211,215 218,216 226,218M130,793C119,814 114,836 114,858C114,881 122,901 137,916C152,931 171,939 194,939C225,939 248,933 264,920C278,909 287,895 292,878C293,869 294,862 294,858C294,842 290,826 283,811C274,790 258,774 236,765C225,760 211,758 194,758C179,758 166,761 155,768C144,774 135,782 130,793M248,820C255,831 258,843 258,856C258,869 253,880 243,889C233,898 218,903 199,903C184,903 172,897 165,885C157,873 153,857 153,838C153,829 158,819 167,810C176,801 187,796 198,796C209,796 219,798 228,803C237,807 243,813 248,820z"/>
<glyph unicode="&#x1FA;" horiz-adv-x="350" d="M227,26l0,131C218,163 202,168 178,173C154,178 131,181 110,182C103,168 97,151 94,131l-4,-20C89,106 87,96 84,80C81,64 77,50 73,39C69,27 65,18 61,11C36,11 21,18 17,31C24,42 33,73 42,125l33,183C90,395 103,469 116,530C128,591 141,643 155,684C170,730 185,753 199,753C213,753 224,750 231,745C231,718 237,654 250,552C263,452 270,384 270,347C270,312 274,261 281,195C288,128 291,74 291,34C291,11 280,0 258,0C247,0 240,2 235,6C230,10 227,17 227,26M226,218C224,247 221,284 216,327C201,478 193,570 193,604l0,8C186,605 177,575 166,522C154,468 143,410 133,349C123,288 118,247 117,227C145,219 175,215 206,215C211,215 218,216 226,218M130,793C119,814 114,836 114,858C114,881 122,901 137,916C152,931 171,939 194,939C225,939 248,933 264,920C278,909 287,895 292,878C293,869 294,862 294,858C294,842 290,826 283,811C274,790 258,774 236,765C225,760 211,758 194,758C179,758 166,761 155,768C144,774 135,782 130,793M248,820C255,831 258,843 258,856C258,869 253,880 243,889C233,898 218,903 199,903C184,903 172,897 165,885C157,873 153,857 153,838C153,829 158,819 167,810C176,801 187,796 198,796C209,796 219,798 228,803C237,807 243,813 248,820M175,969C175,972 177,976 180,979l16,14C199,996 218,1013 252,1042l59,51C314,1094 317,1095 320,1095C328,1095 335,1091 342,1083C349,1075 352,1067 352,1058C352,1050 350,1045 345,1042C321,1023 272,995 199,958C198,957 195,956 191,956C187,956 183,957 180,960C177,962 175,965 175,969z"/>
<glyph unicode="&#xC3;" horiz-adv-x="350" d="M227,26l0,131C218,163 202,168 178,173C154,178 131,181 110,182C103,168 97,151 94,131l-4,-20C89,106 87,96 84,80C81,64 77,50 73,39C69,27 65,18 61,11C36,11 21,18 17,31C24,42 33,73 42,125l33,183C90,395 103,469 116,530C128,591 141,643 155,684C170,730 185,753 199,753C213,753 224,750 231,745C231,718 237,654 250,552C263,452 270,384 270,347C270,312 274,261 281,195C288,128 291,74 291,34C291,11 280,0 258,0C247,0 240,2 235,6C230,10 227,17 227,26M226,218C224,247 221,284 216,327C201,478 193,570 193,604l0,8C186,605 177,575 166,522C154,468 143,410 133,349C123,288 118,247 117,227C145,219 175,215 206,215C211,215 218,216 226,218M178,800C173,806 168,811 161,815C154,819 147,821 139,821C134,819 131,816 129,813C127,810 127,806 128,802l0,-2C128,791 123,785 113,782C102,782 94,785 87,790C80,795 77,802 77,811C77,828 84,842 97,853C110,864 128,869 150,869C157,869 172,862 193,849C214,836 228,829 234,829C240,829 245,831 249,835C252,839 254,844 255,849C256,854 259,859 263,863C266,867 271,869 277,869C288,869 296,867 302,862C307,857 310,850 310,843C310,826 304,811 291,798C278,785 263,778 246,778C229,778 215,780 203,785C191,789 183,794 178,800z"/>
<glyph unicode="&#xC6;" horiz-adv-x="491" d="M250,1l1,0C256,63 259,104 259,124l-2,92C255,258 254,289 254,309C247,309 240,309 233,308C220,307 205,306 190,304C188,303 185,303 180,302C175,301 171,299 168,298l-49,-188C117,105 115,96 114,84C111,71 108,58 105,46C102,34 98,24 93,15C86,5 79,0 72,0C67,0 63,3 59,8C55,13 53,18 53,23C53,57 62,110 80,182C98,252 118,325 140,400l29,96C186,550 197,586 202,603C213,639 221,663 225,674C226,677 227,681 229,687C230,693 232,698 233,703C235,707 237,712 238,717C241,724 244,729 246,731C247,733 249,735 251,737C252,739 254,741 255,743C262,750 270,754 281,754l39,2C337,758 349,759 358,759C387,759 401,750 401,731l0,-2l-10,-21C353,708 321,706 296,703C296,686 297,665 300,639C302,609 303,586 303,569l-2,-110C300,427 300,391 300,350C305,350 316,352 334,355C355,358 368,359 372,359l5,0l20,-24C397,314 379,303 342,303l-4,0l-39,1l2,-127C302,138 302,92 302,40C312,40 330,42 357,45C378,48 396,50 413,50C422,50 429,48 436,44C443,39 446,33 446,26C446,5 406,-6 327,-6l-15,0C305,-6 298,-8 291,-13C282,-18 276,-21 272,-21M252,345l1,33C253,387 254,409 255,445C256,479 256,518 256,563C256,596 256,617 255,626C218,501 193,404 178,336C209,338 234,341 252,345z"/>
<glyph unicode="&#x1FC;" horiz-adv-x="491" d="M250,1l1,0C256,63 259,104 259,124l-2,92C255,258 254,289 254,309C247,309 240,309 233,308C220,307 205,306 190,304C188,303 185,303 180,302C175,301 171,299 168,298l-49,-188C117,105 115,96 114,84C111,71 108,58 105,46C102,34 98,24 93,15C86,5 79,0 72,0C67,0 63,3 59,8C55,13 53,18 53,23C53,57 62,110 80,182C98,252 118,325 140,400l29,96C186,550 197,586 202,603C213,639 221,663 225,674C226,677 227,681 229,687C230,693 232,698 233,703C235,707 237,712 238,717C241,724 244,729 246,731C247,733 249,735 251,737C252,739 254,741 255,743C262,750 270,754 281,754l39,2C337,758 349,759 358,759C387,759 401,750 401,731l0,-2l-10,-21C353,708 321,706 296,703C296,686 297,665 300,639C302,609 303,586 303,569l-2,-110C300,427 300,391 300,350C305,350 316,352 334,355C355,358 368,359 372,359l5,0l20,-24C397,314 379,303 342,303l-4,0l-39,1l2,-127C302,138 302,92 302,40C312,40 330,42 357,45C378,48 396,50 413,50C422,50 429,48 436,44C443,39 446,33 446,26C446,5 406,-6 327,-6l-15,0C305,-6 298,-8 291,-13C282,-18 276,-21 272,-21M252,345l1,33C253,387 254,409 255,445C256,479 256,518 256,563C256,596 256,617 255,626C218,501 193,404 178,336C209,338 234,341 252,345M270,788C270,791 272,795 275,798l16,14C294,815 313,832 347,861l59,51C409,913 412,914 415,914C423,914 430,910 437,902C444,894 447,886 447,877C447,869 445,864 440,861C416,842 367,814 294,777C293,776 290,775 286,775C282,775 278,776 275,779C272,781 270,784 270,788z"/>
<glyph unicode="&#x1E2;" horiz-adv-x="491" d="M250,1l1,0C256,63 259,104 259,124l-2,92C255,258 254,289 254,309C247,309 240,309 233,308C220,307 205,306 190,304C188,303 185,303 180,302C175,301 171,299 168,298l-49,-188C117,105 115,96 114,84C111,71 108,58 105,46C102,34 98,24 93,15C86,5 79,0 72,0C67,0 63,3 59,8C55,13 53,18 53,23C53,57 62,110 80,182C98,252 118,325 140,400l29,96C186,550 197,586 202,603C213,639 221,663 225,674C226,677 227,681 229,687C230,693 232,698 233,703C235,707 237,712 238,717C241,724 244,729 246,731C247,733 249,735 251,737C252,739 254,741 255,743C262,750 270,754 281,754l39,2C337,758 349,759 358,759C387,759 401,750 401,731l0,-2l-10,-21C353,708 321,706 296,703C296,686 297,665 300,639C302,609 303,586 303,569l-2,-110C300,427 300,391 300,350C305,350 316,352 334,355C355,358 368,359 372,359l5,0l20,-24C397,314 379,303 342,303l-4,0l-39,1l2,-127C302,138 302,92 302,40C312,40 330,42 357,45C378,48 396,50 413,50C422,50 429,48 436,44C443,39 446,33 446,26C446,5 406,-6 327,-6l-15,0C305,-6 298,-8 291,-13C282,-18 276,-21 272,-21M252,345l1,33C253,387 254,409 255,445C256,479 256,518 256,563C256,596 256,617 255,626C218,501 193,404 178,336C209,338 234,341 252,345M159,834C159,841 161,846 166,850C170,854 175,856 182,856l147,0l30,2C368,859 379,859 390,859C422,859 438,849 438,830C438,823 436,817 431,813C426,809 419,807 410,807C387,807 352,806 305,804l-106,-2C172,802 159,813 159,834z"/>
<glyph unicode="B" horiz-adv-x="314" d="M61,17l2,123l2,123C65,308 64,375 62,466C60,556 59,624 59,669l0,6C59,692 61,708 64,723C68,741 79,750 96,750C143,750 180,735 207,705C234,675 248,635 248,586C248,556 240,525 224,492C208,459 189,435 167,419C206,393 234,360 253,319C271,278 280,232 280,183C280,160 272,131 256,96C237,55 210,25 177,7C157,-3 135,-8 111,-8l-4,0C76,-8 61,0 61,17M161,477C171,496 180,518 189,545C191,552 194,562 199,573l0,35C199,628 192,647 177,666C162,685 146,694 127,694C118,694 113,684 113,663C113,619 114,580 115,545l2,-111C134,438 149,452 161,477M228,180C228,211 226,239 221,265C216,290 209,310 201,323C194,336 186,346 179,355C172,364 165,369 160,372l-8,3l-36,0C119,298 121,188 121,44C154,49 180,64 199,89C218,114 228,145 228,180z"/>
<glyph unicode="&#x1E02;" horiz-adv-x="314" d="M61,17l2,123l2,123C65,308 64,375 62,466C60,556 59,624 59,669l0,6C59,692 61,708 64,723C68,741 79,750 96,750C143,750 180,735 207,705C234,675 248,635 248,586C248,556 240,525 224,492C208,459 189,435 167,419C206,393 234,360 253,319C271,278 280,232 280,183C280,160 272,131 256,96C237,55 210,25 177,7C157,-3 135,-8 111,-8l-4,0C76,-8 61,0 61,17M161,477C171,496 180,518 189,545C191,552 194,562 199,573l0,35C199,628 192,647 177,666C162,685 146,694 127,694C118,694 113,684 113,663C113,619 114,580 115,545l2,-111C134,438 149,452 161,477M228,180C228,211 226,239 221,265C216,290 209,310 201,323C194,336 186,346 179,355C172,364 165,369 160,372l-8,3l-36,0C119,298 121,188 121,44C154,49 180,64 199,89C218,114 228,145 228,180M97,835C97,845 101,854 108,862C115,869 124,873 134,873C143,873 152,869 159,862C166,854 170,845 170,836C170,825 166,817 159,810C151,803 141,799 130,799C121,799 114,803 107,810C100,817 97,826 97,835z"/>
<glyph unicode="C" horiz-adv-x="337" d="M106,32C96,46 87,64 79,86C71,107 65,130 61,153C53,192 48,244 45,308C44,323 44,350 44,387l0,63C45,468 45,487 45,506C45,545 47,576 52,599C50,609 49,619 49,630C49,670 64,702 94,727C124,752 162,764 208,764C225,764 241,759 256,750C271,741 278,729 278,715C278,708 275,703 270,699C265,695 258,693 250,693C243,693 236,694 229,696C221,698 216,701 214,705l-13,0l0,2C176,707 156,702 139,691C127,682 118,668 111,648C108,641 106,631 105,620C104,609 103,598 103,589C102,584 102,573 102,557l2,-35l1,-34C105,478 104,466 101,453C98,436 96,425 96,418l0,-24C96,368 97,332 99,287C100,249 104,211 112,173C118,138 129,108 146,83C162,58 184,45 211,45C222,45 236,51 253,63C271,75 284,81 291,81C300,81 310,76 320,66C320,41 311,22 292,9C275,-3 254,-11 230,-14C217,-15 206,-16 198,-16C179,-16 162,-12 147,-3C131,6 117,17 106,32z"/>
<glyph unicode="&#x106;" horiz-adv-x="337" d="M106,32C96,46 87,64 79,86C71,107 65,130 61,153C53,192 48,244 45,308C44,323 44,350 44,387l0,63C45,468 45,487 45,506C45,545 47,576 52,599C50,609 49,619 49,630C49,670 64,702 94,727C124,752 162,764 208,764C225,764 241,759 256,750C271,741 278,729 278,715C278,708 275,703 270,699C265,695 258,693 250,693C243,693 236,694 229,696C221,698 216,701 214,705l-13,0l0,2C176,707 156,702 139,691C127,682 118,668 111,648C108,641 106,631 105,620C104,609 103,598 103,589C102,584 102,573 102,557l2,-35l1,-34C105,478 104,466 101,453C98,436 96,425 96,418l0,-24C96,368 97,332 99,287C100,249 104,211 112,173C118,138 129,108 146,83C162,58 184,45 211,45C222,45 236,51 253,63C271,75 284,81 291,81C300,81 310,76 320,66C320,41 311,22 292,9C275,-3 254,-11 230,-14C217,-15 206,-16 198,-16C179,-16 162,-12 147,-3C131,6 117,17 106,32M140,788C140,791 142,795 145,798l16,14C164,815 183,832 217,861l59,51C279,913 282,914 285,914C293,914 300,910 307,902C314,894 317,886 317,877C317,869 315,864 310,861C286,842 237,814 164,777C163,776 160,775 156,775C152,775 148,776 145,779C142,781 140,784 140,788z"/>
<glyph unicode="&#x10C;" horiz-adv-x="337" d="M106,32C96,46 87,64 79,86C71,107 65,130 61,153C53,192 48,244 45,308C44,323 44,350 44,387l0,63C45,468 45,487 45,506C45,545 47,576 52,599C50,609 49,619 49,630C49,670 64,702 94,727C124,752 162,764 208,764C225,764 241,759 256,750C271,741 278,729 278,715C278,708 275,703 270,699C265,695 258,693 250,693C243,693 236,694 229,696C221,698 216,701 214,705l-13,0l0,2C176,707 156,702 139,691C127,682 118,668 111,648C108,641 106,631 105,620C104,609 103,598 103,589C102,584 102,573 102,557l2,-35l1,-34C105,478 104,466 101,453C98,436 96,425 96,418l0,-24C96,368 97,332 99,287C100,249 104,211 112,173C118,138 129,108 146,83C162,58 184,45 211,45C222,45 236,51 253,63C271,75 284,81 291,81C300,81 310,76 320,66C320,41 311,22 292,9C275,-3 254,-11 230,-14C217,-15 206,-16 198,-16C179,-16 162,-12 147,-3C131,6 117,17 106,32M93,972C93,977 96,982 101,986C106,990 111,992 117,992C124,992 133,982 142,963C149,948 157,923 167,889l13,-46C182,859 183,870 184,876C185,882 186,893 188,910C190,926 193,941 196,954C201,981 211,995 224,995C230,995 235,993 239,989C243,985 245,980 245,974C245,972 244,969 241,966l-4,-7l0,-18l-14,-55C214,847 209,824 209,815C209,794 201,783 184,783C176,783 165,796 150,822C135,847 122,876 111,907C99,938 93,960 93,972z"/>
<glyph unicode="&#xC7;" horiz-adv-x="337" d="M106,32C96,46 87,64 79,86C71,107 65,130 61,153C53,192 48,244 45,308C44,323 44,350 44,387l0,63C45,468 45,487 45,506C45,545 47,576 52,599C50,609 49,619 49,630C49,670 64,702 94,727C124,752 162,764 208,764C225,764 241,759 256,750C271,741 278,729 278,715C278,708 275,703 270,699C265,695 258,693 250,693C243,693 236,694 229,696C221,698 216,701 214,705l-13,0l0,2C176,707 156,702 139,691C127,682 118,668 111,648C108,641 106,631 105,620C104,609 103,598 103,589C102,584 102,573 102,557l2,-35l1,-34C105,478 104,466 101,453C98,436 96,425 96,418l0,-24C96,368 97,332 99,287C100,249 104,211 112,173C118,138 129,108 146,83C162,58 184,45 211,45C222,45 236,51 253,63C271,75 284,81 291,81C300,81 310,76 320,66C320,41 311,22 292,9C275,-3 254,-11 230,-14C217,-15 206,-16 198,-16C179,-16 162,-12 147,-3C131,6 117,17 106,32M134,-192C134,-185 138,-182 145,-182C148,-182 153,-184 161,-187C169,-190 174,-192 177,-192C188,-192 198,-185 205,-171C212,-158 216,-142 216,-123C216,-101 211,-86 201,-78l-13,-2l-14,-2C164,-82 155,-75 147,-62C152,-48 155,-29 155,-4l0,11l29,4C181,-9 180,-26 180,-40C229,-43 253,-76 253,-140C253,-151 250,-162 243,-174C236,-187 226,-197 214,-206C202,-215 190,-219 177,-219C166,-219 157,-216 148,-211C139,-206 134,-200 134,-192z"/>
<glyph unicode="&#x108;" horiz-adv-x="337" d="M106,32C96,46 87,64 79,86C71,107 65,130 61,153C53,192 48,244 45,308C44,323 44,350 44,387l0,63C45,468 45,487 45,506C45,545 47,576 52,599C50,609 49,619 49,630C49,670 64,702 94,727C124,752 162,764 208,764C225,764 241,759 256,750C271,741 278,729 278,715C278,708 275,703 270,699C265,695 258,693 250,693C243,693 236,694 229,696C221,698 216,701 214,705l-13,0l0,2C176,707 156,702 139,691C127,682 118,668 111,648C108,641 106,631 105,620C104,609 103,598 103,589C102,584 102,573 102,557l2,-35l1,-34C105,478 104,466 101,453C98,436 96,425 96,418l0,-24C96,368 97,332 99,287C100,249 104,211 112,173C118,138 129,108 146,83C162,58 184,45 211,45C222,45 236,51 253,63C271,75 284,81 291,81C300,81 310,76 320,66C320,41 311,22 292,9C275,-3 254,-11 230,-14C217,-15 206,-16 198,-16C179,-16 162,-12 147,-3C131,6 117,17 106,32M240,781l-39,135l-51,-128C148,783 143,781 136,781C129,781 124,783 119,787C114,790 111,795 111,801C111,805 112,808 113,810l35,88C151,903 155,912 160,925C165,938 169,946 172,951C179,963 187,971 195,975C200,976 205,977 209,977C214,977 219,974 223,968C232,953 241,931 248,900l13,-48C267,828 271,812 274,804C275,802 275,799 275,795C275,789 273,784 268,780C263,776 258,774 252,774C245,774 241,776 240,781z"/>
<glyph unicode="&#x10A;" horiz-adv-x="337" d="M106,32C96,46 87,64 79,86C71,107 65,130 61,153C53,192 48,244 45,308C44,323 44,350 44,387l0,63C45,468 45,487 45,506C45,545 47,576 52,599C50,609 49,619 49,630C49,670 64,702 94,727C124,752 162,764 208,764C225,764 241,759 256,750C271,741 278,729 278,715C278,708 275,703 270,699C265,695 258,693 250,693C243,693 236,694 229,696C221,698 216,701 214,705l-13,0l0,2C176,707 156,702 139,691C127,682 118,668 111,648C108,641 106,631 105,620C104,609 103,598 103,589C102,584 102,573 102,557l2,-35l1,-34C105,478 104,466 101,453C98,436 96,425 96,418l0,-24C96,368 97,332 99,287C100,249 104,211 112,173C118,138 129,108 146,83C162,58 184,45 211,45C222,45 236,51 253,63C271,75 284,81 291,81C300,81 310,76 320,66C320,41 311,22 292,9C275,-3 254,-11 230,-14C217,-15 206,-16 198,-16C179,-16 162,-12 147,-3C131,6 117,17 106,32M133,835C133,845 137,854 144,862C151,869 160,873 170,873C179,873 188,869 195,862C202,854 206,845 206,836C206,825 202,817 195,810C187,803 177,799 166,799C157,799 150,803 143,810C136,817 133,826 133,835z"/>
<glyph unicode="D" horiz-adv-x="379" d="M62,32C77,47 84,86 84,149C84,187 81,242 75,315C68,384 65,439 65,479l2,55C68,550 68,568 68,589C68,608 65,631 58,660C50,690 46,711 46,723C46,746 72,758 123,758l15,0C174,758 205,747 232,725C253,706 271,679 286,644C296,620 305,587 312,544C316,507 318,477 318,456l0,-32l0,-47C317,374 316,372 316,369C316,364 316,360 317,357C318,354 318,351 318,347C318,326 315,300 309,271C302,241 293,211 281,180C251,107 217,55 180,24C158,7 135,-2 111,-2C98,-2 86,1 77,7C67,13 62,21 62,32M240,219C258,284 267,350 267,417C267,453 264,492 257,535C250,576 234,614 210,647C199,663 184,676 167,685C150,694 130,698 108,698l0,-1C108,637 112,546 120,425C128,304 132,213 132,151l0,-95C157,71 178,94 197,123C216,152 230,184 240,219z"/>
<glyph unicode="&#x1F1;" horiz-adv-x="640" d="M62,32C77,47 84,86 84,149C84,187 81,242 75,315C68,384 65,439 65,479l2,55C68,550 68,568 68,589C68,608 65,631 58,660C50,690 46,711 46,723C46,746 72,758 123,758l15,0C174,758 205,747 232,725C253,706 271,679 286,644C296,620 305,587 312,544C316,507 318,477 318,456l0,-32l0,-47C317,374 316,372 316,369C316,364 316,360 317,357C318,354 318,351 318,347C318,326 315,300 309,271C302,241 293,211 281,180C251,107 217,55 180,24C158,7 135,-2 111,-2C98,-2 86,1 77,7C67,13 62,21 62,32M240,219C258,284 267,350 267,417C267,453 264,492 257,535C250,576 234,614 210,647C199,663 184,676 167,685C150,694 130,698 108,698l0,-1C108,637 112,546 120,425C128,304 132,213 132,151l0,-95C157,71 178,94 197,123C216,152 230,184 240,219M403,15C418,38 435,98 454,197C473,295 489,397 502,502C515,605 523,674 524,708l-36,-3C483,704 476,704 467,704C431,704 413,714 413,735l0,5l13,16l0,1C434,754 444,753 455,753C466,753 481,755 502,759C525,762 541,764 549,764C557,764 564,761 569,756C574,750 576,743 576,735C576,560 539,329 465,42l22,1C496,44 506,45 518,45C553,45 571,35 571,15l0,-5l-16,-15l-61,-2C475,-8 455,-9 432,-9C420,-9 410,-1 403,15z"/>
<glyph unicode="&#x1C4;" horiz-adv-x="640" d="M62,32C77,47 84,86 84,149C84,187 81,242 75,315C68,384 65,439 65,479l2,55C68,550 68,568 68,589C68,608 65,631 58,660C50,690 46,711 46,723C46,746 72,758 123,758l15,0C174,758 205,747 232,725C253,706 271,679 286,644C296,620 305,587 312,544C316,507 318,477 318,456l0,-32l0,-47C317,374 316,372 316,369C316,364 316,360 317,357C318,354 318,351 318,347C318,326 315,300 309,271C302,241 293,211 281,180C251,107 217,55 180,24C158,7 135,-2 111,-2C98,-2 86,1 77,7C67,13 62,21 62,32M240,219C258,284 267,350 267,417C267,453 264,492 257,535C250,576 234,614 210,647C199,663 184,676 167,685C150,694 130,698 108,698l0,-1C108,637 112,546 120,425C128,304 132,213 132,151l0,-95C157,71 178,94 197,123C216,152 230,184 240,219M403,15C418,38 435,98 454,197C473,295 489,397 502,502C515,605 523,674 524,708l-36,-3C483,704 476,704 467,704C431,704 413,714 413,735l0,5l13,16l0,1C434,754 444,753 455,753C466,753 481,755 502,759C525,762 541,764 549,764C557,764 564,761 569,756C574,750 576,743 576,735C576,560 539,329 465,42l22,1C496,44 506,45 518,45C553,45 571,35 571,15l0,-5l-16,-15l-61,-2C475,-8 455,-9 432,-9C420,-9 410,-1 403,15M433,972C433,977 436,982 441,986C446,990 451,992 457,992C464,992 473,982 482,963C489,948 497,923 507,889l13,-46C522,859 523,870 524,876C525,882 526,893 528,910C530,926 533,941 536,954C541,981 551,995 564,995C570,995 575,993 579,989C583,985 585,980 585,974C585,972 584,969 581,966l-4,-7l0,-18l-14,-55C554,847 549,824 549,815C549,794 541,783 524,783C516,783 505,796 490,822C475,847 462,876 451,907C439,938 433,960 433,972z"/>
<glyph unicode="&#xD0;" horiz-adv-x="421" d="M336,456l0,-32l0,-47C335,374 334,372 334,369C334,364 334,360 335,357C336,354 336,351 336,347C336,326 333,300 327,271C320,241 311,211 299,180C269,107 235,55 198,24C176,7 153,-2 129,-2C116,-2 104,1 95,7C85,13 80,21 80,32C95,47 102,86 102,149C102,187 99,242 93,315C92,326 90,342 89,363l-13,-1C53,361 39,360 34,360C25,360 18,363 11,369C4,374 1,381 1,389C1,397 9,404 25,410C38,415 58,420 85,423C84,452 83,471 83,479l2,55C86,550 86,568 86,589C86,608 83,631 76,660C68,690 64,711 64,723C64,746 90,758 141,758l15,0C175,758 192,755 209,749C225,743 239,735 250,725C271,706 289,679 304,644C314,620 323,587 330,544C334,507 336,477 336,456M285,417C285,453 282,492 275,535C268,575 252,612 229,647C218,663 203,676 186,685C168,694 148,698 126,698l0,-1C126,637 130,547 138,428l5,0C166,429 179,430 184,430C193,430 200,427 207,422C214,416 217,409 217,401C217,393 209,386 194,380C181,375 164,371 142,368C147,269 150,196 150,151l0,-95C175,71 196,94 215,123C234,152 248,184 258,219C276,284 285,350 285,417z"/>
<glyph unicode="&#x10E;" horiz-adv-x="379" d="M62,32C77,47 84,86 84,149C84,187 81,242 75,315C68,384 65,439 65,479l2,55C68,550 68,568 68,589C68,608 65,631 58,660C50,690 46,711 46,723C46,746 72,758 123,758l15,0C174,758 205,747 232,725C253,706 271,679 286,644C296,620 305,587 312,544C316,507 318,477 318,456l0,-32l0,-47C317,374 316,372 316,369C316,364 316,360 317,357C318,354 318,351 318,347C318,326 315,300 309,271C302,241 293,211 281,180C251,107 217,55 180,24C158,7 135,-2 111,-2C98,-2 86,1 77,7C67,13 62,21 62,32M240,219C258,284 267,350 267,417C267,453 264,492 257,535C250,576 234,614 210,647C199,663 184,676 167,685C150,694 130,698 108,698l0,-1C108,637 112,546 120,425C128,304 132,213 132,151l0,-95C157,71 178,94 197,123C216,152 230,184 240,219M85,972C85,977 88,982 93,986C98,990 103,992 109,992C116,992 125,982 134,963C141,948 149,923 159,889l13,-46C174,859 175,870 176,876C177,882 178,893 180,910C182,926 185,941 188,954C193,981 203,995 216,995C222,995 227,993 231,989C235,985 237,980 237,974C237,972 236,969 233,966l-4,-7l0,-18l-14,-55C206,847 201,824 201,815C201,794 193,783 176,783C168,783 157,796 142,822C127,847 114,876 103,907C91,938 85,960 85,972z"/>
<glyph unicode="&#x110;" horiz-adv-x="421" d="M336,456l0,-32l0,-47C335,374 334,372 334,369C334,364 334,360 335,357C336,354 336,351 336,347C336,326 333,300 327,271C320,241 311,211 299,180C269,107 235,55 198,24C176,7 153,-2 129,-2C116,-2 104,1 95,7C85,13 80,21 80,32C95,47 102,86 102,149C102,187 99,242 93,315C92,326 90,342 89,363l-13,-1C53,361 39,360 34,360C25,360 18,363 11,369C4,374 1,381 1,389C1,397 9,404 25,410C38,415 58,420 85,423C84,452 83,471 83,479l2,55C86,550 86,568 86,589C86,608 83,631 76,660C68,690 64,711 64,723C64,746 90,758 141,758l15,0C175,758 192,755 209,749C225,743 239,735 250,725C271,706 289,679 304,644C314,620 323,587 330,544C334,507 336,477 336,456M285,417C285,453 282,492 275,535C268,575 252,612 229,647C218,663 203,676 186,685C168,694 148,698 126,698l0,-1C126,637 130,547 138,428l5,0C166,429 179,430 184,430C193,430 200,427 207,422C214,416 217,409 217,401C217,393 209,386 194,380C181,375 164,371 142,368C147,269 150,196 150,151l0,-95C175,71 196,94 215,123C234,152 248,184 258,219C276,284 285,350 285,417z"/>
<glyph unicode="&#x1E0A;" horiz-adv-x="379" d="M62,32C77,47 84,86 84,149C84,187 81,242 75,315C68,384 65,439 65,479l2,55C68,550 68,568 68,589C68,608 65,631 58,660C50,690 46,711 46,723C46,746 72,758 123,758l15,0C174,758 205,747 232,725C253,706 271,679 286,644C296,620 305,587 312,544C316,507 318,477 318,456l0,-32l0,-47C317,374 316,372 316,369C316,364 316,360 317,357C318,354 318,351 318,347C318,326 315,300 309,271C302,241 293,211 281,180C251,107 217,55 180,24C158,7 135,-2 111,-2C98,-2 86,1 77,7C67,13 62,21 62,32M240,219C258,284 267,350 267,417C267,453 264,492 257,535C250,576 234,614 210,647C199,663 184,676 167,685C150,694 130,698 108,698l0,-1C108,637 112,546 120,425C128,304 132,213 132,151l0,-95C157,71 178,94 197,123C216,152 230,184 240,219M125,835C125,845 129,854 136,862C143,869 152,873 162,873C171,873 180,869 187,862C194,854 198,845 198,836C198,825 194,817 187,810C179,803 169,799 158,799C149,799 142,803 135,810C128,817 125,826 125,835z"/>
<glyph unicode="&#x1F2;" horiz-adv-x="671" d="M62,32C77,47 84,86 84,149C84,187 81,242 75,315C68,384 65,439 65,479l2,55C68,550 68,568 68,589C68,608 65,631 58,660C50,690 46,711 46,723C46,746 72,758 123,758l15,0C174,758 205,747 232,725C253,706 271,679 286,644C296,620 305,587 312,544C316,507 318,477 318,456l0,-32l0,-47C317,374 316,372 316,369C316,364 316,360 317,357C318,354 318,351 318,347C318,326 315,300 309,271C302,241 293,211 281,180C251,107 217,55 180,24C158,7 135,-2 111,-2C98,-2 86,1 77,7C67,13 62,21 62,32M240,219C258,284 267,350 267,417C267,453 264,492 257,535C250,576 234,614 210,647C199,663 184,676 167,685C150,694 130,698 108,698l0,-1C108,637 112,546 120,425C128,304 132,213 132,151l0,-95C157,71 178,94 197,123C216,152 230,184 240,219M428,21C428,61 436,114 452,179C467,244 490,325 520,421C550,520 569,584 576,613C568,613 555,612 537,610C519,608 505,607 494,607C487,607 481,610 476,616C471,621 468,628 468,635C468,654 505,664 578,664C611,664 628,655 628,636C628,615 621,583 606,541C592,504 583,475 580,456C573,409 556,331 528,224l-44,-173l18,0l21,2C529,54 536,54 544,54l0,1C571,55 584,47 584,30C584,23 581,17 574,13C567,8 559,6 549,6C538,6 529,6 520,7l-30,2C486,9 480,7 473,3C464,0 458,-2 455,-2C448,-2 441,0 436,5C431,9 428,14 428,21z"/>
<glyph unicode="&#x1C5;" horiz-adv-x="671" d="M62,32C77,47 84,86 84,149C84,187 81,242 75,315C68,384 65,439 65,479l2,55C68,550 68,568 68,589C68,608 65,631 58,660C50,690 46,711 46,723C46,746 72,758 123,758l15,0C174,758 205,747 232,725C253,706 271,679 286,644C296,620 305,587 312,544C316,507 318,477 318,456l0,-32l0,-47C317,374 316,372 316,369C316,364 316,360 317,357C318,354 318,351 318,347C318,326 315,300 309,271C302,241 293,211 281,180C251,107 217,55 180,24C158,7 135,-2 111,-2C98,-2 86,1 77,7C67,13 62,21 62,32M240,219C258,284 267,350 267,417C267,453 264,492 257,535C250,576 234,614 210,647C199,663 184,676 167,685C150,694 130,698 108,698l0,-1C108,637 112,546 120,425C128,304 132,213 132,151l0,-95C157,71 178,94 197,123C216,152 230,184 240,219M428,21C428,61 436,114 452,179C467,244 490,325 520,421C550,520 569,584 576,613C568,613 555,612 537,610C519,608 505,607 494,607C487,607 481,610 476,616C471,621 468,628 468,635C468,654 505,664 578,664C611,664 628,655 628,636C628,615 621,583 606,541C592,504 583,475 580,456C573,409 556,331 528,224l-44,-173l18,0l21,2C529,54 536,54 544,54l0,1C571,55 584,47 584,30C584,23 581,17 574,13C567,8 559,6 549,6C538,6 529,6 520,7l-30,2C486,9 480,7 473,3C464,0 458,-2 455,-2C448,-2 441,0 436,5C431,9 428,14 428,21M479,881C479,886 482,891 487,895C492,899 497,901 503,901C510,901 519,891 528,872C535,857 543,832 553,798l13,-46C568,768 569,779 570,785C571,791 572,802 574,819C576,835 579,850 582,863C587,890 597,904 610,904C616,904 621,902 625,898C629,894 631,889 631,883C631,881 630,878 627,875l-4,-7l0,-18l-14,-55C600,756 595,733 595,724C595,703 587,692 570,692C562,692 551,705 536,731C521,756 508,785 497,816C485,847 479,869 479,881z"/>
<glyph unicode="E" horiz-adv-x="278" d="M84,-1C73,2 67,12 67,27l0,581C67,619 65,636 61,659C56,680 54,697 54,710l0,3C65,732 74,744 79,749C88,749 101,750 116,753C130,756 142,757 153,757C164,757 174,754 184,748C194,741 199,734 199,725C199,705 184,695 153,695l-14,0C135,696 130,696 125,696C119,696 115,696 114,695C114,672 115,645 118,613l2,-28l2,-55C122,517 121,498 119,472l-2,-56l14,3C144,423 155,425 164,425C171,425 178,422 184,417C190,411 193,404 193,397C193,389 191,382 186,376C181,369 174,366 167,366l-12,1l-13,0C132,367 125,365 121,360l0,-309l56,3C215,54 234,45 234,28l0,-4C230,16 223,10 212,5C201,0 191,-4 181,-5l-33,-1l-31,0C104,-6 93,-4 84,-1z"/>
<glyph unicode="&#xC9;" horiz-adv-x="278" d="M84,-1C73,2 67,12 67,27l0,581C67,619 65,636 61,659C56,680 54,697 54,710l0,3C65,732 74,744 79,749C88,749 101,750 116,753C130,756 142,757 153,757C164,757 174,754 184,748C194,741 199,734 199,725C199,705 184,695 153,695l-14,0C135,696 130,696 125,696C119,696 115,696 114,695C114,672 115,645 118,613l2,-28l2,-55C122,517 121,498 119,472l-2,-56l14,3C144,423 155,425 164,425C171,425 178,422 184,417C190,411 193,404 193,397C193,389 191,382 186,376C181,369 174,366 167,366l-12,1l-13,0C132,367 125,365 121,360l0,-309l56,3C215,54 234,45 234,28l0,-4C230,16 223,10 212,5C201,0 191,-4 181,-5l-33,-1l-31,0C104,-6 93,-4 84,-1M91,802C91,805 93,809 96,812l16,14C115,829 134,846 168,875l59,51C230,927 233,928 236,928C244,928 251,924 258,916C265,908 268,900 268,891C268,883 266,878 261,875C237,856 188,828 115,791C114,790 111,789 107,789C103,789 99,790 96,793C93,795 91,798 91,802z"/>
<glyph unicode="&#x114;" horiz-adv-x="278" d="M84,-1C73,2 67,12 67,27l0,581C67,619 65,636 61,659C56,680 54,697 54,710l0,3C65,732 74,744 79,749C88,749 101,750 116,753C130,756 142,757 153,757C164,757 174,754 184,748C194,741 199,734 199,725C199,705 184,695 153,695l-14,0C135,696 130,696 125,696C119,696 115,696 114,695C114,672 115,645 118,613l2,-28l2,-55C122,517 121,498 119,472l-2,-56l14,3C144,423 155,425 164,425C171,425 178,422 184,417C190,411 193,404 193,397C193,389 191,382 186,376C181,369 174,366 167,366l-12,1l-13,0C132,367 125,365 121,360l0,-309l56,3C215,54 234,45 234,28l0,-4C230,16 223,10 212,5C201,0 191,-4 181,-5l-33,-1l-31,0C104,-6 93,-4 84,-1M77,845C65,868 59,895 59,924C59,928 61,932 65,935C68,938 73,939 78,939C85,939 92,935 98,926C104,917 109,907 112,895C115,883 120,873 125,864C130,855 136,851 141,851C152,851 160,856 166,866C172,876 175,886 175,897C175,910 177,920 181,926C185,932 192,935 203,935C210,935 217,933 222,928C227,923 230,917 230,910C230,901 229,893 228,885C223,861 213,842 199,827C185,812 167,805 144,805C129,805 115,809 104,816C92,823 83,832 77,845z"/>
<glyph unicode="&#x11A;" horiz-adv-x="278" d="M84,-1C73,2 67,12 67,27l0,581C67,619 65,636 61,659C56,680 54,697 54,710l0,3C65,732 74,744 79,749C88,749 101,750 116,753C130,756 142,757 153,757C164,757 174,754 184,748C194,741 199,734 199,725C199,705 184,695 153,695l-14,0C135,696 130,696 125,696C119,696 115,696 114,695C114,672 115,645 118,613l2,-28l2,-55C122,517 121,498 119,472l-2,-56l14,3C144,423 155,425 164,425C171,425 178,422 184,417C190,411 193,404 193,397C193,389 191,382 186,376C181,369 174,366 167,366l-12,1l-13,0C132,367 125,365 121,360l0,-309l56,3C215,54 234,45 234,28l0,-4C230,16 223,10 212,5C201,0 191,-4 181,-5l-33,-1l-31,0C104,-6 93,-4 84,-1M44,986C44,991 47,996 52,1000C57,1004 62,1006 68,1006C75,1006 84,996 93,977C100,962 108,937 118,903l13,-46C133,873 134,884 135,890C136,896 137,907 139,924C141,940 144,955 147,968C152,995 162,1009 175,1009C181,1009 186,1007 190,1003C194,999 196,994 196,988C196,986 195,983 192,980l-4,-7l0,-18l-14,-55C165,861 160,838 160,829C160,808 152,797 135,797C127,797 116,810 101,836C86,861 73,890 62,921C50,952 44,974 44,986z"/>
<glyph unicode="&#x228;" horiz-adv-x="278" d="M84,-1C73,2 67,12 67,27l0,581C67,619 65,636 61,659C56,680 54,697 54,710l0,3C65,732 74,744 79,749C88,749 101,750 116,753C130,756 142,757 153,757C164,757 174,754 184,748C194,741 199,734 199,725C199,705 184,695 153,695l-14,0C135,696 130,696 125,696C119,696 115,696 114,695C114,672 115,645 118,613l2,-28l2,-55C122,517 121,498 119,472l-2,-56l14,3C144,423 155,425 164,425C171,425 178,422 184,417C190,411 193,404 193,397C193,389 191,382 186,376C181,369 174,366 167,366l-12,1l-13,0C132,367 125,365 121,360l0,-309l56,3C215,54 234,45 234,28l0,-4C230,16 223,10 212,5C201,0 191,-4 181,-5l-33,-1l-31,0C104,-6 93,-4 84,-1M104,-192C104,-185 108,-182 115,-182C118,-182 123,-184 131,-187C139,-190 144,-192 147,-192C158,-192 168,-185 175,-171C182,-158 186,-142 186,-123C186,-101 181,-86 171,-78l-13,-2l-14,-2C134,-82 125,-75 117,-62C122,-48 125,-29 125,-4l0,11l29,4C151,-9 150,-26 150,-40C199,-43 223,-76 223,-140C223,-151 220,-162 213,-174C206,-187 196,-197 184,-206C172,-215 160,-219 147,-219C136,-219 127,-216 118,-211C109,-206 104,-200 104,-192z"/>
<glyph unicode="&#xCA;" horiz-adv-x="278" d="M84,-1C73,2 67,12 67,27l0,581C67,619 65,636 61,659C56,680 54,697 54,710l0,3C65,732 74,744 79,749C88,749 101,750 116,753C130,756 142,757 153,757C164,757 174,754 184,748C194,741 199,734 199,725C199,705 184,695 153,695l-14,0C135,696 130,696 125,696C119,696 115,696 114,695C114,672 115,645 118,613l2,-28l2,-55C122,517 121,498 119,472l-2,-56l14,3C144,423 155,425 164,425C171,425 178,422 184,417C190,411 193,404 193,397C193,389 191,382 186,376C181,369 174,366 167,366l-12,1l-13,0C132,367 125,365 121,360l0,-309l56,3C215,54 234,45 234,28l0,-4C230,16 223,10 212,5C201,0 191,-4 181,-5l-33,-1l-31,0C104,-6 93,-4 84,-1M191,795l-39,135l-51,-128C99,797 94,795 87,795C80,795 75,797 70,801C65,804 62,809 62,815C62,819 63,822 64,824l35,88C102,917 106,926 111,939C116,952 120,960 123,965C130,977 138,985 146,989C151,990 156,991 160,991C165,991 170,988 174,982C183,967 192,945 199,914l13,-48C218,842 222,826 225,818C226,816 226,813 226,809C226,803 224,798 219,794C214,790 209,788 203,788C196,788 192,790 191,795z"/>
<glyph unicode="&#x1EBE;" horiz-adv-x="278" d="M84,-1C73,2 67,12 67,27l0,581C67,619 65,636 61,659C56,680 54,697 54,710l0,3C65,732 74,744 79,749C88,749 101,750 116,753C130,756 142,757 153,757C164,757 174,754 184,748C194,741 199,734 199,725C199,705 184,695 153,695l-14,0C135,696 130,696 125,696C119,696 115,696 114,695C114,672 115,645 118,613l2,-28l2,-55C122,517 121,498 119,472l-2,-56l14,3C144,423 155,425 164,425C171,425 178,422 184,417C190,411 193,404 193,397C193,389 191,382 186,376C181,369 174,366 167,366l-12,1l-13,0C132,367 125,365 121,360l0,-309l56,3C215,54 234,45 234,28l0,-4C230,16 223,10 212,5C201,0 191,-4 181,-5l-33,-1l-31,0C104,-6 93,-4 84,-1M166,790l-39,135l-51,-128C74,792 69,790 62,790C55,790 50,792 45,796C40,799 37,804 37,810C37,814 38,817 39,819l35,88C77,912 81,921 86,934C91,947 95,955 98,960C105,972 113,980 121,984C126,985 131,986 135,986C140,986 145,983 149,977C158,962 167,940 174,909l13,-48C193,837 197,821 200,813C201,811 201,808 201,804C201,798 199,793 194,789C189,785 184,783 178,783C171,783 167,785 166,790M190,904C190,907 192,911 195,914l16,14C214,931 233,948 267,977l59,51C329,1029 332,1030 335,1030C343,1030 350,1026 357,1018C364,1010 367,1002 367,993C367,985 365,980 360,977C336,958 287,930 214,893C213,892 210,891 206,891C202,891 198,892 195,895C192,897 190,900 190,904z"/>
<glyph unicode="&#x1EC6;" horiz-adv-x="278" d="M84,-1C73,2 67,12 67,27l0,581C67,619 65,636 61,659C56,680 54,697 54,710l0,3C65,732 74,744 79,749C88,749 101,750 116,753C130,756 142,757 153,757C164,757 174,754 184,748C194,741 199,734 199,725C199,705 184,695 153,695l-14,0C135,696 130,696 125,696C119,696 115,696 114,695C114,672 115,645 118,613l2,-28l2,-55C122,517 121,498 119,472l-2,-56l14,3C144,423 155,425 164,425C171,425 178,422 184,417C190,411 193,404 193,397C193,389 191,382 186,376C181,369 174,366 167,366l-12,1l-13,0C132,367 125,365 121,360l0,-309l56,3C215,54 234,45 234,28l0,-4C230,16 223,10 212,5C201,0 191,-4 181,-5l-33,-1l-31,0C104,-6 93,-4 84,-1M191,795l-39,135l-51,-128C99,797 94,795 87,795C80,795 75,797 70,801C65,804 62,809 62,815C62,819 63,822 64,824l35,88C102,917 106,926 111,939C116,952 120,960 123,965C130,977 138,985 146,989C151,990 156,991 160,991C165,991 170,988 174,982C183,967 192,945 199,914l13,-48C218,842 222,826 225,818C226,816 226,813 226,809C226,803 224,798 219,794C214,790 209,788 203,788C196,788 192,790 191,795M102,-132C102,-122 106,-113 114,-105C121,-98 130,-94 140,-94C149,-94 158,-98 165,-105C172,-113 175,-122 175,-132C175,-143 171,-151 164,-158C157,-165 147,-168 136,-168C127,-168 120,-164 113,-157C106,-150 102,-141 102,-132z"/>
<glyph unicode="&#x1EC0;" horiz-adv-x="278" d="M84,-1C73,2 67,12 67,27l0,581C67,619 65,636 61,659C56,680 54,697 54,710l0,3C65,732 74,744 79,749C88,749 101,750 116,753C130,756 142,757 153,757C164,757 174,754 184,748C194,741 199,734 199,725C199,705 184,695 153,695l-14,0C135,696 130,696 125,696C119,696 115,696 114,695C114,672 115,645 118,613l2,-28l2,-55C122,517 121,498 119,472l-2,-56l14,3C144,423 155,425 164,425C171,425 178,422 184,417C190,411 193,404 193,397C193,389 191,382 186,376C181,369 174,366 167,366l-12,1l-13,0C132,367 125,365 121,360l0,-309l56,3C215,54 234,45 234,28l0,-4C230,16 223,10 212,5C201,0 191,-4 181,-5l-33,-1l-31,0C104,-6 93,-4 84,-1M168,790l-39,135l-51,-128C76,792 71,790 64,790C57,790 52,792 47,796C42,799 39,804 39,810C39,814 40,817 41,819l35,88C79,912 83,921 88,934C93,947 97,955 100,960C107,972 115,980 123,984C128,985 133,986 137,986C142,986 147,983 151,977C160,962 169,940 176,909l13,-48C195,837 199,821 202,813C203,811 203,808 203,804C203,798 201,793 196,789C191,785 186,783 180,783C173,783 169,785 168,790M-110,995C-107,1002 -101,1009 -91,1015C-81,1021 -73,1023 -66,1020C-63,1019 -50,1007 -29,985C-8,962 11,940 28,918C45,895 52,882 50,877C48,872 45,871 41,873C34,875 18,886 -8,905C-35,924 -59,943 -80,962C-102,980 -112,991 -110,995z"/>
<glyph unicode="&#x1EC2;" horiz-adv-x="278" d="M84,-1C73,2 67,12 67,27l0,581C67,619 65,636 61,659C56,680 54,697 54,710l0,3C65,732 74,744 79,749C88,749 101,750 116,753C130,756 142,757 153,757C164,757 174,754 184,748C194,741 199,734 199,725C199,705 184,695 153,695l-14,0C135,696 130,696 125,696C119,696 115,696 114,695C114,672 115,645 118,613l2,-28l2,-55C122,517 121,498 119,472l-2,-56l14,3C144,423 155,425 164,425C171,425 178,422 184,417C190,411 193,404 193,397C193,389 191,382 186,376C181,369 174,366 167,366l-12,1l-13,0C132,367 125,365 121,360l0,-309l56,3C215,54 234,45 234,28l0,-4C230,16 223,10 212,5C201,0 191,-4 181,-5l-33,-1l-31,0C104,-6 93,-4 84,-1M176,790l-39,135l-51,-128C84,792 79,790 72,790C65,790 60,792 55,796C50,799 47,804 47,810C47,814 48,817 49,819l35,88C87,912 91,921 96,934C101,947 105,955 108,960C115,972 123,980 131,984C136,985 141,986 145,986C150,986 155,983 159,977C168,962 177,940 184,909l13,-48C203,837 207,821 210,813C211,811 211,808 211,804C211,798 209,793 204,789C199,785 194,783 188,783C181,783 177,785 176,790M254,899C254,920 259,935 269,943C279,950 293,956 310,959C320,961 327,963 332,966C337,968 339,972 339,977C339,987 334,995 325,1002C316,1009 302,1012 285,1012C270,1012 258,1009 249,1004C240,999 236,992 236,983C236,982 238,979 242,973C242,972 239,968 232,962C225,956 220,953 215,953C206,953 200,955 195,960C190,965 187,970 187,975l0,9C187,1007 195,1024 212,1037C228,1049 252,1055 283,1055C325,1055 354,1047 369,1032C384,1016 391,998 391,977C391,959 386,947 377,941C367,934 353,929 335,924C324,922 315,920 310,917C305,914 302,910 302,904l0,-18C289,886 283,886 282,885C279,884 278,883 277,883C266,883 258,888 254,899z"/>
<glyph unicode="&#x1EC4;" horiz-adv-x="278" d="M84,-1C73,2 67,12 67,27l0,581C67,619 65,636 61,659C56,680 54,697 54,710l0,3C65,732 74,744 79,749C88,749 101,750 116,753C130,756 142,757 153,757C164,757 174,754 184,748C194,741 199,734 199,725C199,705 184,695 153,695l-14,0C135,696 130,696 125,696C119,696 115,696 114,695C114,672 115,645 118,613l2,-28l2,-55C122,517 121,498 119,472l-2,-56l14,3C144,423 155,425 164,425C171,425 178,422 184,417C190,411 193,404 193,397C193,389 191,382 186,376C181,369 174,366 167,366l-12,1l-13,0C132,367 125,365 121,360l0,-309l56,3C215,54 234,45 234,28l0,-4C230,16 223,10 212,5C201,0 191,-4 181,-5l-33,-1l-31,0C104,-6 93,-4 84,-1M191,795l-39,135l-51,-128C99,797 94,795 87,795C80,795 75,797 70,801C65,804 62,809 62,815C62,819 63,822 64,824l35,88C102,917 106,926 111,939C116,952 120,960 123,965C130,977 138,985 146,989C151,990 156,991 160,991C165,991 170,988 174,982C183,967 192,945 199,914l13,-48C218,842 222,826 225,818C226,816 226,813 226,809C226,803 224,798 219,794C214,790 209,788 203,788C196,788 192,790 191,795M128,1033C123,1039 118,1044 111,1048C104,1052 97,1054 89,1054C84,1052 81,1049 79,1046C77,1043 77,1039 78,1035l0,-2C78,1024 73,1018 63,1015C52,1015 44,1018 37,1023C30,1028 27,1035 27,1044C27,1061 34,1075 47,1086C60,1097 78,1102 100,1102C107,1102 122,1095 143,1082C164,1069 178,1062 184,1062C190,1062 195,1064 199,1068C202,1072 204,1077 205,1082C206,1087 209,1092 213,1096C216,1100 221,1102 227,1102C238,1102 246,1100 252,1095C257,1090 260,1083 260,1076C260,1059 254,1044 241,1031C228,1018 213,1011 196,1011C179,1011 165,1013 153,1018C141,1022 133,1027 128,1033z"/>
<glyph unicode="&#x204;" horiz-adv-x="278" d="M84,-1C73,2 67,12 67,27l0,581C67,619 65,636 61,659C56,680 54,697 54,710l0,3C65,732 74,744 79,749C88,749 101,750 116,753C130,756 142,757 153,757C164,757 174,754 184,748C194,741 199,734 199,725C199,705 184,695 153,695l-14,0C135,696 130,696 125,696C119,696 115,696 114,695C114,672 115,645 118,613l2,-28l2,-55C122,517 121,498 119,472l-2,-56l14,3C144,423 155,425 164,425C171,425 178,422 184,417C190,411 193,404 193,397C193,389 191,382 186,376C181,369 174,366 167,366l-12,1l-13,0C132,367 125,365 121,360l0,-309l56,3C215,54 234,45 234,28l0,-4C230,16 223,10 212,5C201,0 191,-4 181,-5l-33,-1l-31,0C104,-6 93,-4 84,-1M-15,943l-9,16C-22,966 -18,973 -13,978C-8,983 -2,985 5,985C10,985 25,972 49,946C74,918 97,890 118,862C139,834 149,817 149,810C149,802 146,798 139,798C38,893 -14,941 -15,943M160,901C141,926 131,945 131,956C131,959 134,963 140,966C145,969 151,970 156,970C161,970 172,958 190,933C207,908 224,882 240,855C256,827 264,809 265,801l-7,-11C223,824 190,861 160,901z"/>
<glyph unicode="&#xCB;" horiz-adv-x="278" d="M84,-1C73,2 67,12 67,27l0,581C67,619 65,636 61,659C56,680 54,697 54,710l0,3C65,732 74,744 79,749C88,749 101,750 116,753C130,756 142,757 153,757C164,757 174,754 184,748C194,741 199,734 199,725C199,705 184,695 153,695l-14,0C135,696 130,696 125,696C119,696 115,696 114,695C114,672 115,645 118,613l2,-28l2,-55C122,517 121,498 119,472l-2,-56l14,3C144,423 155,425 164,425C171,425 178,422 184,417C190,411 193,404 193,397C193,389 191,382 186,376C181,369 174,366 167,366l-12,1l-13,0C132,367 125,365 121,360l0,-309l56,3C215,54 234,45 234,28l0,-4C230,16 223,10 212,5C201,0 191,-4 181,-5l-33,-1l-31,0C104,-6 93,-4 84,-1M27,834C27,844 31,853 39,861C46,868 55,872 65,872C74,872 83,868 90,861C97,853 100,844 100,835C100,824 96,816 89,809C82,802 72,798 61,798C52,798 45,802 38,809C31,816 27,825 27,834M188,829C188,839 192,848 200,856C207,863 216,867 226,867C235,867 244,863 251,856C258,848 262,839 262,830C262,819 258,811 251,804C243,797 233,793 222,793C213,793 206,797 199,804C192,811 188,820 188,829z"/>
<glyph unicode="&#x116;" horiz-adv-x="278" d="M84,-1C73,2 67,12 67,27l0,581C67,619 65,636 61,659C56,680 54,697 54,710l0,3C65,732 74,744 79,749C88,749 101,750 116,753C130,756 142,757 153,757C164,757 174,754 184,748C194,741 199,734 199,725C199,705 184,695 153,695l-14,0C135,696 130,696 125,696C119,696 115,696 114,695C114,672 115,645 118,613l2,-28l2,-55C122,517 121,498 119,472l-2,-56l14,3C144,423 155,425 164,425C171,425 178,422 184,417C190,411 193,404 193,397C193,389 191,382 186,376C181,369 174,366 167,366l-12,1l-13,0C132,367 125,365 121,360l0,-309l56,3C215,54 234,45 234,28l0,-4C230,16 223,10 212,5C201,0 191,-4 181,-5l-33,-1l-31,0C104,-6 93,-4 84,-1M84,849C84,859 88,868 95,876C102,883 111,887 121,887C130,887 139,883 146,876C153,868 157,859 157,850C157,839 153,831 146,824C138,817 128,813 117,813C108,813 101,817 94,824C87,831 84,840 84,849z"/>
<glyph unicode="&#x1EB8;" horiz-adv-x="278" d="M84,-1C73,2 67,12 67,27l0,581C67,619 65,636 61,659C56,680 54,697 54,710l0,3C65,732 74,744 79,749C88,749 101,750 116,753C130,756 142,757 153,757C164,757 174,754 184,748C194,741 199,734 199,725C199,705 184,695 153,695l-14,0C135,696 130,696 125,696C119,696 115,696 114,695C114,672 115,645 118,613l2,-28l2,-55C122,517 121,498 119,472l-2,-56l14,3C144,423 155,425 164,425C171,425 178,422 184,417C190,411 193,404 193,397C193,389 191,382 186,376C181,369 174,366 167,366l-12,1l-13,0C132,367 125,365 121,360l0,-309l56,3C215,54 234,45 234,28l0,-4C230,16 223,10 212,5C201,0 191,-4 181,-5l-33,-1l-31,0C104,-6 93,-4 84,-1M102,-132C102,-122 106,-113 114,-105C121,-98 130,-94 140,-94C149,-94 158,-98 165,-105C172,-113 175,-122 175,-132C175,-143 171,-151 164,-158C157,-165 147,-168 136,-168C127,-168 120,-164 113,-157C106,-150 102,-141 102,-132z"/>
<glyph unicode="&#xC8;" horiz-adv-x="278" d="M84,-1C73,2 67,12 67,27l0,581C67,619 65,636 61,659C56,680 54,697 54,710l0,3C65,732 74,744 79,749C88,749 101,750 116,753C130,756 142,757 153,757C164,757 174,754 184,748C194,741 199,734 199,725C199,705 184,695 153,695l-14,0C135,696 130,696 125,696C119,696 115,696 114,695C114,672 115,645 118,613l2,-28l2,-55C122,517 121,498 119,472l-2,-56l14,3C144,423 155,425 164,425C171,425 178,422 184,417C190,411 193,404 193,397C193,389 191,382 186,376C181,369 174,366 167,366l-12,1l-13,0C132,367 125,365 121,360l0,-309l56,3C215,54 234,45 234,28l0,-4C230,16 223,10 212,5C201,0 191,-4 181,-5l-33,-1l-31,0C104,-6 93,-4 84,-1M-20,856C-20,864 -16,873 -9,882C-2,891 6,895 13,895C17,895 33,888 60,874C87,860 113,846 136,831C159,816 171,805 171,800C171,795 169,793 164,793C157,793 138,798 107,807C76,816 47,825 20,835C-7,845 -20,852 -20,856z"/>
<glyph unicode="&#x1EBA;" horiz-adv-x="278" d="M84,-1C73,2 67,12 67,27l0,581C67,619 65,636 61,659C56,680 54,697 54,710l0,3C65,732 74,744 79,749C88,749 101,750 116,753C130,756 142,757 153,757C164,757 174,754 184,748C194,741 199,734 199,725C199,705 184,695 153,695l-14,0C135,696 130,696 125,696C119,696 115,696 114,695C114,672 115,645 118,613l2,-28l2,-55C122,517 121,498 119,472l-2,-56l14,3C144,423 155,425 164,425C171,425 178,422 184,417C190,411 193,404 193,397C193,389 191,382 186,376C181,369 174,366 167,366l-12,1l-13,0C132,367 125,365 121,360l0,-309l56,3C215,54 234,45 234,28l0,-4C230,16 223,10 212,5C201,0 191,-4 181,-5l-33,-1l-31,0C104,-6 93,-4 84,-1M99,810C99,831 104,846 114,854C124,861 138,867 155,870C165,872 172,874 177,877C182,879 184,883 184,888C184,898 179,906 170,913C161,920 147,923 130,923C115,923 103,920 94,915C85,910 81,903 81,894C81,893 83,890 87,884C87,883 84,879 77,873C70,867 65,864 60,864C51,864 45,866 40,871C35,876 32,881 32,886l0,9C32,918 40,935 57,948C73,960 97,966 128,966C170,966 199,958 214,943C229,927 236,909 236,888C236,870 231,858 222,852C212,845 198,840 180,835C169,833 160,831 155,828C150,825 147,821 147,815l0,-18C134,797 128,797 127,796C124,795 123,794 122,794C111,794 103,799 99,810z"/>
<glyph unicode="&#x206;" horiz-adv-x="278" d="M84,-1C73,2 67,12 67,27l0,581C67,619 65,636 61,659C56,680 54,697 54,710l0,3C65,732 74,744 79,749C88,749 101,750 116,753C130,756 142,757 153,757C164,757 174,754 184,748C194,741 199,734 199,725C199,705 184,695 153,695l-14,0C135,696 130,696 125,696C119,696 115,696 114,695C114,672 115,645 118,613l2,-28l2,-55C122,517 121,498 119,472l-2,-56l14,3C144,423 155,425 164,425C171,425 178,422 184,417C190,411 193,404 193,397C193,389 191,382 186,376C181,369 174,366 167,366l-12,1l-13,0C132,367 125,365 121,360l0,-309l56,3C215,54 234,45 234,28l0,-4C230,16 223,10 212,5C201,0 191,-4 181,-5l-33,-1l-31,0C104,-6 93,-4 84,-1M34,803C34,832 40,858 52,882C58,894 67,904 79,911C90,918 104,921 119,921C132,921 142,919 151,916C159,913 166,907 172,899C179,890 184,883 187,876C190,869 194,860 199,849l2,-4l2,-4l-2,-4C201,834 201,833 200,833l5,-16C205,810 202,804 197,799C192,794 185,791 178,791C167,791 160,794 156,800C152,806 150,816 150,829C150,837 148,847 143,858C138,869 132,875 127,875l-21,0C96,868 88,851 82,824C80,813 77,805 72,798C67,791 60,787 53,787z"/>
<glyph unicode="&#x112;" horiz-adv-x="278" d="M84,-1C73,2 67,12 67,27l0,581C67,619 65,636 61,659C56,680 54,697 54,710l0,3C65,732 74,744 79,749C88,749 101,750 116,753C130,756 142,757 153,757C164,757 174,754 184,748C194,741 199,734 199,725C199,705 184,695 153,695l-14,0C135,696 130,696 125,696C119,696 115,696 114,695C114,672 115,645 118,613l2,-28l2,-55C122,517 121,498 119,472l-2,-56l14,3C144,423 155,425 164,425C171,425 178,422 184,417C190,411 193,404 193,397C193,389 191,382 186,376C181,369 174,366 167,366l-12,1l-13,0C132,367 125,365 121,360l0,-309l56,3C215,54 234,45 234,28l0,-4C230,16 223,10 212,5C201,0 191,-4 181,-5l-33,-1l-31,0C104,-6 93,-4 84,-1M-20,848C-20,855 -18,860 -13,864C-9,868 -4,870 3,870l147,0l30,2C189,873 200,873 211,873C243,873 259,863 259,844C259,837 257,831 252,827C247,823 240,821 231,821C208,821 173,820 126,818l-106,-2C-7,816 -20,827 -20,848z"/>
<glyph unicode="&#x118;" horiz-adv-x="278" d="M84,-1C73,2 67,12 67,27l0,581C67,619 65,636 61,659C56,680 54,697 54,710l0,3C65,732 74,744 79,749C88,749 101,750 116,753C130,756 142,757 153,757C164,757 174,754 184,748C194,741 199,734 199,725C199,705 184,695 153,695l-14,0C135,696 130,696 125,696C119,696 115,696 114,695C114,672 115,645 118,613l2,-28l2,-55C122,517 121,498 119,472l-2,-56l14,3C144,423 155,425 164,425C171,425 178,422 184,417C190,411 193,404 193,397C193,389 191,382 186,376C181,369 174,366 167,366l-12,1l-13,0C132,367 125,365 121,360l0,-309l56,3C215,54 234,45 234,28l0,-4C230,16 223,10 212,5C201,0 191,-4 181,-5l-33,-1l-31,0C104,-6 93,-4 84,-1M119,-119C119,-94 127,-71 144,-49C161,-28 182,-9 209,6l41,0C192,-39 163,-78 163,-112C163,-129 169,-137 181,-137C191,-137 203,-132 218,-121l11,-29C224,-157 216,-163 205,-169C193,-176 182,-179 173,-179C156,-179 142,-173 133,-160C124,-148 119,-134 119,-119z"/>
<glyph unicode="&#x1EBC;" horiz-adv-x="278" d="M84,-1C73,2 67,12 67,27l0,581C67,619 65,636 61,659C56,680 54,697 54,710l0,3C65,732 74,744 79,749C88,749 101,750 116,753C130,756 142,757 153,757C164,757 174,754 184,748C194,741 199,734 199,725C199,705 184,695 153,695l-14,0C135,696 130,696 125,696C119,696 115,696 114,695C114,672 115,645 118,613l2,-28l2,-55C122,517 121,498 119,472l-2,-56l14,3C144,423 155,425 164,425C171,425 178,422 184,417C190,411 193,404 193,397C193,389 191,382 186,376C181,369 174,366 167,366l-12,1l-13,0C132,367 125,365 121,360l0,-309l56,3C215,54 234,45 234,28l0,-4C230,16 223,10 212,5C201,0 191,-4 181,-5l-33,-1l-31,0C104,-6 93,-4 84,-1M104,814C99,820 94,825 87,829C80,833 73,835 65,835C60,833 57,830 55,827C53,824 53,820 54,816l0,-2C54,805 49,799 39,796C28,796 20,799 13,804C6,809 3,816 3,825C3,842 10,856 23,867C36,878 54,883 76,883C83,883 98,876 119,863C140,850 154,843 160,843C166,843 171,845 175,849C178,853 180,858 181,863C182,868 185,873 189,877C192,881 197,883 203,883C214,883 222,881 228,876C233,871 236,864 236,857C236,840 230,825 217,812C204,799 189,792 172,792C155,792 141,794 129,799C117,803 109,808 104,814z"/>
<glyph unicode="F" horiz-adv-x="265" d="M84,63C84,140 81,264 74,434C67,604 60,694 54,703C54,722 61,736 76,746C81,749 89,752 99,755C108,757 117,758 125,758C129,759 137,759 150,759C165,759 176,757 183,752C190,747 193,738 193,725C193,718 190,712 185,709C180,705 173,703 165,703l-10,1l-14,0C122,704 113,700 113,693C113,658 115,613 120,557C124,510 127,466 128,424C133,425 142,428 155,431C168,434 177,435 184,435C191,435 198,432 203,426C208,419 211,412 211,404C211,395 207,388 198,384C197,383 194,382 189,380C184,377 177,376 169,375C163,374 153,373 139,372l-11,0C128,332 131,278 138,209C144,137 147,83 147,46l-1,-4l-1,-2C146,37 146,33 146,27C146,18 143,12 137,7C131,2 123,-1 113,-1C94,-1 84,20 84,63z"/>
<glyph unicode="&#x1E1E;" horiz-adv-x="265" d="M84,63C84,140 81,264 74,434C67,604 60,694 54,703C54,722 61,736 76,746C81,749 89,752 99,755C108,757 117,758 125,758C129,759 137,759 150,759C165,759 176,757 183,752C190,747 193,738 193,725C193,718 190,712 185,709C180,705 173,703 165,703l-10,1l-14,0C122,704 113,700 113,693C113,658 115,613 120,557C124,510 127,466 128,424C133,425 142,428 155,431C168,434 177,435 184,435C191,435 198,432 203,426C208,419 211,412 211,404C211,395 207,388 198,384C197,383 194,382 189,380C184,377 177,376 169,375C163,374 153,373 139,372l-11,0C128,332 131,278 138,209C144,137 147,83 147,46l-1,-4l-1,-2C146,37 146,33 146,27C146,18 143,12 137,7C131,2 123,-1 113,-1C94,-1 84,20 84,63M96,835C96,845 100,854 107,862C114,869 123,873 133,873C142,873 151,869 158,862C165,854 169,845 169,836C169,825 165,817 158,810C150,803 140,799 129,799C120,799 113,803 106,810C99,817 96,826 96,835z"/>
<glyph unicode="G" horiz-adv-x="371" d="M129,7C110,23 92,50 76,89C66,114 58,150 52,196C47,233 45,269 45,302C44,311 44,326 44,347l0,34l0,40C44,450 45,484 47,524C50,558 55,593 63,628C72,663 84,692 101,716C118,741 140,759 168,770C185,775 200,777 215,777C243,777 257,768 257,749C257,742 255,736 250,732C245,727 238,725 230,725C227,725 223,726 216,728l-14,2C189,730 178,726 168,719C158,711 150,700 143,685C128,653 117,618 112,580C105,533 101,493 100,458C99,428 98,396 98,363l0,-27C97,327 97,315 97,301C97,267 99,234 102,201C105,162 112,129 124,101C135,70 152,48 176,35C187,28 201,25 218,25C247,25 272,39 292,67C291,90 290,113 287,136C284,158 280,173 275,181C274,181 273,181 271,181C268,180 265,180 260,179l-24,-2C213,177 202,187 202,206C202,212 205,217 212,222C219,227 228,230 239,232C258,237 274,239 289,239C302,239 313,234 320,224C327,214 331,201 331,186C331,164 334,134 341,96C348,59 351,29 351,7C351,0 349,-7 344,-12C339,-17 334,-20 327,-20C310,-20 299,-13 293,1l0,1l-22,-11C251,-20 234,-26 220,-26C183,-26 153,-15 129,7z"/>
<glyph unicode="&#x1F4;" horiz-adv-x="371" d="M129,7C110,23 92,50 76,89C66,114 58,150 52,196C47,233 45,269 45,302C44,311 44,326 44,347l0,34l0,40C44,450 45,484 47,524C50,558 55,593 63,628C72,663 84,692 101,716C118,741 140,759 168,770C185,775 200,777 215,777C243,777 257,768 257,749C257,742 255,736 250,732C245,727 238,725 230,725C227,725 223,726 216,728l-14,2C189,730 178,726 168,719C158,711 150,700 143,685C128,653 117,618 112,580C105,533 101,493 100,458C99,428 98,396 98,363l0,-27C97,327 97,315 97,301C97,267 99,234 102,201C105,162 112,129 124,101C135,70 152,48 176,35C187,28 201,25 218,25C247,25 272,39 292,67C291,90 290,113 287,136C284,158 280,173 275,181C274,181 273,181 271,181C268,180 265,180 260,179l-24,-2C213,177 202,187 202,206C202,212 205,217 212,222C219,227 228,230 239,232C258,237 274,239 289,239C302,239 313,234 320,224C327,214 331,201 331,186C331,164 334,134 341,96C348,59 351,29 351,7C351,0 349,-7 344,-12C339,-17 334,-20 327,-20C310,-20 299,-13 293,1l0,1l-22,-11C251,-20 234,-26 220,-26C183,-26 153,-15 129,7M132,798C132,801 134,805 137,808l16,14C156,825 175,842 209,871l59,51C271,923 274,924 277,924C285,924 292,920 299,912C306,904 309,896 309,887C309,879 307,874 302,871C278,852 229,824 156,787C155,786 152,785 148,785C144,785 140,786 137,789C134,791 132,794 132,798z"/>
<glyph unicode="&#x11E;" horiz-adv-x="371" d="M129,7C110,23 92,50 76,89C66,114 58,150 52,196C47,233 45,269 45,302C44,311 44,326 44,347l0,34l0,40C44,450 45,484 47,524C50,558 55,593 63,628C72,663 84,692 101,716C118,741 140,759 168,770C185,775 200,777 215,777C243,777 257,768 257,749C257,742 255,736 250,732C245,727 238,725 230,725C227,725 223,726 216,728l-14,2C189,730 178,726 168,719C158,711 150,700 143,685C128,653 117,618 112,580C105,533 101,493 100,458C99,428 98,396 98,363l0,-27C97,327 97,315 97,301C97,267 99,234 102,201C105,162 112,129 124,101C135,70 152,48 176,35C187,28 201,25 218,25C247,25 272,39 292,67C291,90 290,113 287,136C284,158 280,173 275,181C274,181 273,181 271,181C268,180 265,180 260,179l-24,-2C213,177 202,187 202,206C202,212 205,217 212,222C219,227 228,230 239,232C258,237 274,239 289,239C302,239 313,234 320,224C327,214 331,201 331,186C331,164 334,134 341,96C348,59 351,29 351,7C351,0 349,-7 344,-12C339,-17 334,-20 327,-20C310,-20 299,-13 293,1l0,1l-22,-11C251,-20 234,-26 220,-26C183,-26 153,-15 129,7M118,841C106,864 100,891 100,920C100,924 102,928 106,931C109,934 114,935 119,935C126,935 133,931 139,922C145,913 150,903 153,891C156,879 161,869 166,860C171,851 177,847 182,847C193,847 201,852 207,862C213,872 216,882 216,893C216,906 218,916 222,922C226,928 233,931 244,931C251,931 258,929 263,924C268,919 271,913 271,906C271,897 270,889 269,881C264,857 254,838 240,823C226,808 208,801 185,801C170,801 156,805 145,812C133,819 124,828 118,841z"/>
<glyph unicode="&#x1E6;" horiz-adv-x="371" d="M129,7C110,23 92,50 76,89C66,114 58,150 52,196C47,233 45,269 45,302C44,311 44,326 44,347l0,34l0,40C44,450 45,484 47,524C50,558 55,593 63,628C72,663 84,692 101,716C118,741 140,759 168,770C185,775 200,777 215,777C243,777 257,768 257,749C257,742 255,736 250,732C245,727 238,725 230,725C227,725 223,726 216,728l-14,2C189,730 178,726 168,719C158,711 150,700 143,685C128,653 117,618 112,580C105,533 101,493 100,458C99,428 98,396 98,363l0,-27C97,327 97,315 97,301C97,267 99,234 102,201C105,162 112,129 124,101C135,70 152,48 176,35C187,28 201,25 218,25C247,25 272,39 292,67C291,90 290,113 287,136C284,158 280,173 275,181C274,181 273,181 271,181C268,180 265,180 260,179l-24,-2C213,177 202,187 202,206C202,212 205,217 212,222C219,227 228,230 239,232C258,237 274,239 289,239C302,239 313,234 320,224C327,214 331,201 331,186C331,164 334,134 341,96C348,59 351,29 351,7C351,0 349,-7 344,-12C339,-17 334,-20 327,-20C310,-20 299,-13 293,1l0,1l-22,-11C251,-20 234,-26 220,-26C183,-26 153,-15 129,7M85,982C85,987 88,992 93,996C98,1000 103,1002 109,1002C116,1002 125,992 134,973C141,958 149,933 159,899l13,-46C174,869 175,880 176,886C177,892 178,903 180,920C182,936 185,951 188,964C193,991 203,1005 216,1005C222,1005 227,1003 231,999C235,995 237,990 237,984C237,982 236,979 233,976l-4,-7l0,-18l-14,-55C206,857 201,834 201,825C201,804 193,793 176,793C168,793 157,806 142,832C127,857 114,886 103,917C91,948 85,970 85,982z"/>
<glyph unicode="&#x11C;" horiz-adv-x="371" d="M129,7C110,23 92,50 76,89C66,114 58,150 52,196C47,233 45,269 45,302C44,311 44,326 44,347l0,34l0,40C44,450 45,484 47,524C50,558 55,593 63,628C72,663 84,692 101,716C118,741 140,759 168,770C185,775 200,777 215,777C243,777 257,768 257,749C257,742 255,736 250,732C245,727 238,725 230,725C227,725 223,726 216,728l-14,2C189,730 178,726 168,719C158,711 150,700 143,685C128,653 117,618 112,580C105,533 101,493 100,458C99,428 98,396 98,363l0,-27C97,327 97,315 97,301C97,267 99,234 102,201C105,162 112,129 124,101C135,70 152,48 176,35C187,28 201,25 218,25C247,25 272,39 292,67C291,90 290,113 287,136C284,158 280,173 275,181C274,181 273,181 271,181C268,180 265,180 260,179l-24,-2C213,177 202,187 202,206C202,212 205,217 212,222C219,227 228,230 239,232C258,237 274,239 289,239C302,239 313,234 320,224C327,214 331,201 331,186C331,164 334,134 341,96C348,59 351,29 351,7C351,0 349,-7 344,-12C339,-17 334,-20 327,-20C310,-20 299,-13 293,1l0,1l-22,-11C251,-20 234,-26 220,-26C183,-26 153,-15 129,7M232,791l-39,135l-51,-128C140,793 135,791 128,791C121,791 116,793 111,797C106,800 103,805 103,811C103,815 104,818 105,820l35,88C143,913 147,922 152,935C157,948 161,956 164,961C171,973 179,981 187,985C192,986 197,987 201,987C206,987 211,984 215,978C224,963 233,941 240,910l13,-48C259,838 263,822 266,814C267,812 267,809 267,805C267,799 265,794 260,790C255,786 250,784 244,784C237,784 233,786 232,791z"/>
<glyph unicode="&#x122;" horiz-adv-x="371" d="M129,7C110,23 92,50 76,89C66,114 58,150 52,196C47,233 45,269 45,302C44,311 44,326 44,347l0,34l0,40C44,450 45,484 47,524C50,558 55,593 63,628C72,663 84,692 101,716C118,741 140,759 168,770C185,775 200,777 215,777C243,777 257,768 257,749C257,742 255,736 250,732C245,727 238,725 230,725C227,725 223,726 216,728l-14,2C189,730 178,726 168,719C158,711 150,700 143,685C128,653 117,618 112,580C105,533 101,493 100,458C99,428 98,396 98,363l0,-27C97,327 97,315 97,301C97,267 99,234 102,201C105,162 112,129 124,101C135,70 152,48 176,35C187,28 201,25 218,25C247,25 272,39 292,67C291,90 290,113 287,136C284,158 280,173 275,181C274,181 273,181 271,181C268,180 265,180 260,179l-24,-2C213,177 202,187 202,206C202,212 205,217 212,222C219,227 228,230 239,232C258,237 274,239 289,239C302,239 313,234 320,224C327,214 331,201 331,186C331,164 334,134 341,96C348,59 351,29 351,7C351,0 349,-7 344,-12C339,-17 334,-20 327,-20C310,-20 299,-13 293,1l0,1l-22,-11C251,-20 234,-26 220,-26C183,-26 153,-15 129,7M128,-257C128,-252 139,-229 161,-186C182,-144 201,-110 217,-85C218,-84 219,-83 222,-83C227,-83 232,-85 237,-90C242,-95 245,-100 245,-105C245,-118 239,-136 227,-158C215,-180 201,-201 185,-221C168,-242 155,-256 144,-263C141,-264 139,-265 138,-265l-2,0C131,-265 128,-262 128,-257z"/>
<glyph unicode="&#x120;" horiz-adv-x="371" d="M129,7C110,23 92,50 76,89C66,114 58,150 52,196C47,233 45,269 45,302C44,311 44,326 44,347l0,34l0,40C44,450 45,484 47,524C50,558 55,593 63,628C72,663 84,692 101,716C118,741 140,759 168,770C185,775 200,777 215,777C243,777 257,768 257,749C257,742 255,736 250,732C245,727 238,725 230,725C227,725 223,726 216,728l-14,2C189,730 178,726 168,719C158,711 150,700 143,685C128,653 117,618 112,580C105,533 101,493 100,458C99,428 98,396 98,363l0,-27C97,327 97,315 97,301C97,267 99,234 102,201C105,162 112,129 124,101C135,70 152,48 176,35C187,28 201,25 218,25C247,25 272,39 292,67C291,90 290,113 287,136C284,158 280,173 275,181C274,181 273,181 271,181C268,180 265,180 260,179l-24,-2C213,177 202,187 202,206C202,212 205,217 212,222C219,227 228,230 239,232C258,237 274,239 289,239C302,239 313,234 320,224C327,214 331,201 331,186C331,164 334,134 341,96C348,59 351,29 351,7C351,0 349,-7 344,-12C339,-17 334,-20 327,-20C310,-20 299,-13 293,1l0,1l-22,-11C251,-20 234,-26 220,-26C183,-26 153,-15 129,7M125,845C125,855 129,864 136,872C143,879 152,883 162,883C171,883 180,879 187,872C194,864 198,855 198,846C198,835 194,827 187,820C179,813 169,809 158,809C149,809 142,813 135,820C128,827 125,836 125,845z"/>
<glyph unicode="H" horiz-adv-x="330" d="M209,18C209,157 206,275 201,371C185,374 174,375 167,375C140,375 120,373 108,368C108,331 111,274 117,199C122,119 125,62 125,29C125,22 123,16 119,11C115,5 110,2 104,2C95,2 87,17 80,48C69,93 61,188 54,333C49,431 47,536 47,649C46,670 46,699 46,737C46,749 52,755 63,755C70,755 77,753 84,750C91,747 96,743 99,739C96,718 95,693 95,664C95,636 96,602 99,562C101,516 102,481 102,458l0,-18C101,435 101,428 101,421C101,414 102,406 103,395C107,395 114,395 123,396C132,397 142,398 151,399C173,401 189,402 200,402C200,460 199,514 198,563l-2,167l0,27C205,757 212,756 219,753C226,750 231,746 234,741C240,734 244,721 245,703l0,-23C245,623 248,513 255,351C261,204 264,94 264,21C264,12 261,3 256,-4C250,-11 243,-15 235,-15C226,-15 220,-12 216,-5C211,1 209,9 209,18z"/>
<glyph unicode="&#x126;" horiz-adv-x="330" d="M289,584l-27,0C263,502 265,393 270,256C274,133 276,56 276,25C279,20 281,15 281,10C281,2 278,-5 273,-12C268,-19 262,-23 255,-23C248,-23 243,-20 240,-15C236,-10 234,-3 234,6l0,12C235,21 235,25 235,29C235,114 232,226 225,364l-19,2l-18,3C159,369 138,366 125,359C125,313 128,257 133,191C139,111 142,53 142,18C142,11 140,6 137,2C134,-2 129,-4 124,-4C111,-4 104,1 102,11C98,19 96,43 95,83C94,119 93,147 93,166l-1,41C92,246 91,275 90,292C84,379 79,475 74,582l6,0C68,582 59,584 52,589C45,594 42,599 42,606C42,609 44,612 48,613C52,614 61,614 74,615C73,642 72,688 72,752l24,13l20,-17C113,719 111,694 111,671C111,662 112,644 113,616C120,617 138,617 167,617l53,1C218,673 217,715 217,742C217,749 218,756 220,763C229,764 237,762 244,757C250,751 254,742 257,731C260,717 262,698 262,675l0,-59C273,613 281,609 286,603C290,597 291,591 289,584M226,408C226,433 224,492 221,584l-106,-2C118,521 120,483 120,468C120,461 120,454 119,447l0,-19C119,421 120,412 121,400l52,4C195,407 213,408 226,408z"/>
<glyph unicode="&#x21E;" horiz-adv-x="330" d="M209,18C209,157 206,275 201,371C185,374 174,375 167,375C140,375 120,373 108,368C108,331 111,274 117,199C122,119 125,62 125,29C125,22 123,16 119,11C115,5 110,2 104,2C95,2 87,17 80,48C69,93 61,188 54,333C49,431 47,536 47,649C46,670 46,699 46,737C46,749 52,755 63,755C70,755 77,753 84,750C91,747 96,743 99,739C96,718 95,693 95,664C95,636 96,602 99,562C101,516 102,481 102,458l0,-18C101,435 101,428 101,421C101,414 102,406 103,395C107,395 114,395 123,396C132,397 142,398 151,399C173,401 189,402 200,402C200,460 199,514 198,563l-2,167l0,27C205,757 212,756 219,753C226,750 231,746 234,741C240,734 244,721 245,703l0,-23C245,623 248,513 255,351C261,204 264,94 264,21C264,12 261,3 256,-4C250,-11 243,-15 235,-15C226,-15 220,-12 216,-5C211,1 209,9 209,18M70,972C70,977 73,982 78,986C83,990 88,992 94,992C101,992 110,982 119,963C126,948 134,923 144,889l13,-46C159,859 160,870 161,876C162,882 163,893 165,910C167,926 170,941 173,954C178,981 188,995 201,995C207,995 212,993 216,989C220,985 222,980 222,974C222,972 221,969 218,966l-4,-7l0,-18l-14,-55C191,847 186,824 186,815C186,794 178,783 161,783C153,783 142,796 127,822C112,847 99,876 88,907C76,938 70,960 70,972z"/>
<glyph unicode="&#x124;" horiz-adv-x="330" d="M209,18C209,157 206,275 201,371C185,374 174,375 167,375C140,375 120,373 108,368C108,331 111,274 117,199C122,119 125,62 125,29C125,22 123,16 119,11C115,5 110,2 104,2C95,2 87,17 80,48C69,93 61,188 54,333C49,431 47,536 47,649C46,670 46,699 46,737C46,749 52,755 63,755C70,755 77,753 84,750C91,747 96,743 99,739C96,718 95,693 95,664C95,636 96,602 99,562C101,516 102,481 102,458l0,-18C101,435 101,428 101,421C101,414 102,406 103,395C107,395 114,395 123,396C132,397 142,398 151,399C173,401 189,402 200,402C200,460 199,514 198,563l-2,167l0,27C205,757 212,756 219,753C226,750 231,746 234,741C240,734 244,721 245,703l0,-23C245,623 248,513 255,351C261,204 264,94 264,21C264,12 261,3 256,-4C250,-11 243,-15 235,-15C226,-15 220,-12 216,-5C211,1 209,9 209,18M217,781l-39,135l-51,-128C125,783 120,781 113,781C106,781 101,783 96,787C91,790 88,795 88,801C88,805 89,808 90,810l35,88C128,903 132,912 137,925C142,938 146,946 149,951C156,963 164,971 172,975C177,976 182,977 186,977C191,977 196,974 200,968C209,953 218,931 225,900l13,-48C244,828 248,812 251,804C252,802 252,799 252,795C252,789 250,784 245,780C240,776 235,774 229,774C222,774 218,776 217,781z"/>
<glyph unicode="I" horiz-adv-x="257" d="M37,31C37,47 47,55 67,55l12,0C82,54 85,54 88,54C93,54 97,56 100,59C102,62 103,68 103,77C103,134 100,211 93,309C87,411 84,488 84,540C84,559 84,576 85,591l1,51C86,664 85,682 83,697C76,694 68,693 60,693C45,693 37,701 37,717C37,725 42,732 52,738C61,744 74,748 89,751C117,756 141,758 160,758C168,758 175,755 181,750C186,745 189,738 189,731C189,724 187,717 183,712C178,707 173,704 166,704C162,704 159,704 156,705l-8,0C141,705 137,704 134,701C131,698 129,692 129,684C129,613 133,516 142,392C150,262 154,164 154,99l0,-38C159,62 165,62 174,62C202,62 216,50 216,27l0,-6l-25,-17C190,4 188,4 185,4C182,3 175,3 165,3C142,2 128,1 123,1C66,1 37,11 37,31z"/>
<glyph unicode="&#x132;" horiz-adv-x="525" d="M37,31C37,47 47,55 67,55l12,0C82,54 85,54 88,54C93,54 97,56 100,59C102,62 103,68 103,77C103,134 100,211 93,309C87,411 84,488 84,540C84,559 84,576 85,591l1,51C86,664 85,682 83,697C76,694 68,693 60,693C45,693 37,701 37,717C37,725 42,732 52,738C61,744 74,748 89,751C117,756 141,758 160,758C168,758 175,755 181,750C186,745 189,738 189,731C189,724 187,717 183,712C178,707 173,704 166,704C162,704 159,704 156,705l-8,0C141,705 137,704 134,701C131,698 129,692 129,684C129,613 133,516 142,392C150,262 154,164 154,99l0,-38C159,62 165,62 174,62C202,62 216,50 216,27l0,-6l-25,-17C190,4 188,4 185,4C182,3 175,3 165,3C142,2 128,1 123,1C66,1 37,11 37,31M292,-64C292,-57 296,-49 304,-41C312,-33 321,-27 331,-23C341,-10 350,9 359,36C367,63 371,90 371,118l1,49C373,181 373,197 373,215l-1,41l-5,101C362,489 355,605 345,706C343,705 339,704 332,703C321,700 311,698 302,698C295,698 290,701 285,706C280,711 277,716 277,723C277,746 317,758 396,758l13,0C418,758 426,758 431,757C436,756 441,753 446,749C451,745 454,739 454,731C454,714 440,705 412,705C412,705 412,705 412,705C411,705 411,705 411,706l-2,0l-13,0l0,-8C396,681 398,655 402,621C405,582 407,556 407,543C407,496 410,431 417,349C422,272 425,207 425,154l0,-40l0,-40C425,34 417,-1 400,-32C383,-63 359,-84 328,-95C317,-95 309,-92 302,-87C295,-82 292,-74 292,-64z"/>
<glyph unicode="&#xCD;" horiz-adv-x="257" d="M37,31C37,47 47,55 67,55l12,0C82,54 85,54 88,54C93,54 97,56 100,59C102,62 103,68 103,77C103,134 100,211 93,309C87,411 84,488 84,540C84,559 84,576 85,591l1,51C86,664 85,682 83,697C76,694 68,693 60,693C45,693 37,701 37,717C37,725 42,732 52,738C61,744 74,748 89,751C117,756 141,758 160,758C168,758 175,755 181,750C186,745 189,738 189,731C189,724 187,717 183,712C178,707 173,704 166,704C162,704 159,704 156,705l-8,0C141,705 137,704 134,701C131,698 129,692 129,684C129,613 133,516 142,392C150,262 154,164 154,99l0,-38C159,62 165,62 174,62C202,62 216,50 216,27l0,-6l-25,-17C190,4 188,4 185,4C182,3 175,3 165,3C142,2 128,1 123,1C66,1 37,11 37,31M66,798C66,801 68,805 71,808l16,14C90,825 109,842 143,871l59,51C205,923 208,924 211,924C219,924 226,920 233,912C240,904 243,896 243,887C243,879 241,874 236,871C212,852 163,824 90,787C89,786 86,785 82,785C78,785 74,786 71,789C68,791 66,794 66,798z"/>
<glyph unicode="&#x12C;" horiz-adv-x="257" d="M37,31C37,47 47,55 67,55l12,0C82,54 85,54 88,54C93,54 97,56 100,59C102,62 103,68 103,77C103,134 100,211 93,309C87,411 84,488 84,540C84,559 84,576 85,591l1,51C86,664 85,682 83,697C76,694 68,693 60,693C45,693 37,701 37,717C37,725 42,732 52,738C61,744 74,748 89,751C117,756 141,758 160,758C168,758 175,755 181,750C186,745 189,738 189,731C189,724 187,717 183,712C178,707 173,704 166,704C162,704 159,704 156,705l-8,0C141,705 137,704 134,701C131,698 129,692 129,684C129,613 133,516 142,392C150,262 154,164 154,99l0,-38C159,62 165,62 174,62C202,62 216,50 216,27l0,-6l-25,-17C190,4 188,4 185,4C182,3 175,3 165,3C142,2 128,1 123,1C66,1 37,11 37,31M52,841C40,864 34,891 34,920C34,924 36,928 40,931C43,934 48,935 53,935C60,935 67,931 73,922C79,913 84,903 87,891C90,879 95,869 100,860C105,851 111,847 116,847C127,847 135,852 141,862C147,872 150,882 150,893C150,906 152,916 156,922C160,928 167,931 178,931C185,931 192,929 197,924C202,919 205,913 205,906C205,897 204,889 203,881C198,857 188,838 174,823C160,808 142,801 119,801C104,801 90,805 79,812C67,819 58,828 52,841z"/>
<glyph unicode="&#x1CF;" horiz-adv-x="257" d="M37,31C37,47 47,55 67,55l12,0C82,54 85,54 88,54C93,54 97,56 100,59C102,62 103,68 103,77C103,134 100,211 93,309C87,411 84,488 84,540C84,559 84,576 85,591l1,51C86,664 85,682 83,697C76,694 68,693 60,693C45,693 37,701 37,717C37,725 42,732 52,738C61,744 74,748 89,751C117,756 141,758 160,758C168,758 175,755 181,750C186,745 189,738 189,731C189,724 187,717 183,712C178,707 173,704 166,704C162,704 159,704 156,705l-8,0C141,705 137,704 134,701C131,698 129,692 129,684C129,613 133,516 142,392C150,262 154,164 154,99l0,-38C159,62 165,62 174,62C202,62 216,50 216,27l0,-6l-25,-17C190,4 188,4 185,4C182,3 175,3 165,3C142,2 128,1 123,1C66,1 37,11 37,31M19,982C19,987 22,992 27,996C32,1000 37,1002 43,1002C50,1002 59,992 68,973C75,958 83,933 93,899l13,-46C108,869 109,880 110,886C111,892 112,903 114,920C116,936 119,951 122,964C127,991 137,1005 150,1005C156,1005 161,1003 165,999C169,995 171,990 171,984C171,982 170,979 167,976l-4,-7l0,-18l-14,-55C140,857 135,834 135,825C135,804 127,793 110,793C102,793 91,806 76,832C61,857 48,886 37,917C25,948 19,970 19,982z"/>
<glyph unicode="&#xCE;" horiz-adv-x="257" d="M37,31C37,47 47,55 67,55l12,0C82,54 85,54 88,54C93,54 97,56 100,59C102,62 103,68 103,77C103,134 100,211 93,309C87,411 84,488 84,540C84,559 84,576 85,591l1,51C86,664 85,682 83,697C76,694 68,693 60,693C45,693 37,701 37,717C37,725 42,732 52,738C61,744 74,748 89,751C117,756 141,758 160,758C168,758 175,755 181,750C186,745 189,738 189,731C189,724 187,717 183,712C178,707 173,704 166,704C162,704 159,704 156,705l-8,0C141,705 137,704 134,701C131,698 129,692 129,684C129,613 133,516 142,392C150,262 154,164 154,99l0,-38C159,62 165,62 174,62C202,62 216,50 216,27l0,-6l-25,-17C190,4 188,4 185,4C182,3 175,3 165,3C142,2 128,1 123,1C66,1 37,11 37,31M166,791l-39,135l-51,-128C74,793 69,791 62,791C55,791 50,793 45,797C40,800 37,805 37,811C37,815 38,818 39,820l35,88C77,913 81,922 86,935C91,948 95,956 98,961C105,973 113,981 121,985C126,986 131,987 135,987C140,987 145,984 149,978C158,963 167,941 174,910l13,-48C193,838 197,822 200,814C201,812 201,809 201,805C201,799 199,794 194,790C189,786 184,784 178,784C171,784 167,786 166,791z"/>
<glyph unicode="&#x208;" horiz-adv-x="257" d="M37,31C37,47 47,55 67,55l12,0C82,54 85,54 88,54C93,54 97,56 100,59C102,62 103,68 103,77C103,134 100,211 93,309C87,411 84,488 84,540C84,559 84,576 85,591l1,51C86,664 85,682 83,697C76,694 68,693 60,693C45,693 37,701 37,717C37,725 42,732 52,738C61,744 74,748 89,751C117,756 141,758 160,758C168,758 175,755 181,750C186,745 189,738 189,731C189,724 187,717 183,712C178,707 173,704 166,704C162,704 159,704 156,705l-8,0C141,705 137,704 134,701C131,698 129,692 129,684C129,613 133,516 142,392C150,262 154,164 154,99l0,-38C159,62 165,62 174,62C202,62 216,50 216,27l0,-6l-25,-17C190,4 188,4 185,4C182,3 175,3 165,3C142,2 128,1 123,1C66,1 37,11 37,31M-40,939l-9,16C-47,962 -43,969 -38,974C-33,979 -27,981 -20,981C-15,981 0,968 24,942C49,914 72,886 93,858C114,830 124,813 124,806C124,798 121,794 114,794C13,889 -39,937 -40,939M135,897C116,922 106,941 106,952C106,955 109,959 115,962C120,965 126,966 131,966C136,966 147,954 165,929C182,904 199,878 215,851C231,823 239,805 240,797l-7,-11C198,820 165,857 135,897z"/>
<glyph unicode="&#xCF;" horiz-adv-x="257" d="M37,31C37,47 47,55 67,55l12,0C82,54 85,54 88,54C93,54 97,56 100,59C102,62 103,68 103,77C103,134 100,211 93,309C87,411 84,488 84,540C84,559 84,576 85,591l1,51C86,664 85,682 83,697C76,694 68,693 60,693C45,693 37,701 37,717C37,725 42,732 52,738C61,744 74,748 89,751C117,756 141,758 160,758C168,758 175,755 181,750C186,745 189,738 189,731C189,724 187,717 183,712C178,707 173,704 166,704C162,704 159,704 156,705l-8,0C141,705 137,704 134,701C131,698 129,692 129,684C129,613 133,516 142,392C150,262 154,164 154,99l0,-38C159,62 165,62 174,62C202,62 216,50 216,27l0,-6l-25,-17C190,4 188,4 185,4C182,3 175,3 165,3C142,2 128,1 123,1C66,1 37,11 37,31M2,830C2,840 6,849 14,857C21,864 30,868 40,868C49,868 58,864 65,857C72,849 75,840 75,831C75,820 71,812 64,805C57,798 47,794 36,794C27,794 20,798 13,805C6,812 2,821 2,830M163,825C163,835 167,844 175,852C182,859 191,863 201,863C210,863 219,859 226,852C233,844 237,835 237,826C237,815 233,807 226,800C218,793 208,789 197,789C188,789 181,793 174,800C167,807 163,816 163,825z"/>
<glyph unicode="&#x130;" horiz-adv-x="257" d="M37,31C37,47 47,55 67,55l12,0C82,54 85,54 88,54C93,54 97,56 100,59C102,62 103,68 103,77C103,134 100,211 93,309C87,411 84,488 84,540C84,559 84,576 85,591l1,51C86,664 85,682 83,697C76,694 68,693 60,693C45,693 37,701 37,717C37,725 42,732 52,738C61,744 74,748 89,751C117,756 141,758 160,758C168,758 175,755 181,750C186,745 189,738 189,731C189,724 187,717 183,712C178,707 173,704 166,704C162,704 159,704 156,705l-8,0C141,705 137,704 134,701C131,698 129,692 129,684C129,613 133,516 142,392C150,262 154,164 154,99l0,-38C159,62 165,62 174,62C202,62 216,50 216,27l0,-6l-25,-17C190,4 188,4 185,4C182,3 175,3 165,3C142,2 128,1 123,1C66,1 37,11 37,31M59,845C59,855 63,864 70,872C77,879 86,883 96,883C105,883 114,879 121,872C128,864 132,855 132,846C132,835 128,827 121,820C113,813 103,809 92,809C83,809 76,813 69,820C62,827 59,836 59,845z"/>
<glyph unicode="&#x1ECA;" horiz-adv-x="257" d="M37,31C37,47 47,55 67,55l12,0C82,54 85,54 88,54C93,54 97,56 100,59C102,62 103,68 103,77C103,134 100,211 93,309C87,411 84,488 84,540C84,559 84,576 85,591l1,51C86,664 85,682 83,697C76,694 68,693 60,693C45,693 37,701 37,717C37,725 42,732 52,738C61,744 74,748 89,751C117,756 141,758 160,758C168,758 175,755 181,750C186,745 189,738 189,731C189,724 187,717 183,712C178,707 173,704 166,704C162,704 159,704 156,705l-8,0C141,705 137,704 134,701C131,698 129,692 129,684C129,613 133,516 142,392C150,262 154,164 154,99l0,-38C159,62 165,62 174,62C202,62 216,50 216,27l0,-6l-25,-17C190,4 188,4 185,4C182,3 175,3 165,3C142,2 128,1 123,1C66,1 37,11 37,31M92,-132C92,-122 96,-113 104,-105C111,-98 120,-94 130,-94C139,-94 148,-98 155,-105C162,-113 165,-122 165,-132C165,-143 161,-151 154,-158C147,-165 137,-168 126,-168C117,-168 110,-164 103,-157C96,-150 92,-141 92,-132z"/>
<glyph unicode="&#xCC;" horiz-adv-x="257" d="M37,31C37,47 47,55 67,55l12,0C82,54 85,54 88,54C93,54 97,56 100,59C102,62 103,68 103,77C103,134 100,211 93,309C87,411 84,488 84,540C84,559 84,576 85,591l1,51C86,664 85,682 83,697C76,694 68,693 60,693C45,693 37,701 37,717C37,725 42,732 52,738C61,744 74,748 89,751C117,756 141,758 160,758C168,758 175,755 181,750C186,745 189,738 189,731C189,724 187,717 183,712C178,707 173,704 166,704C162,704 159,704 156,705l-8,0C141,705 137,704 134,701C131,698 129,692 129,684C129,613 133,516 142,392C150,262 154,164 154,99l0,-38C159,62 165,62 174,62C202,62 216,50 216,27l0,-6l-25,-17C190,4 188,4 185,4C182,3 175,3 165,3C142,2 128,1 123,1C66,1 37,11 37,31M-45,852C-45,860 -41,869 -34,878C-27,887 -19,891 -12,891C-8,891 8,884 35,870C62,856 88,842 111,827C134,812 146,801 146,796C146,791 144,789 139,789C132,789 113,794 82,803C51,812 22,821 -5,831C-32,841 -45,848 -45,852z"/>
<glyph unicode="&#x1EC8;" horiz-adv-x="257" d="M37,31C37,47 47,55 67,55l12,0C82,54 85,54 88,54C93,54 97,56 100,59C102,62 103,68 103,77C103,134 100,211 93,309C87,411 84,488 84,540C84,559 84,576 85,591l1,51C86,664 85,682 83,697C76,694 68,693 60,693C45,693 37,701 37,717C37,725 42,732 52,738C61,744 74,748 89,751C117,756 141,758 160,758C168,758 175,755 181,750C186,745 189,738 189,731C189,724 187,717 183,712C178,707 173,704 166,704C162,704 159,704 156,705l-8,0C141,705 137,704 134,701C131,698 129,692 129,684C129,613 133,516 142,392C150,262 154,164 154,99l0,-38C159,62 165,62 174,62C202,62 216,50 216,27l0,-6l-25,-17C190,4 188,4 185,4C182,3 175,3 165,3C142,2 128,1 123,1C66,1 37,11 37,31M74,806C74,827 79,842 89,850C99,857 113,863 130,866C140,868 147,870 152,873C157,875 159,879 159,884C159,894 154,902 145,909C136,916 122,919 105,919C90,919 78,916 69,911C60,906 56,899 56,890C56,889 58,886 62,880C62,879 59,875 52,869C45,863 40,860 35,860C26,860 20,862 15,867C10,872 7,877 7,882l0,9C7,914 15,931 32,944C48,956 72,962 103,962C145,962 174,954 189,939C204,923 211,905 211,884C211,866 206,854 197,848C187,841 173,836 155,831C144,829 135,827 130,824C125,821 122,817 122,811l0,-18C109,793 103,793 102,792C99,791 98,790 97,790C86,790 78,795 74,806z"/>
<glyph unicode="&#x20A;" horiz-adv-x="257" d="M37,31C37,47 47,55 67,55l12,0C82,54 85,54 88,54C93,54 97,56 100,59C102,62 103,68 103,77C103,134 100,211 93,309C87,411 84,488 84,540C84,559 84,576 85,591l1,51C86,664 85,682 83,697C76,694 68,693 60,693C45,693 37,701 37,717C37,725 42,732 52,738C61,744 74,748 89,751C117,756 141,758 160,758C168,758 175,755 181,750C186,745 189,738 189,731C189,724 187,717 183,712C178,707 173,704 166,704C162,704 159,704 156,705l-8,0C141,705 137,704 134,701C131,698 129,692 129,684C129,613 133,516 142,392C150,262 154,164 154,99l0,-38C159,62 165,62 174,62C202,62 216,50 216,27l0,-6l-25,-17C190,4 188,4 185,4C182,3 175,3 165,3C142,2 128,1 123,1C66,1 37,11 37,31M9,799C9,828 15,854 27,878C33,890 42,900 54,907C65,914 79,917 94,917C107,917 117,915 126,912C134,909 141,903 147,895C154,886 159,879 162,872C165,865 169,856 174,845l2,-4l2,-4l-2,-4C176,830 176,829 175,829l5,-16C180,806 177,800 172,795C167,790 160,787 153,787C142,787 135,790 131,796C127,802 125,812 125,825C125,833 123,843 118,854C113,865 107,871 102,871l-21,0C71,864 63,847 57,820C55,809 52,801 47,794C42,787 35,783 28,783z"/>
<glyph unicode="&#x12A;" horiz-adv-x="257" d="M37,31C37,47 47,55 67,55l12,0C82,54 85,54 88,54C93,54 97,56 100,59C102,62 103,68 103,77C103,134 100,211 93,309C87,411 84,488 84,540C84,559 84,576 85,591l1,51C86,664 85,682 83,697C76,694 68,693 60,693C45,693 37,701 37,717C37,725 42,732 52,738C61,744 74,748 89,751C117,756 141,758 160,758C168,758 175,755 181,750C186,745 189,738 189,731C189,724 187,717 183,712C178,707 173,704 166,704C162,704 159,704 156,705l-8,0C141,705 137,704 134,701C131,698 129,692 129,684C129,613 133,516 142,392C150,262 154,164 154,99l0,-38C159,62 165,62 174,62C202,62 216,50 216,27l0,-6l-25,-17C190,4 188,4 185,4C182,3 175,3 165,3C142,2 128,1 123,1C66,1 37,11 37,31M-45,844C-45,851 -43,856 -38,860C-34,864 -29,866 -22,866l147,0l30,2C164,869 175,869 186,869C218,869 234,859 234,840C234,833 232,827 227,823C222,819 215,817 206,817C183,817 148,816 101,814l-106,-2C-32,812 -45,823 -45,844z"/>
<glyph unicode="&#x12E;" horiz-adv-x="257" d="M37,31C37,47 47,55 67,55l12,0C82,54 85,54 88,54C93,54 97,56 100,59C102,62 103,68 103,77C103,134 100,211 93,309C87,411 84,488 84,540C84,559 84,576 85,591l1,51C86,664 85,682 83,697C76,694 68,693 60,693C45,693 37,701 37,717C37,725 42,732 52,738C61,744 74,748 89,751C117,756 141,758 160,758C168,758 175,755 181,750C186,745 189,738 189,731C189,724 187,717 183,712C178,707 173,704 166,704C162,704 159,704 156,705l-8,0C141,705 137,704 134,701C131,698 129,692 129,684C129,613 133,516 142,392C150,262 154,164 154,99l0,-38C159,62 165,62 174,62C202,62 216,50 216,27l0,-6l-25,-17C190,4 188,4 185,4C182,3 175,3 165,3C142,2 128,1 123,1C66,1 37,11 37,31M61,-119C61,-94 69,-71 86,-49C103,-28 124,-9 151,6l41,0C134,-39 105,-78 105,-112C105,-129 111,-137 123,-137C133,-137 145,-132 160,-121l11,-29C166,-157 158,-163 147,-169C135,-176 124,-179 115,-179C98,-179 84,-173 75,-160C66,-148 61,-134 61,-119z"/>
<glyph unicode="&#x128;" horiz-adv-x="257" d="M37,31C37,47 47,55 67,55l12,0C82,54 85,54 88,54C93,54 97,56 100,59C102,62 103,68 103,77C103,134 100,211 93,309C87,411 84,488 84,540C84,559 84,576 85,591l1,51C86,664 85,682 83,697C76,694 68,693 60,693C45,693 37,701 37,717C37,725 42,732 52,738C61,744 74,748 89,751C117,756 141,758 160,758C168,758 175,755 181,750C186,745 189,738 189,731C189,724 187,717 183,712C178,707 173,704 166,704C162,704 159,704 156,705l-8,0C141,705 137,704 134,701C131,698 129,692 129,684C129,613 133,516 142,392C150,262 154,164 154,99l0,-38C159,62 165,62 174,62C202,62 216,50 216,27l0,-6l-25,-17C190,4 188,4 185,4C182,3 175,3 165,3C142,2 128,1 123,1C66,1 37,11 37,31M79,810C74,816 69,821 62,825C55,829 48,831 40,831C35,829 32,826 30,823C28,820 28,816 29,812l0,-2C29,801 24,795 14,792C3,792 -5,795 -12,800C-19,805 -22,812 -22,821C-22,838 -15,852 -2,863C11,874 29,879 51,879C58,879 73,872 94,859C115,846 129,839 135,839C141,839 146,841 150,845C153,849 155,854 156,859C157,864 160,869 164,873C167,877 172,879 178,879C189,879 197,877 203,872C208,867 211,860 211,853C211,836 205,821 192,808C179,795 164,788 147,788C130,788 116,790 104,795C92,799 84,804 79,810z"/>
<glyph unicode="J" horiz-adv-x="268" d="M35,-64C35,-57 39,-49 47,-41C55,-33 64,-27 74,-23C84,-10 93,9 102,36C110,63 114,90 114,118l1,49C116,181 116,197 116,215l-1,41l-5,101C105,489 98,605 88,706C86,705 82,704 75,703C64,700 54,698 45,698C38,698 33,701 28,706C23,711 20,716 20,723C20,746 60,758 139,758l13,0C161,758 169,758 174,757C179,756 184,753 189,749C194,745 197,739 197,731C197,714 183,705 155,705C155,705 155,705 155,705C154,705 154,705 154,706l-2,0l-13,0l0,-8C139,681 141,655 145,621C148,582 150,556 150,543C150,496 153,431 160,349C165,272 168,207 168,154l0,-40l0,-40C168,34 160,-1 143,-32C126,-63 102,-84 71,-95C60,-95 52,-92 45,-87C38,-82 35,-74 35,-64z"/>
<glyph unicode="&#x134;" horiz-adv-x="268" d="M35,-64C35,-57 39,-49 47,-41C55,-33 64,-27 74,-23C84,-10 93,9 102,36C110,63 114,90 114,118l1,49C116,181 116,197 116,215l-1,41l-5,101C105,489 98,605 88,706C86,705 82,704 75,703C64,700 54,698 45,698C38,698 33,701 28,706C23,711 20,716 20,723C20,746 60,758 139,758l13,0C161,758 169,758 174,757C179,756 184,753 189,749C194,745 197,739 197,731C197,714 183,705 155,705C155,705 155,705 155,705C154,705 154,705 154,706l-2,0l-13,0l0,-8C139,681 141,655 145,621C148,582 150,556 150,543C150,496 153,431 160,349C165,272 168,207 168,154l0,-40l0,-40C168,34 160,-1 143,-32C126,-63 102,-84 71,-95C60,-95 52,-92 45,-87C38,-82 35,-74 35,-64M175,781l-39,135l-51,-128C83,783 78,781 71,781C64,781 59,783 54,787C49,790 46,795 46,801C46,805 47,808 48,810l35,88C86,903 90,912 95,925C100,938 104,946 107,951C114,963 122,971 130,975C135,976 140,977 144,977C149,977 154,974 158,968C167,953 176,931 183,900l13,-48C202,828 206,812 209,804C210,802 210,799 210,795C210,789 208,784 203,780C198,776 193,774 187,774C180,774 176,776 175,781z"/>
<glyph unicode="K" horiz-adv-x="356" d="M283,-21C280,-20 276,-20 272,-20C254,82 236,167 218,236C200,305 177,369 150,430l-21,-39C123,380 120,370 119,361C117,341 116,326 116,317C116,297 117,266 119,225C121,184 122,153 122,132l0,-82C122,15 111,-3 88,-3C69,-3 59,16 59,53C59,82 61,127 65,188C70,244 72,289 72,322l1,86l0,104C73,549 71,587 66,627C61,668 59,700 59,721C59,730 62,737 67,743C72,749 79,752 87,752C112,752 124,725 124,671l-4,-205l19,49C161,571 184,626 207,681C220,711 232,735 243,752C254,770 263,779 270,779C277,779 284,777 290,772C295,767 298,760 298,753C298,746 280,705 244,629C209,556 188,508 182,484l0,-18C192,441 219,360 262,223C305,86 327,13 327,5C327,-3 324,-10 318,-15C311,-20 304,-23 295,-23C291,-23 287,-22 283,-21z"/>
<glyph unicode="&#x1E8;" horiz-adv-x="356" d="M283,-21C280,-20 276,-20 272,-20C254,82 236,167 218,236C200,305 177,369 150,430l-21,-39C123,380 120,370 119,361C117,341 116,326 116,317C116,297 117,266 119,225C121,184 122,153 122,132l0,-82C122,15 111,-3 88,-3C69,-3 59,16 59,53C59,82 61,127 65,188C70,244 72,289 72,322l1,86l0,104C73,549 71,587 66,627C61,668 59,700 59,721C59,730 62,737 67,743C72,749 79,752 87,752C112,752 124,725 124,671l-4,-205l19,49C161,571 184,626 207,681C220,711 232,735 243,752C254,770 263,779 270,779C277,779 284,777 290,772C295,767 298,760 298,753C298,746 280,705 244,629C209,556 188,508 182,484l0,-18C192,441 219,360 262,223C305,86 327,13 327,5C327,-3 324,-10 318,-15C311,-20 304,-23 295,-23C291,-23 287,-22 283,-21M102,972C102,977 105,982 110,986C115,990 120,992 126,992C133,992 142,982 151,963C158,948 166,923 176,889l13,-46C191,859 192,870 193,876C194,882 195,893 197,910C199,926 202,941 205,954C210,981 220,995 233,995C239,995 244,993 248,989C252,985 254,980 254,974C254,972 253,969 250,966l-4,-7l0,-18l-14,-55C223,847 218,824 218,815C218,794 210,783 193,783C185,783 174,796 159,822C144,847 131,876 120,907C108,938 102,960 102,972z"/>
<glyph unicode="&#x136;" horiz-adv-x="356" d="M283,-21C280,-20 276,-20 272,-20C254,82 236,167 218,236C200,305 177,369 150,430l-21,-39C123,380 120,370 119,361C117,341 116,326 116,317C116,297 117,266 119,225C121,184 122,153 122,132l0,-82C122,15 111,-3 88,-3C69,-3 59,16 59,53C59,82 61,127 65,188C70,244 72,289 72,322l1,86l0,104C73,549 71,587 66,627C61,668 59,700 59,721C59,730 62,737 67,743C72,749 79,752 87,752C112,752 124,725 124,671l-4,-205l19,49C161,571 184,626 207,681C220,711 232,735 243,752C254,770 263,779 270,779C277,779 284,777 290,772C295,767 298,760 298,753C298,746 280,705 244,629C209,556 188,508 182,484l0,-18C192,441 219,360 262,223C305,86 327,13 327,5C327,-3 324,-10 318,-15C311,-20 304,-23 295,-23C291,-23 287,-22 283,-21M120,-257C120,-252 131,-229 153,-186C174,-144 193,-110 209,-85C210,-84 211,-83 214,-83C219,-83 224,-85 229,-90C234,-95 237,-100 237,-105C237,-118 231,-136 219,-158C207,-180 193,-201 177,-221C160,-242 147,-256 136,-263C133,-264 131,-265 130,-265l-2,0C123,-265 120,-262 120,-257z"/>
<glyph unicode="L" horiz-adv-x="250" d="M72,21C72,27 73,34 76,43C78,52 79,59 79,64C79,123 76,237 69,406C62,550 59,664 59,747C59,753 61,758 66,762C71,765 76,767 83,767C91,767 98,764 104,759C110,753 113,746 113,738C113,698 115,638 119,558C122,469 124,409 124,378l1,-12l0,-12l0,-7l0,-5C127,284 128,197 128,82l0,-26l77,0C219,46 226,36 226,26C226,19 224,12 219,7C214,1 208,-2 201,-2C199,-2 195,-1 190,0l-4,1C182,0 176,0 167,0l-17,0C145,1 140,1 134,1C127,-7 118,-11 106,-11C97,-11 90,-8 83,-1C76,5 72,12 72,21z"/>
<glyph unicode="&#x1C7;" horiz-adv-x="518" d="M72,21C72,27 73,34 76,43C78,52 79,59 79,64C79,123 76,237 69,406C62,550 59,664 59,747C59,753 61,758 66,762C71,765 76,767 83,767C91,767 98,764 104,759C110,753 113,746 113,738C113,698 115,638 119,558C122,469 124,409 124,378l1,-12l0,-12l0,-7l0,-5C127,284 128,197 128,82l0,-26l77,0C219,46 226,36 226,26C226,19 224,12 219,7C214,1 208,-2 201,-2C199,-2 195,-1 190,0l-4,1C182,0 176,0 167,0l-17,0C145,1 140,1 134,1C127,-7 118,-11 106,-11C97,-11 90,-8 83,-1C76,5 72,12 72,21M285,-64C285,-57 289,-49 297,-41C305,-33 314,-27 324,-23C334,-10 343,9 352,36C360,63 364,90 364,118l1,49C366,181 366,197 366,215l-1,41l-5,101C355,489 348,605 338,706C336,705 332,704 325,703C314,700 304,698 295,698C288,698 283,701 278,706C273,711 270,716 270,723C270,746 310,758 389,758l13,0C411,758 419,758 424,757C429,756 434,753 439,749C444,745 447,739 447,731C447,714 433,705 405,705C405,705 405,705 405,705C404,705 404,705 404,706l-2,0l-13,0l0,-8C389,681 391,655 395,621C398,582 400,556 400,543C400,496 403,431 410,349C415,272 418,207 418,154l0,-40l0,-40C418,34 410,-1 393,-32C376,-63 352,-84 321,-95C310,-95 302,-92 295,-87C288,-82 285,-74 285,-64z"/>
<glyph unicode="&#x139;" horiz-adv-x="250" d="M72,21C72,27 73,34 76,43C78,52 79,59 79,64C79,123 76,237 69,406C62,550 59,664 59,747C59,753 61,758 66,762C71,765 76,767 83,767C91,767 98,764 104,759C110,753 113,746 113,738C113,698 115,638 119,558C122,469 124,409 124,378l1,-12l0,-12l0,-7l0,-5C127,284 128,197 128,82l0,-26l77,0C219,46 226,36 226,26C226,19 224,12 219,7C214,1 208,-2 201,-2C199,-2 195,-1 190,0l-4,1C182,0 176,0 167,0l-17,0C145,1 140,1 134,1C127,-7 118,-11 106,-11C97,-11 90,-8 83,-1C76,5 72,12 72,21M53,788C53,791 55,795 58,798l16,14C77,815 96,832 130,861l59,51C192,913 195,914 198,914C206,914 213,910 220,902C227,894 230,886 230,877C230,869 228,864 223,861C199,842 150,814 77,777C76,776 73,775 69,775C65,775 61,776 58,779C55,781 53,784 53,788z"/>
<glyph unicode="&#x13D;" horiz-adv-x="250" d="M72,21C72,27 73,34 76,43C78,52 79,59 79,64C79,123 76,237 69,406C62,550 59,664 59,747C59,753 61,758 66,762C71,765 76,767 83,767C91,767 98,764 104,759C110,753 113,746 113,738C113,698 115,638 119,558C122,469 124,409 124,378l1,-12l0,-12l0,-7l0,-5C127,284 128,197 128,82l0,-26l77,0C219,46 226,36 226,26C226,19 224,12 219,7C214,1 208,-2 201,-2C199,-2 195,-1 190,0l-4,1C182,0 176,0 167,0l-17,0C145,1 140,1 134,1C127,-7 118,-11 106,-11C97,-11 90,-8 83,-1C76,5 72,12 72,21M6,972C6,977 9,982 14,986C19,990 24,992 30,992C37,992 46,982 55,963C62,948 70,923 80,889l13,-46C95,859 96,870 97,876C98,882 99,893 101,910C103,926 106,941 109,954C114,981 124,995 137,995C143,995 148,993 152,989C156,985 158,980 158,974C158,972 157,969 154,966l-4,-7l0,-18l-14,-55C127,847 122,824 122,815C122,794 114,783 97,783C89,783 78,796 63,822C48,847 35,876 24,907C12,938 6,960 6,972z"/>
<glyph unicode="&#x13B;" horiz-adv-x="250" d="M72,21C72,27 73,34 76,43C78,52 79,59 79,64C79,123 76,237 69,406C62,550 59,664 59,747C59,753 61,758 66,762C71,765 76,767 83,767C91,767 98,764 104,759C110,753 113,746 113,738C113,698 115,638 119,558C122,469 124,409 124,378l1,-12l0,-12l0,-7l0,-5C127,284 128,197 128,82l0,-26l77,0C219,46 226,36 226,26C226,19 224,12 219,7C214,1 208,-2 201,-2C199,-2 195,-1 190,0l-4,1C182,0 176,0 167,0l-17,0C145,1 140,1 134,1C127,-7 118,-11 106,-11C97,-11 90,-8 83,-1C76,5 72,12 72,21M67,-257C67,-252 78,-229 100,-186C121,-144 140,-110 156,-85C157,-84 158,-83 161,-83C166,-83 171,-85 176,-90C181,-95 184,-100 184,-105C184,-118 178,-136 166,-158C154,-180 140,-201 124,-221C107,-242 94,-256 83,-263C80,-264 78,-265 77,-265l-2,0C70,-265 67,-262 67,-257z"/>
<glyph unicode="&#x13F;" horiz-adv-x="329" d="M72,21C72,27 73,34 76,43C78,52 79,59 79,64C79,123 76,237 69,406C62,550 59,664 59,747C59,753 61,758 66,762C71,765 76,767 83,767C91,767 98,764 104,759C110,753 113,746 113,738C113,698 115,638 119,558C122,469 124,409 124,378l1,-12l0,-12l0,-7l0,-5C127,284 128,197 128,82l0,-26l77,0C219,46 226,36 226,26C226,19 224,12 219,7C214,1 208,-2 201,-2C199,-2 195,-1 190,0l-4,1C182,0 176,0 167,0l-17,0C145,1 140,1 134,1C127,-7 118,-11 106,-11C97,-11 90,-8 83,-1C76,5 72,12 72,21M251,345C251,355 255,364 262,372C269,379 278,383 288,383C297,383 306,379 313,372C320,364 324,355 324,346C324,335 320,327 313,320C305,313 295,309 284,309C275,309 268,313 261,320C254,327 251,336 251,345z"/>
<glyph unicode="&#x1C8;" horiz-adv-x="504" d="M72,21C72,27 73,34 76,43C78,52 79,59 79,64C79,123 76,237 69,406C62,550 59,664 59,747C59,753 61,758 66,762C71,765 76,767 83,767C91,767 98,764 104,759C110,753 113,746 113,738C113,698 115,638 119,558C122,469 124,409 124,378l1,-12l0,-12l0,-7l0,-5C127,284 128,197 128,82l0,-26l77,0C219,46 226,36 226,26C226,19 224,12 219,7C214,1 208,-2 201,-2C199,-2 195,-1 190,0l-4,1C182,0 176,0 167,0l-17,0C145,1 140,1 134,1C127,-7 118,-11 106,-11C97,-11 90,-8 83,-1C76,5 72,12 72,21M248,-82l0,8C249,-71 249,-68 249,-65C249,-62 254,-59 263,-55C295,-45 317,-34 328,-22C347,-1 356,36 356,91C356,135 354,220 351,347C347,458 345,543 345,602l0,4C343,606 340,606 336,607C331,608 326,608 321,608C309,609 299,611 292,613C282,616 275,619 271,623C270,626 269,628 269,631C269,637 273,642 280,647C287,652 294,654 301,654C334,654 372,652 415,647C458,642 479,637 479,631C479,624 477,619 472,615C467,610 460,608 452,608l-51,0C401,573 403,502 406,397C409,319 411,249 411,187l0,-107C411,57 409,37 406,21C401,-4 392,-25 378,-43C363,-64 341,-78 312,-87C297,-92 280,-94 259,-94C252,-94 248,-90 248,-82z"/>
<glyph unicode="&#x141;" horiz-adv-x="279" d="M201,0C200,0 199,0 198,1C197,1 197,1 196,1C192,0 186,0 177,0l-16,0l-16,1l-16,1l-18,0C104,2 97,4 92,8C86,12 83,16 83,21C83,29 84,36 86,43C88,52 89,59 89,64C89,133 86,237 80,375C69,370 60,368 55,368C46,368 39,370 32,375C25,380 22,385 22,392C22,407 41,418 78,426C72,569 69,676 69,747C69,753 71,758 76,762C81,765 86,767 93,767C101,767 108,764 115,759C121,753 124,746 124,738C124,693 125,639 128,578C131,501 133,456 133,441C166,456 195,463 219,463C224,463 229,461 233,456C236,451 238,445 238,438C238,415 203,399 134,389l0,-1C134,382 134,377 135,373l0,-17l0,-9l0,-5C138,265 139,178 139,82l0,-26l76,0C229,46 236,36 236,26C236,19 234,12 229,7C224,1 218,-2 211,-2C210,-2 206,-1 201,0z"/>
<glyph unicode="M" horiz-adv-x="453" d="M326,13l-1,148C324,174 324,195 324,224C323,286 322,356 322,434l0,51C316,453 306,408 291,350C276,290 266,241 260,202l0,-6l-3,-19C256,162 252,147 247,132C240,116 230,108 216,108C192,108 180,139 180,202C180,237 177,274 170,314C163,353 151,402 136,460l-30,112l-2,-120C104,416 106,347 109,246l2,-68l2,-137C113,27 108,14 98,3C81,3 70,8 64,19C57,29 54,44 54,64l2,82C58,182 59,209 59,227l-2,193l-2,194C55,643 56,686 57,743l27,16C89,758 95,755 100,748C105,741 111,729 118,714C135,673 156,590 183,466C187,449 190,434 191,423C199,384 205,355 208,335l15,-77l7,33l19,82C260,421 269,463 276,499C283,535 289,574 296,616C303,666 308,708 310,741l0,6C311,756 315,763 322,768C329,773 337,775 346,775C352,775 357,772 362,767C367,762 369,756 369,750C369,670 372,550 378,391C381,313 384,237 385,162C386,128 387,85 387,33C387,18 383,4 375,-8C367,-20 358,-26 348,-26C341,-26 336,-23 332,-16C328,-9 326,0 326,13z"/>
<glyph unicode="&#x1E40;" horiz-adv-x="453" d="M326,13l-1,148C324,174 324,195 324,224C323,286 322,356 322,434l0,51C316,453 306,408 291,350C276,290 266,241 260,202l0,-6l-3,-19C256,162 252,147 247,132C240,116 230,108 216,108C192,108 180,139 180,202C180,237 177,274 170,314C163,353 151,402 136,460l-30,112l-2,-120C104,416 106,347 109,246l2,-68l2,-137C113,27 108,14 98,3C81,3 70,8 64,19C57,29 54,44 54,64l2,82C58,182 59,209 59,227l-2,193l-2,194C55,643 56,686 57,743l27,16C89,758 95,755 100,748C105,741 111,729 118,714C135,673 156,590 183,466C187,449 190,434 191,423C199,384 205,355 208,335l15,-77l7,33l19,82C260,421 269,463 276,499C283,535 289,574 296,616C303,666 308,708 310,741l0,6C311,756 315,763 322,768C329,773 337,775 346,775C352,775 357,772 362,767C367,762 369,756 369,750C369,670 372,550 378,391C381,313 384,237 385,162C386,128 387,85 387,33C387,18 383,4 375,-8C367,-20 358,-26 348,-26C341,-26 336,-23 332,-16C328,-9 326,0 326,13M191,835C191,845 195,854 202,862C209,869 218,873 228,873C237,873 246,869 253,862C260,854 264,845 264,836C264,825 260,817 253,810C245,803 235,799 224,799C215,799 208,803 201,810C194,817 191,826 191,835z"/>
<glyph unicode="N" horiz-adv-x="412" d="M225,191C178,352 138,499 104,634l0,-328C104,278 107,230 112,163C117,90 119,42 119,21C119,15 115,10 108,6C101,1 92,-1 83,-1C69,-1 62,4 62,15l2,29C65,65 66,79 66,86C66,121 64,177 60,254C56,332 54,379 54,396l0,128C54,545 55,575 57,616C60,651 61,682 61,708l0,6C61,747 68,764 83,764C92,764 103,749 116,720C138,672 166,586 200,462C219,390 242,297 268,184C267,187 273,164 284,115l1,-5C285,175 286,233 287,284l2,174l0,296C292,771 302,779 321,779C339,779 348,766 348,740l0,-6C344,726 342,716 342,705C342,664 341,603 339,521C337,438 336,376 336,335l0,-305C336,19 333,9 328,0C322,-10 315,-15 307,-15C294,-15 266,54 225,191z"/>
<glyph unicode="&#x1CA;" horiz-adv-x="680" d="M225,191C178,352 138,499 104,634l0,-328C104,278 107,230 112,163C117,90 119,42 119,21C119,15 115,10 108,6C101,1 92,-1 83,-1C69,-1 62,4 62,15l2,29C65,65 66,79 66,86C66,121 64,177 60,254C56,332 54,379 54,396l0,128C54,545 55,575 57,616C60,651 61,682 61,708l0,6C61,747 68,764 83,764C92,764 103,749 116,720C138,672 166,586 200,462C219,390 242,297 268,184C267,187 273,164 284,115l1,-5C285,175 286,233 287,284l2,174l0,296C292,771 302,779 321,779C339,779 348,766 348,740l0,-6C344,726 342,716 342,705C342,664 341,603 339,521C337,438 336,376 336,335l0,-305C336,19 333,9 328,0C322,-10 315,-15 307,-15C294,-15 266,54 225,191M447,-64C447,-57 451,-49 459,-41C467,-33 476,-27 486,-23C496,-10 505,9 514,36C522,63 526,90 526,118l1,49C528,181 528,197 528,215l-1,41l-5,101C517,489 510,605 500,706C498,705 494,704 487,703C476,700 466,698 457,698C450,698 445,701 440,706C435,711 432,716 432,723C432,746 472,758 551,758l13,0C573,758 581,758 586,757C591,756 596,753 601,749C606,745 609,739 609,731C609,714 595,705 567,705C567,705 567,705 567,705C566,705 566,705 566,706l-2,0l-13,0l0,-8C551,681 553,655 557,621C560,582 562,556 562,543C562,496 565,431 572,349C577,272 580,207 580,154l0,-40l0,-40C580,34 572,-1 555,-32C538,-63 514,-84 483,-95C472,-95 464,-92 457,-87C450,-82 447,-74 447,-64z"/>
<glyph unicode="&#x143;" horiz-adv-x="412" d="M225,191C178,352 138,499 104,634l0,-328C104,278 107,230 112,163C117,90 119,42 119,21C119,15 115,10 108,6C101,1 92,-1 83,-1C69,-1 62,4 62,15l2,29C65,65 66,79 66,86C66,121 64,177 60,254C56,332 54,379 54,396l0,128C54,545 55,575 57,616C60,651 61,682 61,708l0,6C61,747 68,764 83,764C92,764 103,749 116,720C138,672 166,586 200,462C219,390 242,297 268,184C267,187 273,164 284,115l1,-5C285,175 286,233 287,284l2,174l0,296C292,771 302,779 321,779C339,779 348,766 348,740l0,-6C344,726 342,716 342,705C342,664 341,603 339,521C337,438 336,376 336,335l0,-305C336,19 333,9 328,0C322,-10 315,-15 307,-15C294,-15 266,54 225,191M177,788C177,791 179,795 182,798l16,14C201,815 220,832 254,861l59,51C316,913 319,914 322,914C330,914 337,910 344,902C351,894 354,886 354,877C354,869 352,864 347,861C323,842 274,814 201,777C200,776 197,775 193,775C189,775 185,776 182,779C179,781 177,784 177,788z"/>
<glyph unicode="&#x147;" horiz-adv-x="412" d="M225,191C178,352 138,499 104,634l0,-328C104,278 107,230 112,163C117,90 119,42 119,21C119,15 115,10 108,6C101,1 92,-1 83,-1C69,-1 62,4 62,15l2,29C65,65 66,79 66,86C66,121 64,177 60,254C56,332 54,379 54,396l0,128C54,545 55,575 57,616C60,651 61,682 61,708l0,6C61,747 68,764 83,764C92,764 103,749 116,720C138,672 166,586 200,462C219,390 242,297 268,184C267,187 273,164 284,115l1,-5C285,175 286,233 287,284l2,174l0,296C292,771 302,779 321,779C339,779 348,766 348,740l0,-6C344,726 342,716 342,705C342,664 341,603 339,521C337,438 336,376 336,335l0,-305C336,19 333,9 328,0C322,-10 315,-15 307,-15C294,-15 266,54 225,191M130,972C130,977 133,982 138,986C143,990 148,992 154,992C161,992 170,982 179,963C186,948 194,923 204,889l13,-46C219,859 220,870 221,876C222,882 223,893 225,910C227,926 230,941 233,954C238,981 248,995 261,995C267,995 272,993 276,989C280,985 282,980 282,974C282,972 281,969 278,966l-4,-7l0,-18l-14,-55C251,847 246,824 246,815C246,794 238,783 221,783C213,783 202,796 187,822C172,847 159,876 148,907C136,938 130,960 130,972z"/>
<glyph unicode="&#x145;" horiz-adv-x="412" d="M225,191C178,352 138,499 104,634l0,-328C104,278 107,230 112,163C117,90 119,42 119,21C119,15 115,10 108,6C101,1 92,-1 83,-1C69,-1 62,4 62,15l2,29C65,65 66,79 66,86C66,121 64,177 60,254C56,332 54,379 54,396l0,128C54,545 55,575 57,616C60,651 61,682 61,708l0,6C61,747 68,764 83,764C92,764 103,749 116,720C138,672 166,586 200,462C219,390 242,297 268,184C267,187 273,164 284,115l1,-5C285,175 286,233 287,284l2,174l0,296C292,771 302,779 321,779C339,779 348,766 348,740l0,-6C344,726 342,716 342,705C342,664 341,603 339,521C337,438 336,376 336,335l0,-305C336,19 333,9 328,0C322,-10 315,-15 307,-15C294,-15 266,54 225,191M148,-257C148,-252 159,-229 181,-186C202,-144 221,-110 237,-85C238,-84 239,-83 242,-83C247,-83 252,-85 257,-90C262,-95 265,-100 265,-105C265,-118 259,-136 247,-158C235,-180 221,-201 205,-221C188,-242 175,-256 164,-263C161,-264 159,-265 158,-265l-2,0C151,-265 148,-262 148,-257z"/>
<glyph unicode="&#x1E46;" horiz-adv-x="412" d="M225,191C178,352 138,499 104,634l0,-328C104,278 107,230 112,163C117,90 119,42 119,21C119,15 115,10 108,6C101,1 92,-1 83,-1C69,-1 62,4 62,15l2,29C65,65 66,79 66,86C66,121 64,177 60,254C56,332 54,379 54,396l0,128C54,545 55,575 57,616C60,651 61,682 61,708l0,6C61,747 68,764 83,764C92,764 103,749 116,720C138,672 166,586 200,462C219,390 242,297 268,184C267,187 273,164 284,115l1,-5C285,175 286,233 287,284l2,174l0,296C292,771 302,779 321,779C339,779 348,766 348,740l0,-6C344,726 342,716 342,705C342,664 341,603 339,521C337,438 336,376 336,335l0,-305C336,19 333,9 328,0C322,-10 315,-15 307,-15C294,-15 266,54 225,191M169,-132C169,-122 173,-113 181,-105C188,-98 197,-94 207,-94C216,-94 225,-98 232,-105C239,-113 242,-122 242,-132C242,-143 238,-151 231,-158C224,-165 214,-168 203,-168C194,-168 187,-164 180,-157C173,-150 169,-141 169,-132z"/>
<glyph unicode="&#x1F8;" horiz-adv-x="412" d="M225,191C178,352 138,499 104,634l0,-328C104,278 107,230 112,163C117,90 119,42 119,21C119,15 115,10 108,6C101,1 92,-1 83,-1C69,-1 62,4 62,15l2,29C65,65 66,79 66,86C66,121 64,177 60,254C56,332 54,379 54,396l0,128C54,545 55,575 57,616C60,651 61,682 61,708l0,6C61,747 68,764 83,764C92,764 103,749 116,720C138,672 166,586 200,462C219,390 242,297 268,184C267,187 273,164 284,115l1,-5C285,175 286,233 287,284l2,174l0,296C292,771 302,779 321,779C339,779 348,766 348,740l0,-6C344,726 342,716 342,705C342,664 341,603 339,521C337,438 336,376 336,335l0,-305C336,19 333,9 328,0C322,-10 315,-15 307,-15C294,-15 266,54 225,191M66,842C66,850 70,859 77,868C84,877 92,881 99,881C103,881 119,874 146,860C173,846 199,832 222,817C245,802 257,791 257,786C257,781 255,779 250,779C243,779 224,784 193,793C162,802 133,811 106,821C79,831 66,838 66,842z"/>
<glyph unicode="&#x14A;" horiz-adv-x="465" d="M227,-159C227,-150 230,-142 236,-135C241,-128 249,-123 258,-119C271,-112 281,-107 288,-102C295,-97 302,-91 307,-84C313,-76 316,-66 316,-55l0,35l0,36C297,58 270,138 236,255C202,372 168,499 135,634l0,-328C135,269 137,222 142,163C147,90 149,42 149,21C149,15 145,10 138,6C131,1 123,-1 114,-1C99,-1 92,4 92,15l2,29C96,60 97,74 97,86C97,126 95,182 90,254C86,332 84,379 84,396l0,128C84,545 85,575 87,616C90,651 91,682 91,708l0,6C91,747 98,764 113,764C122,764 133,749 146,720C168,672 196,586 230,462C249,390 272,297 298,184l16,-69l1,-5C315,175 316,233 317,284l2,174l0,296C323,771 334,779 352,779C369,779 378,766 378,740l0,-6l-4,-8C369,717 366,710 366,705l0,-684l0,-37C366,-36 365,-50 364,-59C363,-69 361,-78 360,-85C359,-92 356,-99 353,-105C350,-112 347,-118 344,-121C341,-125 337,-130 330,-136C324,-142 318,-147 313,-150l-50,-39C252,-189 244,-186 237,-181C230,-176 227,-169 227,-159z"/>
<glyph unicode="&#x19D;" horiz-adv-x="412" d="M-21,-159C-21,-150 -18,-142 -12,-135C-6,-128 2,-123 11,-119C13,-118 18,-115 26,-111C33,-108 40,-104 46,-99C51,-94 56,-89 60,-84C65,-75 68,-66 68,-55l1,35l0,36l-3,70C66,121 64,177 60,254C56,332 54,379 54,396l0,128C54,545 55,575 57,616C60,651 61,682 61,708l0,6C61,747 68,764 83,764C92,764 103,749 116,720C138,672 166,586 200,462C219,390 242,297 268,184C267,187 273,164 284,115l1,-5C285,175 286,233 287,284l2,174l0,296C292,771 302,779 321,779C339,779 348,766 348,740l0,-6C344,726 342,716 342,705C342,664 341,603 339,521C337,438 336,376 336,335l0,-305C336,19 333,9 328,0C322,-10 315,-15 307,-15C294,-15 266,54 225,191C178,352 138,499 104,634l0,-328C104,278 107,230 112,163C117,90 119,42 119,21C119,-18 118,-44 116,-59C115,-62 115,-67 114,-74C113,-81 112,-87 111,-91C110,-96 108,-100 105,-105C101,-113 98,-119 96,-122C93,-125 89,-130 83,-136C75,-143 69,-148 65,-150l-49,-39C5,-189 -3,-186 -10,-181C-17,-176 -21,-168 -21,-159z"/>
<glyph unicode="&#x1CB;" horiz-adv-x="666" d="M225,191C178,352 138,499 104,634l0,-328C104,278 107,230 112,163C117,90 119,42 119,21C119,15 115,10 108,6C101,1 92,-1 83,-1C69,-1 62,4 62,15l2,29C65,65 66,79 66,86C66,121 64,177 60,254C56,332 54,379 54,396l0,128C54,545 55,575 57,616C60,651 61,682 61,708l0,6C61,747 68,764 83,764C92,764 103,749 116,720C138,672 166,586 200,462C219,390 242,297 268,184C267,187 273,164 284,115l1,-5C285,175 286,233 287,284l2,174l0,296C292,771 302,779 321,779C339,779 348,766 348,740l0,-6C344,726 342,716 342,705C342,664 341,603 339,521C337,438 336,376 336,335l0,-305C336,19 333,9 328,0C322,-10 315,-15 307,-15C294,-15 266,54 225,191M410,-82l0,8C411,-71 411,-68 411,-65C411,-62 416,-59 425,-55C457,-45 479,-34 490,-22C509,-1 518,36 518,91C518,135 516,220 513,347C509,458 507,543 507,602l0,4C505,606 502,606 498,607C493,608 488,608 483,608C471,609 461,611 454,613C444,616 437,619 433,623C432,626 431,628 431,631C431,637 435,642 442,647C449,652 456,654 463,654C496,654 534,652 577,647C620,642 641,637 641,631C641,624 639,619 634,615C629,610 622,608 614,608l-51,0C563,573 565,502 568,397C571,319 573,249 573,187l0,-107C573,57 571,37 568,21C563,-4 554,-25 540,-43C525,-64 503,-78 474,-87C459,-92 442,-94 421,-94C414,-94 410,-90 410,-82z"/>
<glyph unicode="&#xD1;" horiz-adv-x="412" d="M225,191C178,352 138,499 104,634l0,-328C104,278 107,230 112,163C117,90 119,42 119,21C119,15 115,10 108,6C101,1 92,-1 83,-1C69,-1 62,4 62,15l2,29C65,65 66,79 66,86C66,121 64,177 60,254C56,332 54,379 54,396l0,128C54,545 55,575 57,616C60,651 61,682 61,708l0,6C61,747 68,764 83,764C92,764 103,749 116,720C138,672 166,586 200,462C219,390 242,297 268,184C267,187 273,164 284,115l1,-5C285,175 286,233 287,284l2,174l0,296C292,771 302,779 321,779C339,779 348,766 348,740l0,-6C344,726 342,716 342,705C342,664 341,603 339,521C337,438 336,376 336,335l0,-305C336,19 333,9 328,0C322,-10 315,-15 307,-15C294,-15 266,54 225,191M190,800C185,806 180,811 173,815C166,819 159,821 151,821C146,819 143,816 141,813C139,810 139,806 140,802l0,-2C140,791 135,785 125,782C114,782 106,785 99,790C92,795 89,802 89,811C89,828 96,842 109,853C122,864 140,869 162,869C169,869 184,862 205,849C226,836 240,829 246,829C252,829 257,831 261,835C264,839 266,844 267,849C268,854 271,859 275,863C278,867 283,869 289,869C300,869 308,867 314,862C319,857 322,850 322,843C322,826 316,811 303,798C290,785 275,778 258,778C241,778 227,780 215,785C203,789 195,794 190,800z"/>
<glyph unicode="O" horiz-adv-x="355" d="M104,39C85,75 70,124 61,187C54,230 49,280 46,337l-1,53l0,54C44,461 44,482 44,507C44,547 46,582 49,613C52,645 58,677 69,708C80,735 95,755 115,766C127,771 139,774 151,774C186,774 214,760 235,732C258,701 273,666 280,627C291,580 297,536 298,493C301,446 302,401 302,359l0,-57C302,291 300,269 297,238C294,213 293,192 293,175l0,-4C289,152 287,130 287,105C287,86 283,67 275,47C267,27 256,10 241,-4C226,-20 210,-28 191,-28C173,-28 157,-22 142,-10C127,2 115,18 104,39M227,64C235,86 241,113 245,145C248,176 251,212 254,252C255,269 256,292 256,319l-1,92C254,447 250,492 243,546C238,592 228,633 213,668C206,685 198,698 188,707C178,716 167,721 156,721C139,721 127,708 119,682C109,655 102,625 99,592C95,557 93,523 92,491l-1,-33C90,449 90,436 90,420l0,-4C90,371 95,316 104,251C115,162 130,99 151,62C164,39 178,27 193,27C206,27 218,39 227,64z"/>
<glyph unicode="&#xD3;" horiz-adv-x="355" d="M104,39C85,75 70,124 61,187C54,230 49,280 46,337l-1,53l0,54C44,461 44,482 44,507C44,547 46,582 49,613C52,645 58,677 69,708C80,735 95,755 115,766C127,771 139,774 151,774C186,774 214,760 235,732C258,701 273,666 280,627C291,580 297,536 298,493C301,446 302,401 302,359l0,-57C302,291 300,269 297,238C294,213 293,192 293,175l0,-4C289,152 287,130 287,105C287,86 283,67 275,47C267,27 256,10 241,-4C226,-20 210,-28 191,-28C173,-28 157,-22 142,-10C127,2 115,18 104,39M227,64C235,86 241,113 245,145C248,176 251,212 254,252C255,269 256,292 256,319l-1,92C254,447 250,492 243,546C238,592 228,633 213,668C206,685 198,698 188,707C178,716 167,721 156,721C139,721 127,708 119,682C109,655 102,625 99,592C95,557 93,523 92,491l-1,-33C90,449 90,436 90,420l0,-4C90,371 95,316 104,251C115,162 130,99 151,62C164,39 178,27 193,27C206,27 218,39 227,64M124,802C124,805 126,809 129,812l16,14C148,829 167,846 201,875l59,51C263,927 266,928 269,928C277,928 284,924 291,916C298,908 301,900 301,891C301,883 299,878 294,875C270,856 221,828 148,791C147,790 144,789 140,789C136,789 132,790 129,793C126,795 124,798 124,802z"/>
<glyph unicode="&#x14E;" horiz-adv-x="355" d="M104,39C85,75 70,124 61,187C54,230 49,280 46,337l-1,53l0,54C44,461 44,482 44,507C44,547 46,582 49,613C52,645 58,677 69,708C80,735 95,755 115,766C127,771 139,774 151,774C186,774 214,760 235,732C258,701 273,666 280,627C291,580 297,536 298,493C301,446 302,401 302,359l0,-57C302,291 300,269 297,238C294,213 293,192 293,175l0,-4C289,152 287,130 287,105C287,86 283,67 275,47C267,27 256,10 241,-4C226,-20 210,-28 191,-28C173,-28 157,-22 142,-10C127,2 115,18 104,39M227,64C235,86 241,113 245,145C248,176 251,212 254,252C255,269 256,292 256,319l-1,92C254,447 250,492 243,546C238,592 228,633 213,668C206,685 198,698 188,707C178,716 167,721 156,721C139,721 127,708 119,682C109,655 102,625 99,592C95,557 93,523 92,491l-1,-33C90,449 90,436 90,420l0,-4C90,371 95,316 104,251C115,162 130,99 151,62C164,39 178,27 193,27C206,27 218,39 227,64M110,845C98,868 92,895 92,924C92,928 94,932 98,935C101,938 106,939 111,939C118,939 125,935 131,926C137,917 142,907 145,895C148,883 153,873 158,864C163,855 169,851 174,851C185,851 193,856 199,866C205,876 208,886 208,897C208,910 210,920 214,926C218,932 225,935 236,935C243,935 250,933 255,928C260,923 263,917 263,910C263,901 262,893 261,885C256,861 246,842 232,827C218,812 200,805 177,805C162,805 148,809 137,816C125,823 116,832 110,845z"/>
<glyph unicode="&#x1D1;" horiz-adv-x="355" d="M104,39C85,75 70,124 61,187C54,230 49,280 46,337l-1,53l0,54C44,461 44,482 44,507C44,547 46,582 49,613C52,645 58,677 69,708C80,735 95,755 115,766C127,771 139,774 151,774C186,774 214,760 235,732C258,701 273,666 280,627C291,580 297,536 298,493C301,446 302,401 302,359l0,-57C302,291 300,269 297,238C294,213 293,192 293,175l0,-4C289,152 287,130 287,105C287,86 283,67 275,47C267,27 256,10 241,-4C226,-20 210,-28 191,-28C173,-28 157,-22 142,-10C127,2 115,18 104,39M227,64C235,86 241,113 245,145C248,176 251,212 254,252C255,269 256,292 256,319l-1,92C254,447 250,492 243,546C238,592 228,633 213,668C206,685 198,698 188,707C178,716 167,721 156,721C139,721 127,708 119,682C109,655 102,625 99,592C95,557 93,523 92,491l-1,-33C90,449 90,436 90,420l0,-4C90,371 95,316 104,251C115,162 130,99 151,62C164,39 178,27 193,27C206,27 218,39 227,64M77,986C77,991 80,996 85,1000C90,1004 95,1006 101,1006C108,1006 117,996 126,977C133,962 141,937 151,903l13,-46C166,873 167,884 168,890C169,896 170,907 172,924C174,940 177,955 180,968C185,995 195,1009 208,1009C214,1009 219,1007 223,1003C227,999 229,994 229,988C229,986 228,983 225,980l-4,-7l0,-18l-14,-55C198,861 193,838 193,829C193,808 185,797 168,797C160,797 149,810 134,836C119,861 106,890 95,921C83,952 77,974 77,986z"/>
<glyph unicode="&#xD4;" horiz-adv-x="355" d="M104,39C85,75 70,124 61,187C54,230 49,280 46,337l-1,53l0,54C44,461 44,482 44,507C44,547 46,582 49,613C52,645 58,677 69,708C80,735 95,755 115,766C127,771 139,774 151,774C186,774 214,760 235,732C258,701 273,666 280,627C291,580 297,536 298,493C301,446 302,401 302,359l0,-57C302,291 300,269 297,238C294,213 293,192 293,175l0,-4C289,152 287,130 287,105C287,86 283,67 275,47C267,27 256,10 241,-4C226,-20 210,-28 191,-28C173,-28 157,-22 142,-10C127,2 115,18 104,39M227,64C235,86 241,113 245,145C248,176 251,212 254,252C255,269 256,292 256,319l-1,92C254,447 250,492 243,546C238,592 228,633 213,668C206,685 198,698 188,707C178,716 167,721 156,721C139,721 127,708 119,682C109,655 102,625 99,592C95,557 93,523 92,491l-1,-33C90,449 90,436 90,420l0,-4C90,371 95,316 104,251C115,162 130,99 151,62C164,39 178,27 193,27C206,27 218,39 227,64M224,795l-39,135l-51,-128C132,797 127,795 120,795C113,795 108,797 103,801C98,804 95,809 95,815C95,819 96,822 97,824l35,88C135,917 139,926 144,939C149,952 153,960 156,965C163,977 171,985 179,989C184,990 189,991 193,991C198,991 203,988 207,982C216,967 225,945 232,914l13,-48C251,842 255,826 258,818C259,816 259,813 259,809C259,803 257,798 252,794C247,790 242,788 236,788C229,788 225,790 224,795z"/>
<glyph unicode="&#x1ED0;" horiz-adv-x="355" d="M104,39C85,75 70,124 61,187C54,230 49,280 46,337l-1,53l0,54C44,461 44,482 44,507C44,547 46,582 49,613C52,645 58,677 69,708C80,735 95,755 115,766C127,771 139,774 151,774C186,774 214,760 235,732C258,701 273,666 280,627C291,580 297,536 298,493C301,446 302,401 302,359l0,-57C302,291 300,269 297,238C294,213 293,192 293,175l0,-4C289,152 287,130 287,105C287,86 283,67 275,47C267,27 256,10 241,-4C226,-20 210,-28 191,-28C173,-28 157,-22 142,-10C127,2 115,18 104,39M227,64C235,86 241,113 245,145C248,176 251,212 254,252C255,269 256,292 256,319l-1,92C254,447 250,492 243,546C238,592 228,633 213,668C206,685 198,698 188,707C178,716 167,721 156,721C139,721 127,708 119,682C109,655 102,625 99,592C95,557 93,523 92,491l-1,-33C90,449 90,436 90,420l0,-4C90,371 95,316 104,251C115,162 130,99 151,62C164,39 178,27 193,27C206,27 218,39 227,64M199,790l-39,135l-51,-128C107,792 102,790 95,790C88,790 83,792 78,796C73,799 70,804 70,810C70,814 71,817 72,819l35,88C110,912 114,921 119,934C124,947 128,955 131,960C138,972 146,980 154,984C159,985 164,986 168,986C173,986 178,983 182,977C191,962 200,940 207,909l13,-48C226,837 230,821 233,813C234,811 234,808 234,804C234,798 232,793 227,789C222,785 217,783 211,783C204,783 200,785 199,790M223,904C223,907 225,911 228,914l16,14C247,931 266,948 300,977l59,51C362,1029 365,1030 368,1030C376,1030 383,1026 390,1018C397,1010 400,1002 400,993C400,985 398,980 393,977C369,958 320,930 247,893C246,892 243,891 239,891C235,891 231,892 228,895C225,897 223,900 223,904z"/>
<glyph unicode="&#x1ED8;" horiz-adv-x="355" d="M104,39C85,75 70,124 61,187C54,230 49,280 46,337l-1,53l0,54C44,461 44,482 44,507C44,547 46,582 49,613C52,645 58,677 69,708C80,735 95,755 115,766C127,771 139,774 151,774C186,774 214,760 235,732C258,701 273,666 280,627C291,580 297,536 298,493C301,446 302,401 302,359l0,-57C302,291 300,269 297,238C294,213 293,192 293,175l0,-4C289,152 287,130 287,105C287,86 283,67 275,47C267,27 256,10 241,-4C226,-20 210,-28 191,-28C173,-28 157,-22 142,-10C127,2 115,18 104,39M227,64C235,86 241,113 245,145C248,176 251,212 254,252C255,269 256,292 256,319l-1,92C254,447 250,492 243,546C238,592 228,633 213,668C206,685 198,698 188,707C178,716 167,721 156,721C139,721 127,708 119,682C109,655 102,625 99,592C95,557 93,523 92,491l-1,-33C90,449 90,436 90,420l0,-4C90,371 95,316 104,251C115,162 130,99 151,62C164,39 178,27 193,27C206,27 218,39 227,64M224,795l-39,135l-51,-128C132,797 127,795 120,795C113,795 108,797 103,801C98,804 95,809 95,815C95,819 96,822 97,824l35,88C135,917 139,926 144,939C149,952 153,960 156,965C163,977 171,985 179,989C184,990 189,991 193,991C198,991 203,988 207,982C216,967 225,945 232,914l13,-48C251,842 255,826 258,818C259,816 259,813 259,809C259,803 257,798 252,794C247,790 242,788 236,788C229,788 225,790 224,795M141,-132C141,-122 145,-113 153,-105C160,-98 169,-94 179,-94C188,-94 197,-98 204,-105C211,-113 214,-122 214,-132C214,-143 210,-151 203,-158C196,-165 186,-168 175,-168C166,-168 159,-164 152,-157C145,-150 141,-141 141,-132z"/>
<glyph unicode="&#x1ED2;" horiz-adv-x="355" d="M104,39C85,75 70,124 61,187C54,230 49,280 46,337l-1,53l0,54C44,461 44,482 44,507C44,547 46,582 49,613C52,645 58,677 69,708C80,735 95,755 115,766C127,771 139,774 151,774C186,774 214,760 235,732C258,701 273,666 280,627C291,580 297,536 298,493C301,446 302,401 302,359l0,-57C302,291 300,269 297,238C294,213 293,192 293,175l0,-4C289,152 287,130 287,105C287,86 283,67 275,47C267,27 256,10 241,-4C226,-20 210,-28 191,-28C173,-28 157,-22 142,-10C127,2 115,18 104,39M227,64C235,86 241,113 245,145C248,176 251,212 254,252C255,269 256,292 256,319l-1,92C254,447 250,492 243,546C238,592 228,633 213,668C206,685 198,698 188,707C178,716 167,721 156,721C139,721 127,708 119,682C109,655 102,625 99,592C95,557 93,523 92,491l-1,-33C90,449 90,436 90,420l0,-4C90,371 95,316 104,251C115,162 130,99 151,62C164,39 178,27 193,27C206,27 218,39 227,64M201,790l-39,135l-51,-128C109,792 104,790 97,790C90,790 85,792 80,796C75,799 72,804 72,810C72,814 73,817 74,819l35,88C112,912 116,921 121,934C126,947 130,955 133,960C140,972 148,980 156,984C161,985 166,986 170,986C175,986 180,983 184,977C193,962 202,940 209,909l13,-48C228,837 232,821 235,813C236,811 236,808 236,804C236,798 234,793 229,789C224,785 219,783 213,783C206,783 202,785 201,790M-77,995C-74,1002 -68,1009 -58,1015C-48,1021 -40,1023 -33,1020C-30,1019 -17,1007 4,985C25,962 44,940 61,918C78,895 85,882 83,877C81,872 78,871 74,873C67,875 51,886 25,905C-2,924 -26,943 -47,962C-69,980 -79,991 -77,995z"/>
<glyph unicode="&#x1ED4;" horiz-adv-x="355" d="M104,39C85,75 70,124 61,187C54,230 49,280 46,337l-1,53l0,54C44,461 44,482 44,507C44,547 46,582 49,613C52,645 58,677 69,708C80,735 95,755 115,766C127,771 139,774 151,774C186,774 214,760 235,732C258,701 273,666 280,627C291,580 297,536 298,493C301,446 302,401 302,359l0,-57C302,291 300,269 297,238C294,213 293,192 293,175l0,-4C289,152 287,130 287,105C287,86 283,67 275,47C267,27 256,10 241,-4C226,-20 210,-28 191,-28C173,-28 157,-22 142,-10C127,2 115,18 104,39M227,64C235,86 241,113 245,145C248,176 251,212 254,252C255,269 256,292 256,319l-1,92C254,447 250,492 243,546C238,592 228,633 213,668C206,685 198,698 188,707C178,716 167,721 156,721C139,721 127,708 119,682C109,655 102,625 99,592C95,557 93,523 92,491l-1,-33C90,449 90,436 90,420l0,-4C90,371 95,316 104,251C115,162 130,99 151,62C164,39 178,27 193,27C206,27 218,39 227,64M209,790l-39,135l-51,-128C117,792 112,790 105,790C98,790 93,792 88,796C83,799 80,804 80,810C80,814 81,817 82,819l35,88C120,912 124,921 129,934C134,947 138,955 141,960C148,972 156,980 164,984C169,985 174,986 178,986C183,986 188,983 192,977C201,962 210,940 217,909l13,-48C236,837 240,821 243,813C244,811 244,808 244,804C244,798 242,793 237,789C232,785 227,783 221,783C214,783 210,785 209,790M287,899C287,920 292,935 302,943C312,950 326,956 343,959C353,961 360,963 365,966C370,968 372,972 372,977C372,987 367,995 358,1002C349,1009 335,1012 318,1012C303,1012 291,1009 282,1004C273,999 269,992 269,983C269,982 271,979 275,973C275,972 272,968 265,962C258,956 253,953 248,953C239,953 233,955 228,960C223,965 220,970 220,975l0,9C220,1007 228,1024 245,1037C261,1049 285,1055 316,1055C358,1055 387,1047 402,1032C417,1016 424,998 424,977C424,959 419,947 410,941C400,934 386,929 368,924C357,922 348,920 343,917C338,914 335,910 335,904l0,-18C322,886 316,886 315,885C312,884 311,883 310,883C299,883 291,888 287,899z"/>
<glyph unicode="&#x1ED6;" horiz-adv-x="355" d="M104,39C85,75 70,124 61,187C54,230 49,280 46,337l-1,53l0,54C44,461 44,482 44,507C44,547 46,582 49,613C52,645 58,677 69,708C80,735 95,755 115,766C127,771 139,774 151,774C186,774 214,760 235,732C258,701 273,666 280,627C291,580 297,536 298,493C301,446 302,401 302,359l0,-57C302,291 300,269 297,238C294,213 293,192 293,175l0,-4C289,152 287,130 287,105C287,86 283,67 275,47C267,27 256,10 241,-4C226,-20 210,-28 191,-28C173,-28 157,-22 142,-10C127,2 115,18 104,39M227,64C235,86 241,113 245,145C248,176 251,212 254,252C255,269 256,292 256,319l-1,92C254,447 250,492 243,546C238,592 228,633 213,668C206,685 198,698 188,707C178,716 167,721 156,721C139,721 127,708 119,682C109,655 102,625 99,592C95,557 93,523 92,491l-1,-33C90,449 90,436 90,420l0,-4C90,371 95,316 104,251C115,162 130,99 151,62C164,39 178,27 193,27C206,27 218,39 227,64M224,795l-39,135l-51,-128C132,797 127,795 120,795C113,795 108,797 103,801C98,804 95,809 95,815C95,819 96,822 97,824l35,88C135,917 139,926 144,939C149,952 153,960 156,965C163,977 171,985 179,989C184,990 189,991 193,991C198,991 203,988 207,982C216,967 225,945 232,914l13,-48C251,842 255,826 258,818C259,816 259,813 259,809C259,803 257,798 252,794C247,790 242,788 236,788C229,788 225,790 224,795M161,1033C156,1039 151,1044 144,1048C137,1052 130,1054 122,1054C117,1052 114,1049 112,1046C110,1043 110,1039 111,1035l0,-2C111,1024 106,1018 96,1015C85,1015 77,1018 70,1023C63,1028 60,1035 60,1044C60,1061 67,1075 80,1086C93,1097 111,1102 133,1102C140,1102 155,1095 176,1082C197,1069 211,1062 217,1062C223,1062 228,1064 232,1068C235,1072 237,1077 238,1082C239,1087 242,1092 246,1096C249,1100 254,1102 260,1102C271,1102 279,1100 285,1095C290,1090 293,1083 293,1076C293,1059 287,1044 274,1031C261,1018 246,1011 229,1011C212,1011 198,1013 186,1018C174,1022 166,1027 161,1033z"/>
<glyph unicode="&#x20C;" horiz-adv-x="355" d="M104,39C85,75 70,124 61,187C54,230 49,280 46,337l-1,53l0,54C44,461 44,482 44,507C44,547 46,582 49,613C52,645 58,677 69,708C80,735 95,755 115,766C127,771 139,774 151,774C186,774 214,760 235,732C258,701 273,666 280,627C291,580 297,536 298,493C301,446 302,401 302,359l0,-57C302,291 300,269 297,238C294,213 293,192 293,175l0,-4C289,152 287,130 287,105C287,86 283,67 275,47C267,27 256,10 241,-4C226,-20 210,-28 191,-28C173,-28 157,-22 142,-10C127,2 115,18 104,39M227,64C235,86 241,113 245,145C248,176 251,212 254,252C255,269 256,292 256,319l-1,92C254,447 250,492 243,546C238,592 228,633 213,668C206,685 198,698 188,707C178,716 167,721 156,721C139,721 127,708 119,682C109,655 102,625 99,592C95,557 93,523 92,491l-1,-33C90,449 90,436 90,420l0,-4C90,371 95,316 104,251C115,162 130,99 151,62C164,39 178,27 193,27C206,27 218,39 227,64M18,943l-9,16C11,966 15,973 20,978C25,983 31,985 38,985C43,985 58,972 82,946C107,918 130,890 151,862C172,834 182,817 182,810C182,802 179,798 172,798C71,893 19,941 18,943M193,901C174,926 164,945 164,956C164,959 167,963 173,966C178,969 184,970 189,970C194,970 205,958 223,933C240,908 257,882 273,855C289,827 297,809 298,801l-7,-11C256,824 223,861 193,901z"/>
<glyph unicode="&#xD6;" horiz-adv-x="355" d="M104,39C85,75 70,124 61,187C54,230 49,280 46,337l-1,53l0,54C44,461 44,482 44,507C44,547 46,582 49,613C52,645 58,677 69,708C80,735 95,755 115,766C127,771 139,774 151,774C186,774 214,760 235,732C258,701 273,666 280,627C291,580 297,536 298,493C301,446 302,401 302,359l0,-57C302,291 300,269 297,238C294,213 293,192 293,175l0,-4C289,152 287,130 287,105C287,86 283,67 275,47C267,27 256,10 241,-4C226,-20 210,-28 191,-28C173,-28 157,-22 142,-10C127,2 115,18 104,39M227,64C235,86 241,113 245,145C248,176 251,212 254,252C255,269 256,292 256,319l-1,92C254,447 250,492 243,546C238,592 228,633 213,668C206,685 198,698 188,707C178,716 167,721 156,721C139,721 127,708 119,682C109,655 102,625 99,592C95,557 93,523 92,491l-1,-33C90,449 90,436 90,420l0,-4C90,371 95,316 104,251C115,162 130,99 151,62C164,39 178,27 193,27C206,27 218,39 227,64M60,834C60,844 64,853 72,861C79,868 88,872 98,872C107,872 116,868 123,861C130,853 133,844 133,835C133,824 129,816 122,809C115,802 105,798 94,798C85,798 78,802 71,809C64,816 60,825 60,834M221,829C221,839 225,848 233,856C240,863 249,867 259,867C268,867 277,863 284,856C291,848 295,839 295,830C295,819 291,811 284,804C276,797 266,793 255,793C246,793 239,797 232,804C225,811 221,820 221,829z"/>
<glyph unicode="&#x22A;" horiz-adv-x="355" d="M104,39C85,75 70,124 61,187C54,230 49,280 46,337l-1,53l0,54C44,461 44,482 44,507C44,547 46,582 49,613C52,645 58,677 69,708C80,735 95,755 115,766C127,771 139,774 151,774C186,774 214,760 235,732C258,701 273,666 280,627C291,580 297,536 298,493C301,446 302,401 302,359l0,-57C302,291 300,269 297,238C294,213 293,192 293,175l0,-4C289,152 287,130 287,105C287,86 283,67 275,47C267,27 256,10 241,-4C226,-20 210,-28 191,-28C173,-28 157,-22 142,-10C127,2 115,18 104,39M227,64C235,86 241,113 245,145C248,176 251,212 254,252C255,269 256,292 256,319l-1,92C254,447 250,492 243,546C238,592 228,633 213,668C206,685 198,698 188,707C178,716 167,721 156,721C139,721 127,708 119,682C109,655 102,625 99,592C95,557 93,523 92,491l-1,-33C90,449 90,436 90,420l0,-4C90,371 95,316 104,251C115,162 130,99 151,62C164,39 178,27 193,27C206,27 218,39 227,64M60,834C60,844 64,853 72,861C79,868 88,872 98,872C107,872 116,868 123,861C130,853 133,844 133,835C133,824 129,816 122,809C115,802 105,798 94,798C85,798 78,802 71,809C64,816 60,825 60,834M221,829C221,839 225,848 233,856C240,863 249,867 259,867C268,867 277,863 284,856C291,848 295,839 295,830C295,819 291,811 284,804C276,797 266,793 255,793C246,793 239,797 232,804C225,811 221,820 221,829M37,959C37,966 39,971 44,975C48,979 53,981 60,981l147,0l30,2C246,984 257,984 268,984C300,984 316,974 316,955C316,948 314,942 309,938C304,934 297,932 288,932C265,932 230,931 183,929l-106,-2C50,927 37,938 37,959z"/>
<glyph unicode="&#x22E;" horiz-adv-x="355" d="M104,39C85,75 70,124 61,187C54,230 49,280 46,337l-1,53l0,54C44,461 44,482 44,507C44,547 46,582 49,613C52,645 58,677 69,708C80,735 95,755 115,766C127,771 139,774 151,774C186,774 214,760 235,732C258,701 273,666 280,627C291,580 297,536 298,493C301,446 302,401 302,359l0,-57C302,291 300,269 297,238C294,213 293,192 293,175l0,-4C289,152 287,130 287,105C287,86 283,67 275,47C267,27 256,10 241,-4C226,-20 210,-28 191,-28C173,-28 157,-22 142,-10C127,2 115,18 104,39M227,64C235,86 241,113 245,145C248,176 251,212 254,252C255,269 256,292 256,319l-1,92C254,447 250,492 243,546C238,592 228,633 213,668C206,685 198,698 188,707C178,716 167,721 156,721C139,721 127,708 119,682C109,655 102,625 99,592C95,557 93,523 92,491l-1,-33C90,449 90,436 90,420l0,-4C90,371 95,316 104,251C115,162 130,99 151,62C164,39 178,27 193,27C206,27 218,39 227,64M117,849C117,859 121,868 128,876C135,883 144,887 154,887C163,887 172,883 179,876C186,868 190,859 190,850C190,839 186,831 179,824C171,817 161,813 150,813C141,813 134,817 127,824C120,831 117,840 117,849z"/>
<glyph unicode="&#x230;" horiz-adv-x="355" d="M104,39C85,75 70,124 61,187C54,230 49,280 46,337l-1,53l0,54C44,461 44,482 44,507C44,547 46,582 49,613C52,645 58,677 69,708C80,735 95,755 115,766C127,771 139,774 151,774C186,774 214,760 235,732C258,701 273,666 280,627C291,580 297,536 298,493C301,446 302,401 302,359l0,-57C302,291 300,269 297,238C294,213 293,192 293,175l0,-4C289,152 287,130 287,105C287,86 283,67 275,47C267,27 256,10 241,-4C226,-20 210,-28 191,-28C173,-28 157,-22 142,-10C127,2 115,18 104,39M227,64C235,86 241,113 245,145C248,176 251,212 254,252C255,269 256,292 256,319l-1,92C254,447 250,492 243,546C238,592 228,633 213,668C206,685 198,698 188,707C178,716 167,721 156,721C139,721 127,708 119,682C109,655 102,625 99,592C95,557 93,523 92,491l-1,-33C90,449 90,436 90,420l0,-4C90,371 95,316 104,251C115,162 130,99 151,62C164,39 178,27 193,27C206,27 218,39 227,64M117,849C117,859 121,868 128,876C135,883 144,887 154,887C163,887 172,883 179,876C186,868 190,859 190,850C190,839 186,831 179,824C171,817 161,813 150,813C141,813 134,817 127,824C120,831 117,840 117,849M14,964C14,971 16,976 21,980C25,984 30,986 37,986l147,0l30,2C223,989 234,989 245,989C277,989 293,979 293,960C293,953 291,947 286,943C281,939 274,937 265,937C242,937 207,936 160,934l-106,-2C27,932 14,943 14,964z"/>
<glyph unicode="&#x1ECC;" horiz-adv-x="355" d="M104,39C85,75 70,124 61,187C54,230 49,280 46,337l-1,53l0,54C44,461 44,482 44,507C44,547 46,582 49,613C52,645 58,677 69,708C80,735 95,755 115,766C127,771 139,774 151,774C186,774 214,760 235,732C258,701 273,666 280,627C291,580 297,536 298,493C301,446 302,401 302,359l0,-57C302,291 300,269 297,238C294,213 293,192 293,175l0,-4C289,152 287,130 287,105C287,86 283,67 275,47C267,27 256,10 241,-4C226,-20 210,-28 191,-28C173,-28 157,-22 142,-10C127,2 115,18 104,39M227,64C235,86 241,113 245,145C248,176 251,212 254,252C255,269 256,292 256,319l-1,92C254,447 250,492 243,546C238,592 228,633 213,668C206,685 198,698 188,707C178,716 167,721 156,721C139,721 127,708 119,682C109,655 102,625 99,592C95,557 93,523 92,491l-1,-33C90,449 90,436 90,420l0,-4C90,371 95,316 104,251C115,162 130,99 151,62C164,39 178,27 193,27C206,27 218,39 227,64M141,-132C141,-122 145,-113 153,-105C160,-98 169,-94 179,-94C188,-94 197,-98 204,-105C211,-113 214,-122 214,-132C214,-143 210,-151 203,-158C196,-165 186,-168 175,-168C166,-168 159,-164 152,-157C145,-150 141,-141 141,-132z"/>
<glyph unicode="&#xD2;" horiz-adv-x="355" d="M104,39C85,75 70,124 61,187C54,230 49,280 46,337l-1,53l0,54C44,461 44,482 44,507C44,547 46,582 49,613C52,645 58,677 69,708C80,735 95,755 115,766C127,771 139,774 151,774C186,774 214,760 235,732C258,701 273,666 280,627C291,580 297,536 298,493C301,446 302,401 302,359l0,-57C302,291 300,269 297,238C294,213 293,192 293,175l0,-4C289,152 287,130 287,105C287,86 283,67 275,47C267,27 256,10 241,-4C226,-20 210,-28 191,-28C173,-28 157,-22 142,-10C127,2 115,18 104,39M227,64C235,86 241,113 245,145C248,176 251,212 254,252C255,269 256,292 256,319l-1,92C254,447 250,492 243,546C238,592 228,633 213,668C206,685 198,698 188,707C178,716 167,721 156,721C139,721 127,708 119,682C109,655 102,625 99,592C95,557 93,523 92,491l-1,-33C90,449 90,436 90,420l0,-4C90,371 95,316 104,251C115,162 130,99 151,62C164,39 178,27 193,27C206,27 218,39 227,64M13,856C13,864 17,873 24,882C31,891 39,895 46,895C50,895 66,888 93,874C120,860 146,846 169,831C192,816 204,805 204,800C204,795 202,793 197,793C190,793 171,798 140,807C109,816 80,825 53,835C26,845 13,852 13,856z"/>
<glyph unicode="&#x1ECE;" horiz-adv-x="355" d="M104,39C85,75 70,124 61,187C54,230 49,280 46,337l-1,53l0,54C44,461 44,482 44,507C44,547 46,582 49,613C52,645 58,677 69,708C80,735 95,755 115,766C127,771 139,774 151,774C186,774 214,760 235,732C258,701 273,666 280,627C291,580 297,536 298,493C301,446 302,401 302,359l0,-57C302,291 300,269 297,238C294,213 293,192 293,175l0,-4C289,152 287,130 287,105C287,86 283,67 275,47C267,27 256,10 241,-4C226,-20 210,-28 191,-28C173,-28 157,-22 142,-10C127,2 115,18 104,39M227,64C235,86 241,113 245,145C248,176 251,212 254,252C255,269 256,292 256,319l-1,92C254,447 250,492 243,546C238,592 228,633 213,668C206,685 198,698 188,707C178,716 167,721 156,721C139,721 127,708 119,682C109,655 102,625 99,592C95,557 93,523 92,491l-1,-33C90,449 90,436 90,420l0,-4C90,371 95,316 104,251C115,162 130,99 151,62C164,39 178,27 193,27C206,27 218,39 227,64M132,810C132,831 137,846 147,854C157,861 171,867 188,870C198,872 205,874 210,877C215,879 217,883 217,888C217,898 212,906 203,913C194,920 180,923 163,923C148,923 136,920 127,915C118,910 114,903 114,894C114,893 116,890 120,884C120,883 117,879 110,873C103,867 98,864 93,864C84,864 78,866 73,871C68,876 65,881 65,886l0,9C65,918 73,935 90,948C106,960 130,966 161,966C203,966 232,958 247,943C262,927 269,909 269,888C269,870 264,858 255,852C245,845 231,840 213,835C202,833 193,831 188,828C183,825 180,821 180,815l0,-18C167,797 161,797 160,796C157,795 156,794 155,794C144,794 136,799 132,810z"/>
<glyph unicode="&#x1A0;" horiz-adv-x="372" d="M251,722l-9,0C260,695 273,664 280,627C291,580 297,536 298,493C301,446 302,401 302,359l0,-57C302,291 300,269 297,238C294,213 293,192 293,175l0,-4C289,152 287,130 287,105C287,86 283,67 275,47C267,27 256,10 241,-4C226,-20 210,-28 191,-28C173,-28 157,-22 142,-10C127,2 115,18 104,39C85,75 70,124 61,187C54,230 49,280 46,337l-1,53l0,54C44,461 44,482 44,507C44,547 46,582 49,613C52,645 58,677 69,708C80,735 95,755 115,766C127,771 139,774 151,774C162,774 172,773 180,770l0,1C186,770 196,768 210,767C223,766 234,765 242,765C260,765 272,768 278,773C284,778 287,786 287,797C287,803 286,810 283,819C280,827 279,832 279,835C279,841 282,846 289,849C295,852 303,853 313,853C327,853 337,850 343,843C349,836 352,826 352,812C352,785 342,763 321,747C300,730 277,722 251,722M243,546C238,592 228,633 213,668C206,685 198,698 188,707C178,716 167,721 156,721C139,721 127,708 119,682C109,655 102,625 99,592C95,557 93,523 92,491l-1,-33C90,449 90,436 90,420l0,-4C90,371 95,316 104,251C115,162 130,99 151,62C164,39 178,27 193,27C206,27 218,39 227,64C235,86 241,113 245,145C248,176 251,212 254,252C255,269 256,292 256,319l-1,92C254,447 250,492 243,546z"/>
<glyph unicode="&#x1EDA;" horiz-adv-x="372" d="M251,722l-9,0C260,695 273,664 280,627C291,580 297,536 298,493C301,446 302,401 302,359l0,-57C302,291 300,269 297,238C294,213 293,192 293,175l0,-4C289,152 287,130 287,105C287,86 283,67 275,47C267,27 256,10 241,-4C226,-20 210,-28 191,-28C173,-28 157,-22 142,-10C127,2 115,18 104,39C85,75 70,124 61,187C54,230 49,280 46,337l-1,53l0,54C44,461 44,482 44,507C44,547 46,582 49,613C52,645 58,677 69,708C80,735 95,755 115,766C127,771 139,774 151,774C162,774 172,773 180,770l0,1C186,770 196,768 210,767C223,766 234,765 242,765C260,765 272,768 278,773C284,778 287,786 287,797C287,803 286,810 283,819C280,827 279,832 279,835C279,841 282,846 289,849C295,852 303,853 313,853C327,853 337,850 343,843C349,836 352,826 352,812C352,785 342,763 321,747C300,730 277,722 251,722M243,546C238,592 228,633 213,668C206,685 198,698 188,707C178,716 167,721 156,721C139,721 127,708 119,682C109,655 102,625 99,592C95,557 93,523 92,491l-1,-33C90,449 90,436 90,420l0,-4C90,371 95,316 104,251C115,162 130,99 151,62C164,39 178,27 193,27C206,27 218,39 227,64C235,86 241,113 245,145C248,176 251,212 254,252C255,269 256,292 256,319l-1,92C254,447 250,492 243,546M123,822C123,825 125,829 128,832l16,14C147,849 166,866 200,895l59,51C262,947 265,948 268,948C276,948 283,944 290,936C297,928 300,920 300,911C300,903 298,898 293,895C269,876 220,848 147,811C146,810 143,809 139,809C135,809 131,810 128,813C125,815 123,818 123,822z"/>
<glyph unicode="&#x1EE2;" horiz-adv-x="372" d="M251,722l-9,0C260,695 273,664 280,627C291,580 297,536 298,493C301,446 302,401 302,359l0,-57C302,291 300,269 297,238C294,213 293,192 293,175l0,-4C289,152 287,130 287,105C287,86 283,67 275,47C267,27 256,10 241,-4C226,-20 210,-28 191,-28C173,-28 157,-22 142,-10C127,2 115,18 104,39C85,75 70,124 61,187C54,230 49,280 46,337l-1,53l0,54C44,461 44,482 44,507C44,547 46,582 49,613C52,645 58,677 69,708C80,735 95,755 115,766C127,771 139,774 151,774C162,774 172,773 180,770l0,1C186,770 196,768 210,767C223,766 234,765 242,765C260,765 272,768 278,773C284,778 287,786 287,797C287,803 286,810 283,819C280,827 279,832 279,835C279,841 282,846 289,849C295,852 303,853 313,853C327,853 337,850 343,843C349,836 352,826 352,812C352,785 342,763 321,747C300,730 277,722 251,722M243,546C238,592 228,633 213,668C206,685 198,698 188,707C178,716 167,721 156,721C139,721 127,708 119,682C109,655 102,625 99,592C95,557 93,523 92,491l-1,-33C90,449 90,436 90,420l0,-4C90,371 95,316 104,251C115,162 130,99 151,62C164,39 178,27 193,27C206,27 218,39 227,64C235,86 241,113 245,145C248,176 251,212 254,252C255,269 256,292 256,319l-1,92C254,447 250,492 243,546M149,-132C149,-122 153,-113 161,-105C168,-98 177,-94 187,-94C196,-94 205,-98 212,-105C219,-113 222,-122 222,-132C222,-143 218,-151 211,-158C204,-165 194,-168 183,-168C174,-168 167,-164 160,-157C153,-150 149,-141 149,-132z"/>
<glyph unicode="&#x1EDC;" horiz-adv-x="372" d="M251,722l-9,0C260,695 273,664 280,627C291,580 297,536 298,493C301,446 302,401 302,359l0,-57C302,291 300,269 297,238C294,213 293,192 293,175l0,-4C289,152 287,130 287,105C287,86 283,67 275,47C267,27 256,10 241,-4C226,-20 210,-28 191,-28C173,-28 157,-22 142,-10C127,2 115,18 104,39C85,75 70,124 61,187C54,230 49,280 46,337l-1,53l0,54C44,461 44,482 44,507C44,547 46,582 49,613C52,645 58,677 69,708C80,735 95,755 115,766C127,771 139,774 151,774C162,774 172,773 180,770l0,1C186,770 196,768 210,767C223,766 234,765 242,765C260,765 272,768 278,773C284,778 287,786 287,797C287,803 286,810 283,819C280,827 279,832 279,835C279,841 282,846 289,849C295,852 303,853 313,853C327,853 337,850 343,843C349,836 352,826 352,812C352,785 342,763 321,747C300,730 277,722 251,722M243,546C238,592 228,633 213,668C206,685 198,698 188,707C178,716 167,721 156,721C139,721 127,708 119,682C109,655 102,625 99,592C95,557 93,523 92,491l-1,-33C90,449 90,436 90,420l0,-4C90,371 95,316 104,251C115,162 130,99 151,62C164,39 178,27 193,27C206,27 218,39 227,64C235,86 241,113 245,145C248,176 251,212 254,252C255,269 256,292 256,319l-1,92C254,447 250,492 243,546M12,876C12,884 16,893 23,902C30,911 38,915 45,915C49,915 65,908 92,894C119,880 145,866 168,851C191,836 203,825 203,820C203,815 201,813 196,813C189,813 170,818 139,827C108,836 79,845 52,855C25,865 12,872 12,876z"/>
<glyph unicode="&#x1EDE;" horiz-adv-x="372" d="M251,722l-9,0C260,695 273,664 280,627C291,580 297,536 298,493C301,446 302,401 302,359l0,-57C302,291 300,269 297,238C294,213 293,192 293,175l0,-4C289,152 287,130 287,105C287,86 283,67 275,47C267,27 256,10 241,-4C226,-20 210,-28 191,-28C173,-28 157,-22 142,-10C127,2 115,18 104,39C85,75 70,124 61,187C54,230 49,280 46,337l-1,53l0,54C44,461 44,482 44,507C44,547 46,582 49,613C52,645 58,677 69,708C80,735 95,755 115,766C127,771 139,774 151,774C162,774 172,773 180,770l0,1C186,770 196,768 210,767C223,766 234,765 242,765C260,765 272,768 278,773C284,778 287,786 287,797C287,803 286,810 283,819C280,827 279,832 279,835C279,841 282,846 289,849C295,852 303,853 313,853C327,853 337,850 343,843C349,836 352,826 352,812C352,785 342,763 321,747C300,730 277,722 251,722M243,546C238,592 228,633 213,668C206,685 198,698 188,707C178,716 167,721 156,721C139,721 127,708 119,682C109,655 102,625 99,592C95,557 93,523 92,491l-1,-33C90,449 90,436 90,420l0,-4C90,371 95,316 104,251C115,162 130,99 151,62C164,39 178,27 193,27C206,27 218,39 227,64C235,86 241,113 245,145C248,176 251,212 254,252C255,269 256,292 256,319l-1,92C254,447 250,492 243,546M131,830C131,851 136,866 146,874C156,881 170,887 187,890C197,892 204,894 209,897C214,899 216,903 216,908C216,918 211,926 202,933C193,940 179,943 162,943C147,943 135,940 126,935C117,930 113,923 113,914C113,913 115,910 119,904C119,903 116,899 109,893C102,887 97,884 92,884C83,884 77,886 72,891C67,896 64,901 64,906l0,9C64,938 72,955 89,968C105,980 129,986 160,986C202,986 231,978 246,963C261,947 268,929 268,908C268,890 263,878 254,872C244,865 230,860 212,855C201,853 192,851 187,848C182,845 179,841 179,835l0,-18C166,817 160,817 159,816C156,815 155,814 154,814C143,814 135,819 131,830z"/>
<glyph unicode="&#x1EE0;" horiz-adv-x="372" d="M251,722l-9,0C260,695 273,664 280,627C291,580 297,536 298,493C301,446 302,401 302,359l0,-57C302,291 300,269 297,238C294,213 293,192 293,175l0,-4C289,152 287,130 287,105C287,86 283,67 275,47C267,27 256,10 241,-4C226,-20 210,-28 191,-28C173,-28 157,-22 142,-10C127,2 115,18 104,39C85,75 70,124 61,187C54,230 49,280 46,337l-1,53l0,54C44,461 44,482 44,507C44,547 46,582 49,613C52,645 58,677 69,708C80,735 95,755 115,766C127,771 139,774 151,774C162,774 172,773 180,770l0,1C186,770 196,768 210,767C223,766 234,765 242,765C260,765 272,768 278,773C284,778 287,786 287,797C287,803 286,810 283,819C280,827 279,832 279,835C279,841 282,846 289,849C295,852 303,853 313,853C327,853 337,850 343,843C349,836 352,826 352,812C352,785 342,763 321,747C300,730 277,722 251,722M243,546C238,592 228,633 213,668C206,685 198,698 188,707C178,716 167,721 156,721C139,721 127,708 119,682C109,655 102,625 99,592C95,557 93,523 92,491l-1,-33C90,449 90,436 90,420l0,-4C90,371 95,316 104,251C115,162 130,99 151,62C164,39 178,27 193,27C206,27 218,39 227,64C235,86 241,113 245,145C248,176 251,212 254,252C255,269 256,292 256,319l-1,92C254,447 250,492 243,546M136,834C131,840 126,845 119,849C112,853 105,855 97,855C92,853 89,850 87,847C85,844 85,840 86,836l0,-2C86,825 81,819 71,816C60,816 52,819 45,824C38,829 35,836 35,845C35,862 42,876 55,887C68,898 86,903 108,903C115,903 130,896 151,883C172,870 186,863 192,863C198,863 203,865 207,869C210,873 212,878 213,883C214,888 217,893 221,897C224,901 229,903 235,903C246,903 254,901 260,896C265,891 268,884 268,877C268,860 262,845 249,832C236,819 221,812 204,812C187,812 173,814 161,819C149,823 141,828 136,834z"/>
<glyph unicode="&#x150;" horiz-adv-x="355" d="M104,39C85,75 70,124 61,187C54,230 49,280 46,337l-1,53l0,54C44,461 44,482 44,507C44,547 46,582 49,613C52,645 58,677 69,708C80,735 95,755 115,766C127,771 139,774 151,774C186,774 214,760 235,732C258,701 273,666 280,627C291,580 297,536 298,493C301,446 302,401 302,359l0,-57C302,291 300,269 297,238C294,213 293,192 293,175l0,-4C289,152 287,130 287,105C287,86 283,67 275,47C267,27 256,10 241,-4C226,-20 210,-28 191,-28C173,-28 157,-22 142,-10C127,2 115,18 104,39M227,64C235,86 241,113 245,145C248,176 251,212 254,252C255,269 256,292 256,319l-1,92C254,447 250,492 243,546C238,592 228,633 213,668C206,685 198,698 188,707C178,716 167,721 156,721C139,721 127,708 119,682C109,655 102,625 99,592C95,557 93,523 92,491l-1,-33C90,449 90,436 90,420l0,-4C90,371 95,316 104,251C115,162 130,99 151,62C164,39 178,27 193,27C206,27 218,39 227,64M83,794C84,803 95,825 116,859C137,893 161,926 186,958C210,987 225,1002 230,1002C236,1002 242,1000 247,997C252,993 254,989 254,984C254,970 242,948 219,917C196,886 169,857 139,830C112,805 94,791 83,788M209,807C209,815 223,835 251,867C282,902 312,933 339,959C370,988 389,1002 396,1002C403,1002 409,1000 415,995C421,990 425,985 427,979C423,969 407,951 379,924C351,897 321,871 288,845C255,818 232,801 219,794C212,794 209,798 209,807z"/>
<glyph unicode="&#x20E;" horiz-adv-x="355" d="M104,39C85,75 70,124 61,187C54,230 49,280 46,337l-1,53l0,54C44,461 44,482 44,507C44,547 46,582 49,613C52,645 58,677 69,708C80,735 95,755 115,766C127,771 139,774 151,774C186,774 214,760 235,732C258,701 273,666 280,627C291,580 297,536 298,493C301,446 302,401 302,359l0,-57C302,291 300,269 297,238C294,213 293,192 293,175l0,-4C289,152 287,130 287,105C287,86 283,67 275,47C267,27 256,10 241,-4C226,-20 210,-28 191,-28C173,-28 157,-22 142,-10C127,2 115,18 104,39M227,64C235,86 241,113 245,145C248,176 251,212 254,252C255,269 256,292 256,319l-1,92C254,447 250,492 243,546C238,592 228,633 213,668C206,685 198,698 188,707C178,716 167,721 156,721C139,721 127,708 119,682C109,655 102,625 99,592C95,557 93,523 92,491l-1,-33C90,449 90,436 90,420l0,-4C90,371 95,316 104,251C115,162 130,99 151,62C164,39 178,27 193,27C206,27 218,39 227,64M67,803C67,832 73,858 85,882C91,894 100,904 112,911C123,918 137,921 152,921C165,921 175,919 184,916C192,913 199,907 205,899C212,890 217,883 220,876C223,869 227,860 232,849l2,-4l2,-4l-2,-4C234,834 234,833 233,833l5,-16C238,810 235,804 230,799C225,794 218,791 211,791C200,791 193,794 189,800C185,806 183,816 183,829C183,837 181,847 176,858C171,869 165,875 160,875l-21,0C129,868 121,851 115,824C113,813 110,805 105,798C100,791 93,787 86,787z"/>
<glyph unicode="&#x14C;" horiz-adv-x="355" d="M104,39C85,75 70,124 61,187C54,230 49,280 46,337l-1,53l0,54C44,461 44,482 44,507C44,547 46,582 49,613C52,645 58,677 69,708C80,735 95,755 115,766C127,771 139,774 151,774C186,774 214,760 235,732C258,701 273,666 280,627C291,580 297,536 298,493C301,446 302,401 302,359l0,-57C302,291 300,269 297,238C294,213 293,192 293,175l0,-4C289,152 287,130 287,105C287,86 283,67 275,47C267,27 256,10 241,-4C226,-20 210,-28 191,-28C173,-28 157,-22 142,-10C127,2 115,18 104,39M227,64C235,86 241,113 245,145C248,176 251,212 254,252C255,269 256,292 256,319l-1,92C254,447 250,492 243,546C238,592 228,633 213,668C206,685 198,698 188,707C178,716 167,721 156,721C139,721 127,708 119,682C109,655 102,625 99,592C95,557 93,523 92,491l-1,-33C90,449 90,436 90,420l0,-4C90,371 95,316 104,251C115,162 130,99 151,62C164,39 178,27 193,27C206,27 218,39 227,64M13,848C13,855 15,860 20,864C24,868 29,870 36,870l147,0l30,2C222,873 233,873 244,873C276,873 292,863 292,844C292,837 290,831 285,827C280,823 273,821 264,821C241,821 206,820 159,818l-106,-2C26,816 13,827 13,848z"/>
<glyph unicode="&#x1EA;" horiz-adv-x="355" d="M104,39C85,75 70,124 61,187C54,230 49,280 46,337l-1,53l0,54C44,461 44,482 44,507C44,547 46,582 49,613C52,645 58,677 69,708C80,735 95,755 115,766C127,771 139,774 151,774C186,774 214,760 235,732C258,701 273,666 280,627C291,580 297,536 298,493C301,446 302,401 302,359l0,-57C302,291 300,269 297,238C294,213 293,192 293,175l0,-4C289,152 287,130 287,105C287,86 283,67 275,47C267,27 256,10 241,-4C226,-20 210,-28 191,-28C173,-28 157,-22 142,-10C127,2 115,18 104,39M227,64C235,86 241,113 245,145C248,176 251,212 254,252C255,269 256,292 256,319l-1,92C254,447 250,492 243,546C238,592 228,633 213,668C206,685 198,698 188,707C178,716 167,721 156,721C139,721 127,708 119,682C109,655 102,625 99,592C95,557 93,523 92,491l-1,-33C90,449 90,436 90,420l0,-4C90,371 95,316 104,251C115,162 130,99 151,62C164,39 178,27 193,27C206,27 218,39 227,64M120,-119C120,-94 128,-71 145,-49C162,-28 183,-9 210,6l41,0C193,-39 164,-78 164,-112C164,-129 170,-137 182,-137C192,-137 204,-132 219,-121l11,-29C225,-157 217,-163 206,-169C194,-176 183,-179 174,-179C157,-179 143,-173 134,-160C125,-148 120,-134 120,-119z"/>
<glyph unicode="&#xD8;" horiz-adv-x="356" d="M60,-109l30,179C75,111 63,161 56,220C49,278 45,335 45,390l0,54C44,461 44,482 44,507C44,547 46,583 49,614C52,647 58,678 69,708C80,735 96,755 115,766C127,771 139,774 151,774C176,774 196,767 212,754l22,124l39,0l-31,-155C269,684 286,627 293,552C297,519 300,488 301,461C302,433 302,399 302,358l0,-29l0,-27C302,291 300,269 297,238C294,213 293,192 293,175l0,-4C289,152 287,130 287,105C287,86 283,67 275,47C267,27 256,10 241,-4C226,-20 210,-28 191,-28C176,-28 162,-24 151,-15C140,-7 128,6 117,23l-35,-160M201,691C188,711 173,721 156,721C139,721 127,708 119,682C109,655 102,625 99,592C95,557 93,523 92,491l-1,-33C90,449 90,436 90,420l0,-4C90,392 92,358 96,315C100,271 105,230 112,193M227,64C235,86 241,113 245,145C248,176 251,212 254,252C255,269 256,292 256,319C256,459 246,564 225,634l-95,-517C147,57 168,27 193,27C206,27 218,39 227,64z"/>
<glyph unicode="&#x1FE;" horiz-adv-x="356" d="M60,-109l30,179C75,111 63,161 56,220C49,278 45,335 45,390l0,54C44,461 44,482 44,507C44,547 46,583 49,614C52,647 58,678 69,708C80,735 96,755 115,766C127,771 139,774 151,774C176,774 196,767 212,754l22,124l39,0l-31,-155C269,684 286,627 293,552C297,519 300,488 301,461C302,433 302,399 302,358l0,-29l0,-27C302,291 300,269 297,238C294,213 293,192 293,175l0,-4C289,152 287,130 287,105C287,86 283,67 275,47C267,27 256,10 241,-4C226,-20 210,-28 191,-28C176,-28 162,-24 151,-15C140,-7 128,6 117,23l-35,-160M201,691C188,711 173,721 156,721C139,721 127,708 119,682C109,655 102,625 99,592C95,557 93,523 92,491l-1,-33C90,449 90,436 90,420l0,-4C90,392 92,358 96,315C100,271 105,230 112,193M227,64C235,86 241,113 245,145C248,176 251,212 254,252C255,269 256,292 256,319C256,459 246,564 225,634l-95,-517C147,57 168,27 193,27C206,27 218,39 227,64M13,798C13,801 15,805 18,808l16,14C37,825 56,842 90,871l59,51C152,923 155,924 158,924C166,924 173,920 180,912C187,904 190,896 190,887C190,879 188,874 183,871C159,852 110,824 37,787C36,786 33,785 29,785C25,785 21,786 18,789C15,791 13,794 13,798z"/>
<glyph unicode="&#xD5;" horiz-adv-x="355" d="M104,39C85,75 70,124 61,187C54,230 49,280 46,337l-1,53l0,54C44,461 44,482 44,507C44,547 46,582 49,613C52,645 58,677 69,708C80,735 95,755 115,766C127,771 139,774 151,774C186,774 214,760 235,732C258,701 273,666 280,627C291,580 297,536 298,493C301,446 302,401 302,359l0,-57C302,291 300,269 297,238C294,213 293,192 293,175l0,-4C289,152 287,130 287,105C287,86 283,67 275,47C267,27 256,10 241,-4C226,-20 210,-28 191,-28C173,-28 157,-22 142,-10C127,2 115,18 104,39M227,64C235,86 241,113 245,145C248,176 251,212 254,252C255,269 256,292 256,319l-1,92C254,447 250,492 243,546C238,592 228,633 213,668C206,685 198,698 188,707C178,716 167,721 156,721C139,721 127,708 119,682C109,655 102,625 99,592C95,557 93,523 92,491l-1,-33C90,449 90,436 90,420l0,-4C90,371 95,316 104,251C115,162 130,99 151,62C164,39 178,27 193,27C206,27 218,39 227,64M137,814C132,820 127,825 120,829C113,833 106,835 98,835C93,833 90,830 88,827C86,824 86,820 87,816l0,-2C87,805 82,799 72,796C61,796 53,799 46,804C39,809 36,816 36,825C36,842 43,856 56,867C69,878 87,883 109,883C116,883 131,876 152,863C173,850 187,843 193,843C199,843 204,845 208,849C211,853 213,858 214,863C215,868 218,873 222,877C225,881 230,883 236,883C247,883 255,881 261,876C266,871 269,864 269,857C269,840 263,825 250,812C237,799 222,792 205,792C188,792 174,794 162,799C150,803 142,808 137,814z"/>
<glyph unicode="&#x22C;" horiz-adv-x="355" d="M104,39C85,75 70,124 61,187C54,230 49,280 46,337l-1,53l0,54C44,461 44,482 44,507C44,547 46,582 49,613C52,645 58,677 69,708C80,735 95,755 115,766C127,771 139,774 151,774C186,774 214,760 235,732C258,701 273,666 280,627C291,580 297,536 298,493C301,446 302,401 302,359l0,-57C302,291 300,269 297,238C294,213 293,192 293,175l0,-4C289,152 287,130 287,105C287,86 283,67 275,47C267,27 256,10 241,-4C226,-20 210,-28 191,-28C173,-28 157,-22 142,-10C127,2 115,18 104,39M227,64C235,86 241,113 245,145C248,176 251,212 254,252C255,269 256,292 256,319l-1,92C254,447 250,492 243,546C238,592 228,633 213,668C206,685 198,698 188,707C178,716 167,721 156,721C139,721 127,708 119,682C109,655 102,625 99,592C95,557 93,523 92,491l-1,-33C90,449 90,436 90,420l0,-4C90,371 95,316 104,251C115,162 130,99 151,62C164,39 178,27 193,27C206,27 218,39 227,64M137,814C132,820 127,825 120,829C113,833 106,835 98,835C93,833 90,830 88,827C86,824 86,820 87,816l0,-2C87,805 82,799 72,796C61,796 53,799 46,804C39,809 36,816 36,825C36,842 43,856 56,867C69,878 87,883 109,883C116,883 131,876 152,863C173,850 187,843 193,843C199,843 204,845 208,849C211,853 213,858 214,863C215,868 218,873 222,877C225,881 230,883 236,883C247,883 255,881 261,876C266,871 269,864 269,857C269,840 263,825 250,812C237,799 222,792 205,792C188,792 174,794 162,799C150,803 142,808 137,814M13,986C13,993 15,998 20,1002C24,1006 29,1008 36,1008l147,0l30,2C222,1011 233,1011 244,1011C276,1011 292,1001 292,982C292,975 290,969 285,965C280,961 273,959 264,959C241,959 206,958 159,956l-106,-2C26,954 13,965 13,986z"/>
<glyph unicode="&#x152;" horiz-adv-x="569" d="M346,13l0,3C321,8 304,4 293,4C246,4 204,14 167,33C138,49 113,74 93,107C85,121 78,138 72,157C65,176 60,194 57,213C50,246 46,287 45,334C44,346 44,366 44,395C44,426 45,456 46,484C47,518 51,554 58,591C61,610 66,626 71,641C76,655 82,671 91,688C99,703 108,715 118,725C128,734 140,742 154,748C168,754 184,757 201,757C232,757 259,755 280,751C301,747 319,740 336,729l15,21C359,750 366,749 373,748C383,746 391,745 396,745l74,0C475,745 480,745 483,746l12,1C510,738 518,728 518,718C518,711 515,706 509,702C503,698 496,696 488,696l-54,2l-52,2C382,675 384,641 389,599C394,546 396,512 396,497l-1,-26C394,464 394,455 394,446C394,438 395,429 396,418l30,-1l5,0l11,0l11,0C468,417 479,411 487,399C487,378 478,368 459,368l-24,1C428,370 420,370 411,370l-14,0C397,332 398,276 400,202C403,136 404,82 404,39C427,41 448,42 469,42l16,0C529,42 551,32 551,12l0,-3l-11,-17C511,-8 484,-8 461,-9l-79,-2C373,-11 365,-9 358,-4C350,1 346,6 346,13M335,65C348,70 355,75 355,82C355,152 352,253 346,385C340,498 336,593 335,669C312,695 273,708 216,708C199,708 183,704 169,697C154,689 142,678 133,664C114,635 103,602 98,566C93,531 90,498 90,467l0,-33l0,-34l0,-33C95,356 100,310 104,230C106,203 111,176 118,151C125,126 134,114 145,113C160,95 179,81 200,71C221,60 244,55 267,55C291,55 314,58 335,65z"/>
<glyph unicode="P" horiz-adv-x="288" d="M70,28l2,168C74,277 75,340 75,385C75,540 66,659 49,742C59,757 72,765 87,765C112,765 134,760 155,749C175,738 192,723 205,704C231,665 244,622 244,574C244,524 233,479 212,440C191,401 160,370 119,348l2,-101l2,-53C124,183 124,166 124,145C126,100 127,64 127,36C127,23 124,13 119,6C114,-1 105,-5 94,-5C87,-5 81,-2 77,5C72,11 70,19 70,28M193,565l0,1C193,581 191,601 188,624C186,632 182,640 177,648C172,656 169,661 168,662C163,669 151,679 131,693l-26,19C105,678 107,625 111,554l6,-158C143,421 162,447 175,474C187,501 193,531 193,565z"/>
<glyph unicode="&#x1E56;" horiz-adv-x="288" d="M70,28l2,168C74,277 75,340 75,385C75,540 66,659 49,742C59,757 72,765 87,765C112,765 134,760 155,749C175,738 192,723 205,704C231,665 244,622 244,574C244,524 233,479 212,440C191,401 160,370 119,348l2,-101l2,-53C124,183 124,166 124,145C126,100 127,64 127,36C127,23 124,13 119,6C114,-1 105,-5 94,-5C87,-5 81,-2 77,5C72,11 70,19 70,28M193,565l0,1C193,581 191,601 188,624C186,632 182,640 177,648C172,656 169,661 168,662C163,669 151,679 131,693l-26,19C105,678 107,625 111,554l6,-158C143,421 162,447 175,474C187,501 193,531 193,565M108,835C108,845 112,854 119,862C126,869 135,873 145,873C154,873 163,869 170,862C177,854 181,845 181,836C181,825 177,817 170,810C162,803 152,799 141,799C132,799 125,803 118,810C111,817 108,826 108,835z"/>
<glyph unicode="&#xDE;" horiz-adv-x="262" d="M58,28C58,80 56,181 53,331C49,465 47,566 47,633l-1,93C46,746 54,756 71,756C94,756 105,736 105,695l0,-19l-1,-15C131,657 155,645 176,625C196,605 211,581 220,553C228,526 232,499 232,471C232,422 221,377 200,338C179,298 148,267 107,245l2,-68l2,-35C114,101 115,66 115,36C115,9 104,-5 82,-5C75,-5 69,-2 65,5C60,11 58,19 58,28M181,463C181,490 179,512 175,527C170,542 163,556 154,567C143,579 127,593 106,610l-3,0l1,-158l1,-159C131,318 150,344 163,371C175,398 181,429 181,463z"/>
<glyph unicode="Q" horiz-adv-x="398" d="M248,-124l0,1C230,-115 217,-100 210,-79C205,-62 201,-41 197,-18C194,-2 193,7 192,10l-41,0C116,33 90,64 73,102C66,118 60,136 55,157C50,178 47,198 46,218C45,230 44,251 44,280l2,82C48,398 49,425 49,443l-1,32l0,39C48,554 49,586 52,610C56,643 63,674 73,701C84,730 100,750 121,761C132,767 145,770 158,770C176,770 193,766 208,759C223,752 237,742 248,729C266,708 281,673 292,625C300,582 305,538 306,493C307,479 307,456 307,424l0,-54C306,355 306,339 306,322l0,-45C306,217 302,170 295,137C287,104 270,69 245,34l4,-20C253,-12 257,-32 262,-47C269,-71 277,-83 287,-83l4,0C303,-83 312,-84 319,-85C329,-88 334,-96 334,-107C334,-128 319,-138 290,-138C279,-138 265,-133 248,-124M187,40C192,49 201,53 214,53l0,-1C239,75 251,111 251,160l0,269C251,472 250,507 248,536C245,573 239,608 230,641C225,658 220,671 213,682C206,693 197,702 186,709C175,716 163,720 150,720C138,720 128,703 120,668C107,615 98,529 95,410C94,363 93,333 93,319C93,290 95,257 98,220C101,179 110,140 124,102C131,83 139,69 150,58C161,47 173,40 187,39z"/>
<glyph unicode="R" horiz-adv-x="289" d="M208,17l0,3C206,55 200,95 190,138C180,181 165,234 146,295C131,341 119,382 109,419l0,-394C109,14 107,7 104,2C100,-3 93,-6 82,-6C74,-6 68,-3 63,2C58,7 56,13 56,21l0,8l2,294C59,410 60,507 60,616l0,123C60,747 62,753 65,756C68,759 75,760 86,760C103,760 118,757 132,751C146,744 158,735 168,724C189,701 202,673 208,640C211,627 212,611 212,594C212,584 211,573 210,561C208,549 207,541 206,538C205,531 202,521 197,508C192,495 189,486 188,482l-12,-28l-10,-26C167,404 171,374 179,337C186,300 195,266 204,235C211,213 223,176 240,125l29,-88l0,-2C269,24 268,14 266,6C264,-5 257,-10 245,-10C232,-10 220,-1 208,17M141,503l15,86C157,592 157,597 157,603C157,622 153,645 146,670C142,682 137,692 131,701C124,709 118,713 111,714l-2,-100C107,569 106,535 106,510C106,487 106,471 107,464C116,473 128,486 141,503z"/>
<glyph unicode="&#x154;" horiz-adv-x="289" d="M208,17l0,3C206,55 200,95 190,138C180,181 165,234 146,295C131,341 119,382 109,419l0,-394C109,14 107,7 104,2C100,-3 93,-6 82,-6C74,-6 68,-3 63,2C58,7 56,13 56,21l0,8l2,294C59,410 60,507 60,616l0,123C60,747 62,753 65,756C68,759 75,760 86,760C103,760 118,757 132,751C146,744 158,735 168,724C189,701 202,673 208,640C211,627 212,611 212,594C212,584 211,573 210,561C208,549 207,541 206,538C205,531 202,521 197,508C192,495 189,486 188,482l-12,-28l-10,-26C167,404 171,374 179,337C186,300 195,266 204,235C211,213 223,176 240,125l29,-88l0,-2C269,24 268,14 266,6C264,-5 257,-10 245,-10C232,-10 220,-1 208,17M141,503l15,86C157,592 157,597 157,603C157,622 153,645 146,670C142,682 137,692 131,701C124,709 118,713 111,714l-2,-100C107,569 106,535 106,510C106,487 106,471 107,464C116,473 128,486 141,503M62,788C62,791 64,795 67,798l16,14C86,815 105,832 139,861l59,51C201,913 204,914 207,914C215,914 222,910 229,902C236,894 239,886 239,877C239,869 237,864 232,861C208,842 159,814 86,777C85,776 82,775 78,775C74,775 70,776 67,779C64,781 62,784 62,788z"/>
<glyph unicode="&#x158;" horiz-adv-x="289" d="M208,17l0,3C206,55 200,95 190,138C180,181 165,234 146,295C131,341 119,382 109,419l0,-394C109,14 107,7 104,2C100,-3 93,-6 82,-6C74,-6 68,-3 63,2C58,7 56,13 56,21l0,8l2,294C59,410 60,507 60,616l0,123C60,747 62,753 65,756C68,759 75,760 86,760C103,760 118,757 132,751C146,744 158,735 168,724C189,701 202,673 208,640C211,627 212,611 212,594C212,584 211,573 210,561C208,549 207,541 206,538C205,531 202,521 197,508C192,495 189,486 188,482l-12,-28l-10,-26C167,404 171,374 179,337C186,300 195,266 204,235C211,213 223,176 240,125l29,-88l0,-2C269,24 268,14 266,6C264,-5 257,-10 245,-10C232,-10 220,-1 208,17M141,503l15,86C157,592 157,597 157,603C157,622 153,645 146,670C142,682 137,692 131,701C124,709 118,713 111,714l-2,-100C107,569 106,535 106,510C106,487 106,471 107,464C116,473 128,486 141,503M15,972C15,977 18,982 23,986C28,990 33,992 39,992C46,992 55,982 64,963C71,948 79,923 89,889l13,-46C104,859 105,870 106,876C107,882 108,893 110,910C112,926 115,941 118,954C123,981 133,995 146,995C152,995 157,993 161,989C165,985 167,980 167,974C167,972 166,969 163,966l-4,-7l0,-18l-14,-55C136,847 131,824 131,815C131,794 123,783 106,783C98,783 87,796 72,822C57,847 44,876 33,907C21,938 15,960 15,972z"/>
<glyph unicode="&#x156;" horiz-adv-x="289" d="M208,17l0,3C206,55 200,95 190,138C180,181 165,234 146,295C131,341 119,382 109,419l0,-394C109,14 107,7 104,2C100,-3 93,-6 82,-6C74,-6 68,-3 63,2C58,7 56,13 56,21l0,8l2,294C59,410 60,507 60,616l0,123C60,747 62,753 65,756C68,759 75,760 86,760C103,760 118,757 132,751C146,744 158,735 168,724C189,701 202,673 208,640C211,627 212,611 212,594C212,584 211,573 210,561C208,549 207,541 206,538C205,531 202,521 197,508C192,495 189,486 188,482l-12,-28l-10,-26C167,404 171,374 179,337C186,300 195,266 204,235C211,213 223,176 240,125l29,-88l0,-2C269,24 268,14 266,6C264,-5 257,-10 245,-10C232,-10 220,-1 208,17M141,503l15,86C157,592 157,597 157,603C157,622 153,645 146,670C142,682 137,692 131,701C124,709 118,713 111,714l-2,-100C107,569 106,535 106,510C106,487 106,471 107,464C116,473 128,486 141,503M87,-257C87,-252 98,-229 120,-186C141,-144 160,-110 176,-85C177,-84 178,-83 181,-83C186,-83 191,-85 196,-90C201,-95 204,-100 204,-105C204,-118 198,-136 186,-158C174,-180 160,-201 144,-221C127,-242 114,-256 103,-263C100,-264 98,-265 97,-265l-2,0C90,-265 87,-262 87,-257z"/>
<glyph unicode="&#x210;" horiz-adv-x="289" d="M208,17l0,3C206,55 200,95 190,138C180,181 165,234 146,295C131,341 119,382 109,419l0,-394C109,14 107,7 104,2C100,-3 93,-6 82,-6C74,-6 68,-3 63,2C58,7 56,13 56,21l0,8l2,294C59,410 60,507 60,616l0,123C60,747 62,753 65,756C68,759 75,760 86,760C103,760 118,757 132,751C146,744 158,735 168,724C189,701 202,673 208,640C211,627 212,611 212,594C212,584 211,573 210,561C208,549 207,541 206,538C205,531 202,521 197,508C192,495 189,486 188,482l-12,-28l-10,-26C167,404 171,374 179,337C186,300 195,266 204,235C211,213 223,176 240,125l29,-88l0,-2C269,24 268,14 266,6C264,-5 257,-10 245,-10C232,-10 220,-1 208,17M141,503l15,86C157,592 157,597 157,603C157,622 153,645 146,670C142,682 137,692 131,701C124,709 118,713 111,714l-2,-100C107,569 106,535 106,510C106,487 106,471 107,464C116,473 128,486 141,503M-44,929l-9,16C-51,952 -47,959 -42,964C-37,969 -31,971 -24,971C-19,971 -4,958 20,932C45,904 68,876 89,848C110,820 120,803 120,796C120,788 117,784 110,784C9,879 -43,927 -44,929M131,887C112,912 102,931 102,942C102,945 105,949 111,952C116,955 122,956 127,956C132,956 143,944 161,919C178,894 195,868 211,841C227,813 235,795 236,787l-7,-11C194,810 161,847 131,887z"/>
<glyph unicode="&#x212;" horiz-adv-x="289" d="M208,17l0,3C206,55 200,95 190,138C180,181 165,234 146,295C131,341 119,382 109,419l0,-394C109,14 107,7 104,2C100,-3 93,-6 82,-6C74,-6 68,-3 63,2C58,7 56,13 56,21l0,8l2,294C59,410 60,507 60,616l0,123C60,747 62,753 65,756C68,759 75,760 86,760C103,760 118,757 132,751C146,744 158,735 168,724C189,701 202,673 208,640C211,627 212,611 212,594C212,584 211,573 210,561C208,549 207,541 206,538C205,531 202,521 197,508C192,495 189,486 188,482l-12,-28l-10,-26C167,404 171,374 179,337C186,300 195,266 204,235C211,213 223,176 240,125l29,-88l0,-2C269,24 268,14 266,6C264,-5 257,-10 245,-10C232,-10 220,-1 208,17M141,503l15,86C157,592 157,597 157,603C157,622 153,645 146,670C142,682 137,692 131,701C124,709 118,713 111,714l-2,-100C107,569 106,535 106,510C106,487 106,471 107,464C116,473 128,486 141,503M5,789C5,818 11,844 23,868C29,880 38,890 50,897C61,904 75,907 90,907C103,907 113,905 122,902C130,899 137,893 143,885C150,876 155,869 158,862C161,855 165,846 170,835l2,-4l2,-4l-2,-4C172,820 172,819 171,819l5,-16C176,796 173,790 168,785C163,780 156,777 149,777C138,777 131,780 127,786C123,792 121,802 121,815C121,823 119,833 114,844C109,855 103,861 98,861l-21,0C67,854 59,837 53,810C51,799 48,791 43,784C38,777 31,773 24,773z"/>
<glyph unicode="S" horiz-adv-x="307" d="M55,-9C44,-3 39,4 39,12C39,20 41,27 45,32C49,37 55,39 62,39C69,39 78,36 91,31C105,26 114,23 117,23C130,23 141,29 152,40C162,51 170,65 176,83C188,116 194,146 194,173C194,202 190,232 181,264C172,295 159,326 144,356l-16,32C111,421 99,448 90,467C81,486 73,507 66,530C56,562 51,593 51,623C51,647 55,670 64,691C72,712 84,730 101,745C118,761 138,769 163,769C175,769 187,766 198,759C209,752 217,743 222,732l-17,-21C188,711 175,714 166,721C154,720 144,714 135,704C126,693 119,681 114,668C110,655 108,643 108,630C108,605 112,579 119,553C126,526 135,501 146,478l70,-140C227,314 236,287 243,257C250,227 253,197 253,167C253,123 242,82 221,43C210,23 195,7 177,-4C159,-16 139,-22 117,-22C93,-22 72,-18 55,-9z"/>
<glyph unicode="&#x15A;" horiz-adv-x="307" d="M55,-9C44,-3 39,4 39,12C39,20 41,27 45,32C49,37 55,39 62,39C69,39 78,36 91,31C105,26 114,23 117,23C130,23 141,29 152,40C162,51 170,65 176,83C188,116 194,146 194,173C194,202 190,232 181,264C172,295 159,326 144,356l-16,32C111,421 99,448 90,467C81,486 73,507 66,530C56,562 51,593 51,623C51,647 55,670 64,691C72,712 84,730 101,745C118,761 138,769 163,769C175,769 187,766 198,759C209,752 217,743 222,732l-17,-21C188,711 175,714 166,721C154,720 144,714 135,704C126,693 119,681 114,668C110,655 108,643 108,630C108,605 112,579 119,553C126,526 135,501 146,478l70,-140C227,314 236,287 243,257C250,227 253,197 253,167C253,123 242,82 221,43C210,23 195,7 177,-4C159,-16 139,-22 117,-22C93,-22 72,-18 55,-9M115,807C115,810 117,814 120,817l16,14C139,834 158,851 192,880l59,51C254,932 257,933 260,933C268,933 275,929 282,921C289,913 292,905 292,896C292,888 290,883 285,880C261,861 212,833 139,796C138,795 135,794 131,794C127,794 123,795 120,798C117,800 115,803 115,807z"/>
<glyph unicode="&#x160;" horiz-adv-x="307" d="M55,-9C44,-3 39,4 39,12C39,20 41,27 45,32C49,37 55,39 62,39C69,39 78,36 91,31C105,26 114,23 117,23C130,23 141,29 152,40C162,51 170,65 176,83C188,116 194,146 194,173C194,202 190,232 181,264C172,295 159,326 144,356l-16,32C111,421 99,448 90,467C81,486 73,507 66,530C56,562 51,593 51,623C51,647 55,670 64,691C72,712 84,730 101,745C118,761 138,769 163,769C175,769 187,766 198,759C209,752 217,743 222,732l-17,-21C188,711 175,714 166,721C154,720 144,714 135,704C126,693 119,681 114,668C110,655 108,643 108,630C108,605 112,579 119,553C126,526 135,501 146,478l70,-140C227,314 236,287 243,257C250,227 253,197 253,167C253,123 242,82 221,43C210,23 195,7 177,-4C159,-16 139,-22 117,-22C93,-22 72,-18 55,-9M68,991C68,996 71,1001 76,1005C81,1009 86,1011 92,1011C99,1011 108,1001 117,982C124,967 132,942 142,908l13,-46C157,878 158,889 159,895C160,901 161,912 163,929C165,945 168,960 171,973C176,1000 186,1014 199,1014C205,1014 210,1012 214,1008C218,1004 220,999 220,993C220,991 219,988 216,985l-4,-7l0,-18l-14,-55C189,866 184,843 184,834C184,813 176,802 159,802C151,802 140,815 125,841C110,866 97,895 86,926C74,957 68,979 68,991z"/>
<glyph unicode="&#x15E;" horiz-adv-x="307" d="M55,-9C44,-3 39,4 39,12C39,20 41,27 45,32C49,37 55,39 62,39C69,39 78,36 91,31C105,26 114,23 117,23C130,23 141,29 152,40C162,51 170,65 176,83C188,116 194,146 194,173C194,202 190,232 181,264C172,295 159,326 144,356l-16,32C111,421 99,448 90,467C81,486 73,507 66,530C56,562 51,593 51,623C51,647 55,670 64,691C72,712 84,730 101,745C118,761 138,769 163,769C175,769 187,766 198,759C209,752 217,743 222,732l-17,-21C188,711 175,714 166,721C154,720 144,714 135,704C126,693 119,681 114,668C110,655 108,643 108,630C108,605 112,579 119,553C126,526 135,501 146,478l70,-140C227,314 236,287 243,257C250,227 253,197 253,167C253,123 242,82 221,43C210,23 195,7 177,-4C159,-16 139,-22 117,-22C93,-22 72,-18 55,-9M75,-192C75,-185 79,-182 86,-182C89,-182 94,-184 102,-187C110,-190 115,-192 118,-192C129,-192 139,-185 146,-171C153,-158 157,-142 157,-123C157,-101 152,-86 142,-78l-13,-2l-14,-2C105,-82 96,-75 88,-62C93,-48 96,-29 96,-4l0,11l29,4C122,-9 121,-26 121,-40C170,-43 194,-76 194,-140C194,-151 191,-162 184,-174C177,-187 167,-197 155,-206C143,-215 131,-219 118,-219C107,-219 98,-216 89,-211C80,-206 75,-200 75,-192z"/>
<glyph unicode="&#x15C;" horiz-adv-x="307" d="M55,-9C44,-3 39,4 39,12C39,20 41,27 45,32C49,37 55,39 62,39C69,39 78,36 91,31C105,26 114,23 117,23C130,23 141,29 152,40C162,51 170,65 176,83C188,116 194,146 194,173C194,202 190,232 181,264C172,295 159,326 144,356l-16,32C111,421 99,448 90,467C81,486 73,507 66,530C56,562 51,593 51,623C51,647 55,670 64,691C72,712 84,730 101,745C118,761 138,769 163,769C175,769 187,766 198,759C209,752 217,743 222,732l-17,-21C188,711 175,714 166,721C154,720 144,714 135,704C126,693 119,681 114,668C110,655 108,643 108,630C108,605 112,579 119,553C126,526 135,501 146,478l70,-140C227,314 236,287 243,257C250,227 253,197 253,167C253,123 242,82 221,43C210,23 195,7 177,-4C159,-16 139,-22 117,-22C93,-22 72,-18 55,-9M215,800l-39,135l-51,-128C123,802 118,800 111,800C104,800 99,802 94,806C89,809 86,814 86,820C86,824 87,827 88,829l35,88C126,922 130,931 135,944C140,957 144,965 147,970C154,982 162,990 170,994C175,995 180,996 184,996C189,996 194,993 198,987C207,972 216,950 223,919l13,-48C242,847 246,831 249,823C250,821 250,818 250,814C250,808 248,803 243,799C238,795 233,793 227,793C220,793 216,795 215,800z"/>
<glyph unicode="&#x218;" horiz-adv-x="307" d="M55,-9C44,-3 39,4 39,12C39,20 41,27 45,32C49,37 55,39 62,39C69,39 78,36 91,31C105,26 114,23 117,23C130,23 141,29 152,40C162,51 170,65 176,83C188,116 194,146 194,173C194,202 190,232 181,264C172,295 159,326 144,356l-16,32C111,421 99,448 90,467C81,486 73,507 66,530C56,562 51,593 51,623C51,647 55,670 64,691C72,712 84,730 101,745C118,761 138,769 163,769C175,769 187,766 198,759C209,752 217,743 222,732l-17,-21C188,711 175,714 166,721C154,720 144,714 135,704C126,693 119,681 114,668C110,655 108,643 108,630C108,605 112,579 119,553C126,526 135,501 146,478l70,-140C227,314 236,287 243,257C250,227 253,197 253,167C253,123 242,82 221,43C210,23 195,7 177,-4C159,-16 139,-22 117,-22C93,-22 72,-18 55,-9M52,-257C52,-252 63,-229 85,-186C106,-144 125,-110 141,-85C142,-84 143,-83 146,-83C151,-83 156,-85 161,-90C166,-95 169,-100 169,-105C169,-118 163,-136 151,-158C139,-180 125,-201 109,-221C92,-242 79,-256 68,-263C65,-264 63,-265 62,-265l-2,0C55,-265 52,-262 52,-257z"/>
<glyph unicode="&#x1E60;" horiz-adv-x="307" d="M55,-9C44,-3 39,4 39,12C39,20 41,27 45,32C49,37 55,39 62,39C69,39 78,36 91,31C105,26 114,23 117,23C130,23 141,29 152,40C162,51 170,65 176,83C188,116 194,146 194,173C194,202 190,232 181,264C172,295 159,326 144,356l-16,32C111,421 99,448 90,467C81,486 73,507 66,530C56,562 51,593 51,623C51,647 55,670 64,691C72,712 84,730 101,745C118,761 138,769 163,769C175,769 187,766 198,759C209,752 217,743 222,732l-17,-21C188,711 175,714 166,721C154,720 144,714 135,704C126,693 119,681 114,668C110,655 108,643 108,630C108,605 112,579 119,553C126,526 135,501 146,478l70,-140C227,314 236,287 243,257C250,227 253,197 253,167C253,123 242,82 221,43C210,23 195,7 177,-4C159,-16 139,-22 117,-22C93,-22 72,-18 55,-9M108,854C108,864 112,873 119,881C126,888 135,892 145,892C154,892 163,888 170,881C177,873 181,864 181,855C181,844 177,836 170,829C162,822 152,818 141,818C132,818 125,822 118,829C111,836 108,845 108,854z"/>
<glyph unicode="&#x1E9E;" horiz-adv-x="323" d="M49,2l2,130C53,190 54,234 54,263C54,310 53,367 50,436l-2,57l-2,117C46,637 50,665 57,694C65,725 80,748 102,763C115,770 128,774 143,774C160,774 176,769 189,758C202,747 212,732 219,713C230,678 236,644 236,610C236,551 215,488 174,419C209,392 233,365 246,336C259,307 265,267 265,217C265,179 257,143 242,109C226,75 204,47 176,24l-2,-1l-6,-1C162,22 157,24 152,27C147,30 145,35 145,40C145,48 157,67 181,98C190,111 199,127 206,146C213,165 216,183 216,200C216,233 213,263 208,288C202,313 195,333 186,346C176,359 167,370 160,377C158,379 154,383 148,389C141,395 137,400 134,405C131,409 129,413 129,417C129,422 134,436 144,459C155,487 165,516 174,546C183,575 187,601 187,622C187,638 184,657 178,679C175,691 170,701 164,708C158,715 151,719 143,719C134,719 127,716 121,710C114,704 109,696 105,686C98,667 95,649 95,632C95,573 98,472 103,328C108,201 110,99 110,22C110,7 108,-4 103,-11C98,-19 90,-23 78,-23C59,-23 49,-15 49,2z"/>
<glyph unicode="&#x18F;" horiz-adv-x="446" d="M44,221l0,31C44,310 56,356 81,389C106,422 141,438 188,438l7,0l137,-6C333,455 333,483 333,515C333,578 323,631 302,672C281,713 252,734 215,734C177,734 134,711 85,665C83,662 80,661 76,661C70,661 65,664 62,669C59,674 57,681 57,688l0,3C58,695 61,699 65,702C122,748 175,771 224,771C259,771 290,759 317,735C343,710 363,677 377,635C390,594 397,548 397,498l0,-184C397,245 389,187 374,138C359,89 337,53 309,28C280,3 247,-10 210,-10C152,-10 110,9 84,47C57,85 44,143 44,221M225,33C260,42 286,68 303,110C320,151 329,211 329,289l0,4C329,320 330,354 331,394l-140,0C178,394 169,393 163,392C156,390 149,386 141,380C126,368 116,337 111,287C108,256 107,228 107,202C107,87 137,29 196,29C205,29 215,30 225,33z"/>
<glyph unicode="T" horiz-adv-x="262" d="M103,43C103,65 104,92 107,124l2,26l2,53C111,226 109,278 104,359C99,440 97,492 97,515C97,517 97,521 98,527C98,532 98,541 98,553C99,566 99,583 99,602C99,651 96,682 89,695C85,695 76,694 63,692l-28,-2C26,690 19,693 12,698C5,703 2,709 2,717C2,725 10,732 26,738C49,746 89,752 145,755C168,756 181,757 186,757C194,757 201,754 208,749C215,744 218,737 218,729C218,721 215,715 210,710C204,705 197,702 188,702l-18,1C165,704 159,704 152,704l-10,0C147,659 149,618 149,581l-1,-64C147,498 147,476 147,452C147,420 148,382 151,337C154,282 156,243 156,222C156,197 157,167 160,132C163,97 164,67 164,42C164,9 154,-7 135,-7C125,-7 117,-2 112,8C106,17 103,29 103,43z"/>
<glyph unicode="&#x166;" horiz-adv-x="342" d="M334,419C334,412 332,406 327,402C322,398 315,396 306,396l-94,-2l3,-57C218,292 219,254 219,222C219,205 221,175 224,132l2,-30l2,-60C228,9 218,-7 199,-7C189,-7 181,-2 176,8C170,17 167,29 167,43C167,61 168,88 170,124C173,155 174,182 174,203C174,242 172,294 167,359l-2,34l-70,-2C68,391 55,402 55,423C55,438 62,445 77,445l86,0C162,482 161,506 161,515l1,38l0,49C162,650 159,681 153,695C148,695 139,694 127,692l-28,-2C90,690 83,693 76,698C69,703 66,709 66,717C66,725 74,732 90,738C113,746 153,752 208,755C231,756 245,757 250,757C258,757 265,754 272,749C279,744 282,737 282,729C282,720 279,714 274,709C268,704 260,702 251,702l-18,1C228,704 223,704 216,704l-10,0C210,665 212,624 212,581C212,557 212,536 211,517l-1,-65l0,-7l14,0l31,2l31,2C318,449 334,439 334,419z"/>
<glyph unicode="&#x164;" horiz-adv-x="262" d="M103,43C103,65 104,92 107,124l2,26l2,53C111,226 109,278 104,359C99,440 97,492 97,515C97,517 97,521 98,527C98,532 98,541 98,553C99,566 99,583 99,602C99,651 96,682 89,695C85,695 76,694 63,692l-28,-2C26,690 19,693 12,698C5,703 2,709 2,717C2,725 10,732 26,738C49,746 89,752 145,755C168,756 181,757 186,757C194,757 201,754 208,749C215,744 218,737 218,729C218,721 215,715 210,710C204,705 197,702 188,702l-18,1C165,704 159,704 152,704l-10,0C147,659 149,618 149,581l-1,-64C147,498 147,476 147,452C147,420 148,382 151,337C154,282 156,243 156,222C156,197 157,167 160,132C163,97 164,67 164,42C164,9 154,-7 135,-7C125,-7 117,-2 112,8C106,17 103,29 103,43M55,972C55,977 58,982 63,986C68,990 73,992 79,992C86,992 95,982 104,963C111,948 119,923 129,889l13,-46C144,859 145,870 146,876C147,882 148,893 150,910C152,926 155,941 158,954C163,981 173,995 186,995C192,995 197,993 201,989C205,985 207,980 207,974C207,972 206,969 203,966l-4,-7l0,-18l-14,-55C176,847 171,824 171,815C171,794 163,783 146,783C138,783 127,796 112,822C97,847 84,876 73,907C61,938 55,960 55,972z"/>
</font>
</svg>
